/* XPM */
static char *_9cd60af1e664fca9288cd2f3b645539heoaflEo4tjnmTdC[] = {
/* columns rows colors chars-per-pixel */
"40 40 167 2 ",
"   c #1C1E1E",
".  c #1E2022",
"X  c #222224",
"o  c #262728",
"O  c #282B2E",
"+  c #2B2828",
"@  c #332C2B",
"#  c #3E3027",
"$  c #2E3035",
"%  c #2D343C",
"&  c #333335",
"*  c #3D3431",
"=  c #33363C",
"-  c #383739",
";  c #35383C",
":  c #3C3B3D",
">  c #653A1F",
",  c #43362E",
"<  c #553A2B",
"1  c #593B2C",
"2  c #4E3930",
"3  c #483D38",
"4  c #443934",
"5  c #5B3F31",
"6  c #673C23",
"7  c #4C413D",
"8  c #51433E",
"9  c #5F4539",
"0  c #684129",
"q  c #333A42",
"w  c #3D3E43",
"e  c #403F42",
"r  c #3F4145",
"t  c #3C444D",
"y  c #424246",
"u  c #444549",
"i  c #494748",
"p  c #47484C",
"a  c #4A494C",
"s  c #574843",
"d  c #5D4C45",
"f  c #5F524C",
"g  c #494D52",
"h  c #604E48",
"j  c #6A5243",
"k  c #6D5648",
"l  c #7A5D49",
"z  c #6D5952",
"x  c #766159",
"c  c #786762",
"v  c #A64F1A",
"b  c #AB521B",
"n  c #B2561D",
"m  c #8C532C",
"M  c #9F5022",
"N  c #8C5534",
"B  c #8C5837",
"V  c #8D5D3F",
"C  c #905230",
"Z  c #925A3C",
"A  c #A15428",
"S  c #BA5D21",
"D  c #A55D32",
"F  c #A85C31",
"G  c #9C623D",
"H  c #94603D",
"J  c #BD6124",
"K  c #AA623B",
"L  c #A2633C",
"P  c #B46837",
"I  c #BA6C32",
"U  c #B9723D",
"Y  c #C36326",
"T  c #C96625",
"R  c #C46628",
"E  c #C6692B",
"W  c #CB6B29",
"Q  c #DB742E",
"!  c #C97036",
"~  c #C4763D",
"^  c #CF773A",
"/  c #CD7C3F",
"(  c #D37332",
")  c #DB7633",
"_  c #D67935",
"`  c #DC7B36",
"'  c #DD7E38",
"]  c #D57B38",
"[  c #E37C35",
"{  c #E07F38",
"}  c #8C6447",
"|  c #9C6743",
" . c #9F6842",
".. c #AC6E4D",
"X. c #AD6A47",
"o. c #B57546",
"O. c #B97441",
"+. c #B2795B",
"@. c #836C64",
"#. c #92796F",
"$. c #8B7670",
"%. c #D27E40",
"&. c #DD823E",
"*. c #E78135",
"=. c #E4843C",
"-. c #E9863B",
";. c #EC893E",
":. c #EA8337",
">. c #F28B3E",
",. c #B9866D",
"<. c #D98241",
"1. c #ED8B40",
"2. c #F38F41",
"3. c #C0927B",
"4. c #B4978C",
"5. c #BE9F93",
"6. c #BEA99F",
"7. c #BAA69D",
"8. c #BEABA1",
"9. c #CAA494",
"0. c #C5A699",
"q. c #C1ADA3",
"w. c #CBB4A9",
"e. c #CFB9AD",
"r. c #D2B3A6",
"t. c #D3B6AB",
"y. c #D4B9AD",
"u. c #DABBAE",
"i. c #D5BCB3",
"p. c #DBBEB1",
"a. c #DBC1B6",
"s. c #DCC5BB",
"d. c #DFC8BC",
"f. c #E1C3B5",
"g. c #E1CABE",
"h. c #E8CDBF",
"j. c #DDC7C0",
"k. c #DECAC2",
"l. c #E2CDC4",
"z. c #E2CFC8",
"x. c #E5D1C6",
"c. c #E9D0C7",
"v. c #E5D2CA",
"b. c #E9D3CA",
"n. c #EAD9CF",
"m. c #E5D9D4",
"M. c #EDDDD3",
"N. c #E8DDD9",
"B. c #E3D6D0",
"V. c #EFE0D7",
"C. c #ECE2DE",
"Z. c #F0E0D7",
"A. c #F1E3D9",
"S. c #F2E4DB",
"D. c #F3EEEC",
"F. c #F3ECE9",
"G. c #F5E9E4",
"H. c #F9F6F6",
"J. c #FDFDFD",
"K. c #FEFDFD",
"L. c #FEFEFE",
"P. c #FFFEFE",
"I. c white",
"U. c #FEFFFF",
"Y. c #FEFEFD",
"T. c #FFFFFF",
"R. c #F5F1F0",
/* pixels */
"I.I.I.I.I.I.I.I.I.I.I.I.I.I.I.I.I.I.I.I.I.I.I.I.I.I.I.I.I.I.I.I.I.I.I.I.I.I.I.I.",
"I.I.I.I.I.I.I.I.I.I.I.I.I.I.I.I.J.I.J.C.I.I.Y.I.I.I.I.I.I.I.I.I.I.I.I.I.I.I.I.I.",
"I.I.I.I.I.I.I.I.I.I.I.I.I.I.I.I.I.F.s.s.j.R.I.Y.I.I.I.I.I.I.I.I.I.I.I.I.I.I.I.I.",
"I.I.I.I.I.I.I.I.I.I.I.I.I.J.I.I.m.a.m.V.M.a.N.I.I.Y.I.I.I.I.I.I.I.I.I.I.I.I.I.I.",
"I.I.I.I.I.I.I.I.I.I.I.I.I.I.H.s.g.Z.g.a.l.Z.g.s.H.I.I.I.I.I.I.I.I.I.I.I.I.I.I.I.",
"I.I.I.I.I.I.I.I.I.I.I.I.I.m.y.M.n.s.u.0.f.s.M.b.s.C.I.I.I.I.I.I.I.I.I.I.I.I.I.I.",
"I.I.I.I.I.I.I.I.I.J.I.I.k.g.x.x.f.t.x @ @.u.h.x.V.s.z.I.I.I.I.I.I.I.I.I.I.I.I.I.",
"I.I.I.I.I.I.I.I.I.I.H.i.n.M.g.h.4.4 o - X 8 7.f.d.V.s.t.J.I.Y.I.I.I.I.I.I.I.I.I.",
"I.I.I.I.I.I.I.J.I.J.t.i.M.a.u.@.+ ; g u u o + #.p.d.M.g.i.J.I.I.I.I.I.I.I.I.I.I.",
"I.I.I.I.I.I.I.I.J.i.M.n.f.t.d o a a y y u u -   z p.a.M.n.s.I.I.I.I.I.I.I.I.I.I.",
"I.I.I.I.I.I.I.I.l.b.n.p.r.8 o p y y y y y y p r . h u.p.A.l.v.I.I.I.I.I.I.I.I.I.",
"I.I.I.I.I.I.I.N.i.S.a.u.d o p r y y y y y y y u u . z f.s.S.i.D.I.I.I.I.I.I.I.I.",
"I.I.I.I.I.I.I.s.n.x.f.c . a y a p y y y u y u u a y   $.f.x.l.i.I.I.I.I.I.I.I.I.",
"I.I.I.I.I.I.N.l.V.a.9.> , $ % q q y r y y r q % $ $ # 6 r.s.Z.s.C.I.I.I.I.I.I.I.",
"I.I.I.I.I.I.s.M.g.a...W =.I m 0 0 & O & O @ < 0 m I =.J +.a.b.n.d.I.I.I.I.I.I.I.",
"I.I.I.I.I.F.i.A.s.9.M _ -.>.*.) ` 9 % - & < Q ` :.;.;.( A r.g.A.s.R.I.I.I.I.I.I.",
"I.I.I.I.I.m.g.n.a.,.b =.;.;.( ( { j % 3 q < Q ( ' -.1.' v 3.s.M.l.C.I.I.I.I.I.I.",
"I.I.I.I.I.v.M.x.a...J -.;.;.` Q { j = ; q < Q _ -.1.2.{ n +.a.c.v.B.I.I.I.I.I.I.",
"I.I.I.I.I.j.M.g.e.L R -.;.>.&.( { j % w q < ) _ =.1.1.{ S X.i.l.x.v.I.J.I.I.I.I.",
"I.I.I.I.I.s.n.g.r.F E -.1.1.*.[ [ j % : = < [ [ ;.1.1.{ Y K y.h.m.k.I.I.I.I.I.I.",
"I.I.I.I.I.i.g.b.t.F E ;.;.2./ N ^ k % : q 1 ! N %.2.;.=.Y K t.x.x.s.I.J.I.I.I.I.",
"I.I.I.I.I.s.A.s.r.C R ~ ;.U V G L h = : q < Z D | U ;.U S Z p.x.l.s.I.I.I.I.I.I.",
"I.I.I.I.I.s.M.g.r.C E / =.~ X.Z G d = : ; < L | Z U 1.~ J Z y.g.M.s.I.I.I.I.I.I.",
"I.I.I.I.I.l.M.g.r.F E >.;.>.&.P ) j % : q 1 _ P ] 2.1.2.R K t.l.x.s.I.I.I.I.I.I.",
"I.I.I.I.I.j.Z.g.r.D E -.1.1.' [ { j % : ; < [ ) *.1.1.;.R K t.l.v.j.I.I.I.I.I.I.",
"I.I.I.Y.I.y.x.g.r.F R -.1.1._ ( [ j = : q < ) ( ' 1.;.-.Y K y.g.M.j.I.I.I.I.I.I.",
"I.I.I.I.I.t.l.g.r.F Y =.-.1._ ( [ j % : = 1 ) ( ' ;.;.-.R K y.g.M.l.I.I.I.I.I.I.",
"I.I.I.I.I.s.V.f.t.D Y ' -.;.*.( { k q e q 5 _ ) =.-.-.-.Y K y.g.v.j.I.I.I.I.I.I.",
"I.I.I.I.I.s.v.x.t.D T *.<...} h d g e u y a f k } o.&.;.T K u.v.x.j.I.I.I.I.I.I.",
"I.I.I.I.I.s.n.l.r.F D l i w q q u w w e y u u g t r a l F K y.g.M.j.I.I.I.I.I.I.",
"I.I.I.I.I.j.Z.s.r.9 = t p y u u p e e u u y y y a i r q $ j u.x.l.s.I.I.I.I.I.I.",
"I.I.I.I.I.s.n.g.t.* - a y y u e u u u e u y u y y u y p & 7 u.g.M.j.I.I.I.I.I.I.",
"I.I.I.I.I.i.v.x.r.4 - u u u y y y y y y y y y u y y u u - 7 u.l.n.k.I.J.I.I.I.I.",
"I.I.I.I.I.s.M.g.r.* & u r y y r y y w w u y y e y y r u & 7 u.g.M.d.I.I.I.I.I.I.",
"I.I.I.I.I.d.M.d.t.3 & y y y y y y y e u y y y w y y y y & s u.l.M.j.I.I.I.I.I.I.",
"I.I.I.I.m.w.e.i.w.6.q.8.q.8.8.8.6.q.q.q.q.6.w.6.8.8.8.q.7.q.e.y.i.w.N.I.I.I.I.I.",
"I.I.I.G.l.x.l.l.z.n.v.c.c.c.n.l.b.b.v.n.n.v.c.v.c.b.v.c.c.b.v.l.l.l.v.F.I.I.I.I.",
"I.I.I.m.l.v.l.l.l.z.j.j.k.l.z.k.k.k.l.k.j.s.j.j.l.l.l.k.z.z.k.j.k.z.k.v.I.I.I.I.",
"I.I.I.J.I.J.J.J.I.J.J.J.J.J.I.J.J.J.J.J.I.I.I.J.I.I.J.J.I.J.J.J.I.J.J.I.I.I.I.I.",
"I.I.I.I.I.I.I.I.I.I.I.I.I.I.I.I.I.I.I.I.I.I.I.I.I.I.I.I.I.I.I.I.I.I.I.I.I.I.I.I."
};
