/* XPM */
static char *f09578777609413fc3c948ab66b9e8c4ACUJENz6lGKhCHPP[] = {
/* columns rows colors chars-per-pixel */
"40 40 149 2 ",
"   c #583F29",
".  c #5E442D",
"X  c #5F4630",
"o  c #61462F",
"O  c #63482F",
"+  c #624730",
"@  c #654A32",
"#  c #684C33",
"$  c #684B34",
"%  c #684C34",
"&  c #694C34",
"*  c #684D35",
"=  c #694D35",
"-  c #6A4C34",
";  c #6B4C34",
":  c #684E35",
">  c #694E35",
",  c #6A4E35",
"<  c #684D36",
"1  c #684E36",
"2  c #694E36",
"3  c #684F36",
"4  c #684F37",
"5  c #694F37",
"6  c #6A4E36",
"7  c #6A4F36",
"8  c #6B4F36",
"9  c #6A4E37",
"0  c #6A4F37",
"q  c #6B4F37",
"w  c #6C4F36",
"e  c #694C34",
"r  c #674E3A",
"t  c #694F38",
"y  c #6A4F38",
"u  c #6A5036",
"i  c #6A5037",
"p  c #6B5037",
"a  c #6D5137",
"s  c #6B5037",
"d  c #695038",
"f  c #6A5038",
"g  c #6B5038",
"h  c #6A5138",
"j  c #6B5138",
"k  c #6A5039",
"l  c #6B5039",
"z  c #6B5139",
"x  c #6A5238",
"c  c #6B523A",
"v  c #6D5138",
"b  c #6C5139",
"n  c #6D5139",
"m  c #6E5138",
"M  c #6F5139",
"N  c #6D5238",
"B  c #6C5239",
"V  c #6D5239",
"C  c #6D5339",
"Z  c #6E5239",
"A  c #6F5339",
"S  c #6C533A",
"D  c #6E533A",
"F  c #6F533B",
"G  c #6F543A",
"H  c #6E543B",
"J  c #6F543B",
"K  c #6E553C",
"L  c #6F553C",
"P  c #6F563C",
"I  c #6F563D",
"U  c #6D523A",
"Y  c #705239",
"T  c #715339",
"R  c #70533A",
"E  c #70543A",
"W  c #71543A",
"Q  c #70553B",
"!  c #71563B",
"~  c #73563B",
"^  c #71553C",
"/  c #70563C",
"(  c #71573C",
")  c #70563D",
"_  c #72563C",
"`  c #72573C",
"'  c #72563D",
"]  c #73573D",
"[  c #73573E",
"{  c #71563C",
"}  c #72583D",
"|  c #71583E",
" . c #71593F",
".. c #73583E",
"X. c #73593E",
"o. c #735A3F",
"O. c #74583E",
"+. c #75583E",
"@. c #75583F",
"#. c #74593F",
"$. c #75593F",
"%. c #76583E",
"&. c #755A3E",
"*. c #755A3F",
"=. c #765A3F",
"-. c #74593E",
";. c #725741",
":. c #755940",
">. c #745A40",
",. c #755B40",
"<. c #765B40",
"1. c #765B41",
"2. c #775B41",
"3. c #755C41",
"4. c #775C41",
"5. c #765D41",
"6. c #765E41",
"7. c #775D42",
"8. c #775E43",
"9. c #755B41",
"0. c #785B40",
"q. c #785C40",
"w. c #785C41",
"e. c #785D41",
"r. c #795D41",
"t. c #795D42",
"y. c #795F43",
"u. c #7A5E43",
"i. c #7B5F43",
"p. c #7B5F44",
"a. c #7C5F44",
"s. c #795E42",
"d. c #796044",
"f. c #7B6144",
"g. c #7C6045",
"h. c #7D6145",
"j. c #7F6245",
"k. c #7D6347",
"l. c #7F6346",
"z. c #7F6347",
"x. c #7D6145",
"c. c #7F6548",
"v. c #7F654A",
"b. c #806547",
"n. c #836549",
"m. c #846649",
"M. c #836549",
"N. c #896C4D",
"B. c #846A50",
/* pixels */
"E 0 + . + @ @ # 0 p [ < . + 0 + # @ - o o @ p O o O o . + H O # o . o @ O ; $ w ",
"E B + o @ + o @ @ o . o . 0 | 0 @ . < o o O - Y =.@ . . < w.< + @ @ =.- - O y :.",
"b.K [ w O - - # @ . + + . 0 w.@ . . + + . @ @ E w.. 0 | 7.m.E o @ 0 :.X o @ o + ",
"E d =.0 . o o o o @ B E | o @ 0 # - O . . . . o o . . o p 7.H < . . . . . o o o ",
"H X + < 0 $ @ o @ B B o @ - O | B @ @ + + B o @ + @ o o + . 4 @ . $ @ @ - @ o @ ",
"p K $ @ w w.+.0.# p o - @ p # o O o + 0 @ B o o o O O O # @ X K + a.:.o @ o o + ",
"o o :.@ @ + B :.+ O - @ =.=.w.B . . o . . 0 O @ @ @ @ O O . | M.7.K $ @ o o + @ ",
"T B + . d < + B . o . < d p w.w.$ . o O @ < o o + + O - @ 0 d | d 0 + @   . < d.",
"g.:.. . 0 @ + @ o o . . . . + O o < + o + X O . o o o . . + + X 0 O # T =.+ . @ ",
"0 @ O o o O @ . @ w B 0 o O @ o . . o o o + . . o O ; o o + + y | + o =.b.d.+ @ ",
"@ O @ @ @ o @ 0 - 0 B g.d o @ B | =.o @ @ . . o M T o @ @ @ + + @ # =.p 0 @ . . ",
". @ . p g.+.o o o o p 0 # B @ - w.=.@ # < X | + =.b.T @ o d + . . 0 d.~ E . < + ",
"@ +.B @ 7.| o @ @ @ o + o . < H . w w o T + [ B @ | M.0 $ . $ . o . . | k.p . @ ",
"o o - @ + d @ @ @ - @ o o . . o o 0 d $ y i.H @ < + @ @ =.B X . o o o O O . . . ",
"o o o o . + . < w . o @ - @ o - . B 0.[ [ 0 0 o o o . O - B @ - p 0 # # # O . O ",
"@ O O @ d o @ @ o o O +.B @ ; @ + d + :.w.. - w $ # i.0 o o o @ d O H + X + . # ",
"[ + @ 0 < @ o p w.@ +.| o.@ + X + o O @ + y $ 0 @ @ :.p @ 0 - O @ @ 0 o . + . @ ",
"# . . [ . . o 0 d.p H w.d.d.. . + @ - @ $ d . . - o o + @ O - w O @ o . . . p g.",
". $ [ . . o 0 - X [ < | f.p @ d . @ o o @ . X @ o o . . . . B E - o O O 0 . + c ",
"< g.N.B + . @ @ O . d # 0 < @ ;.B . + + X X r K @ o o @ @ + + . o o ; %.| @ . H ",
"@ 0 H =.g.. + + . + . . $ 4 r v.9.r K B.;.;.;.r c ;.U 0 H | . O ; ; ; @ @ ; ; w ",
"B 7.. p 0 . | E + H o O @ @ @ K @ + @ K r < d.c ;.4 $ @ # p . O @ @ O O O + + @ ",
"+ # . . . 0 o O # . o + @ o . # @ . @ o :.w.< < :.. o @ # + < o + @ ; ; - + @ @ ",
"O + . . o O @ E < @ =.< @ @ @ + c X @ y 7.7.| + @ - @ H d ;.d [ O - - + @ + @ @ ",
"O . @ K + o # 8.o o $ X + . 0 + c X + + p + . . . o o < @ [ + < . . . . o o @ o ",
". . . @ < . X + . o $ . . K H . o.< < H M.< . @ @ + @ . | N.p d 0 o @ O . o o o ",
"+ o $ w.@ o d . . o @ o . f.[ . H # + + | < . =.b.B @ - - p # @ - - - + B [ o O ",
"0 @ 0 0 o o d @ - - - # 0 - o O E @ @ @ + p . < p + + o o . + @ @ O B X B B o @ ",
"@ @ 0 [ [ . o + O o @ + O @ O O + . O o . @ + . . o @ 0 f.< . . o o :.$   O @ - ",
"B =.. =.w.. @ $ @ # p @ . =.d.X . O + O E B + @ < < . o p $ @ @ - @ 0 @ o . @ 0.",
"@ 0 . 0 0 o o o . H 4 . p [ 7.x < # o o 0 E - 0 o | d $ . o o + o o @ - o - o + ",
". o O o o + | 0 o 7.P + + . . . P =.. # @ o o O # p < B + . . . o . . O - - @ O ",
". @ @ o - o @ @ - - @ | @ @ O # @ o . E p o O o [ E O + + o H B o o 0 - - - # O ",
"o O O $ o ~ =.B p o @ < . o @ - @ @ O - @ - - @ o o 0 @ . H H K + @ 0 w.$ @ @ o ",
"o @ @ $ O B 0 d E . o @ o . . . o . . . @ . o o o o . @ O + + =.E o o # o o @ o ",
"o b.T   + . . . o o O - + $ 0.+ O @ @ @ @ o o o B E O # . . < # @ . o o @ @ - o ",
"  y B X [ + + @ @ $ @ @ o $ :.E 0 p w - - - - 0 p 0 + @ . @ | . + + . # + 0 0 o ",
"  M M.B o B - B 0 w M o @ . X M.B w.# o o . . d.E . + . X . . O < m.@ . B E y . ",
"; T [ B + v.< K w.0 B o o O @ 0 =.[   0 0 + p d d + o o + =.p p 0 w.< < 0 | + O ",
"R y . . . @ + < < +.o # @ @ @ @ 0 0 @ @ @ +.g.# + @ . + @ # @ E p @ . o.d o @ @ "
};
