/* XPM */
static char *result[] = {
/* columns rows colors chars-per-pixel */
"40 40 92 1 ",
"  c #5E5E5E",
". c #5E5F60",
"X c #5F6061",
"o c #5F6468",
"O c #626263",
"+ c #686867",
"@ c #646769",
"# c #65686A",
"$ c #6B6C6C",
"% c #666D74",
"& c #687274",
"* c #657079",
"= c #6C747B",
"- c #747474",
"; c #747779",
": c #797979",
"> c #9C7240",
", c #99754B",
"< c #907351",
"1 c #997A55",
"2 c #93795B",
"3 c #917F69",
"4 c #816778",
"5 c #96836D",
"6 c #8E8375",
"7 c #8F867D",
"8 c #948572",
"9 c #90887F",
"0 c #6E7982",
"q c #737D85",
"w c #727F89",
"e c #867485",
"r c #74828D",
"t c #7E8488",
"y c #7E888F",
"u c #758592",
"i c #778C95",
"p c #7C8A95",
"a c #7D8F9C",
"s c #799197",
"d c #858585",
"f c #85878A",
"g c #8B8B8B",
"h c #978F86",
"j c #988E82",
"k c #9B9083",
"l c #95928D",
"z c #9C938A",
"x c #828F99",
"c c #8D9195",
"v c #84929C",
"b c #8D9499",
"n c #939393",
"m c #9B9792",
"M c #9F9A94",
"N c #9D9C9B",
"B c #A19E9C",
"V c #A2A09D",
"C c #8296A4",
"Z c #8499A7",
"A c #879BAA",
"S c #889CAB",
"D c #87A5AE",
"F c #8BAAB4",
"G c #8DAFBC",
"H c #8DB2BB",
"J c #A4A3A3",
"K c #A8A7A7",
"L c #A5A7A9",
"P c #A7A8A9",
"I c #AAAAAB",
"U c #B0AFAF",
"Y c #B3B4B4",
"T c #94B6C1",
"R c #93B8C3",
"E c #99BBC6",
"W c #95BEC8",
"Q c #98BEC8",
"! c #9BC4D1",
"~ c #A9CED8",
"^ c #AADFEC",
"/ c #B8E0EB",
"( c #ADE2F0",
") c #B5EFFE",
"_ c #B6F0FF",
"` c #BAF2FF",
"' c #C3E5EF",
"] c #C6ECF6",
"[ c #C4F3FF",
"{ c #CCF4FE",
"} c #D4F6FF",
"| c #D8F7FF",
/* pixels */
"AAAAAAAAAAAAAAAAAAAAAAAAAAAAAAAAAASAAAAA",
"AAAAAAAAAAAAAAAAAAAAAAAAAAAAAAAAAAAAAAAA",
"AAAAAAAAAAAAAAAAAAAAAAAAAAAAAAAAAAAAAAAA",
"AAAAAAAAAAAAAAAAAAAAAAAAAAAAAAAAAAAAAAAA",
"AAAAAAAAAAAAAAASAAAAAAAAAAAAAAAAAAAAAAAA",
"AAAAAAAASAAAAAASAAAAAAAAAAAAAAAAAAAAAASA",
"AAAAAAAAAAAAAASSAAAAAAAAAAAAAAAAAAAAAAAA",
"AAAAAAAAAAAAAASSAAZCCAAAAAAAAAAAAAAAAAAA",
"AAAAAAAAAAASAAASCAFTHFZZAAAAAAAAAAAAAAAA",
"SAAAAAAAAAAAAAAaE'|||{/TCAASAAAAAAAAAAAA",
"AAAAAAAAAAAASAa~|}[`````!CASeeAAAAASAAAA",
"AAAAAAAAAAAASZ!|{)))`)__)RCS4qAAAAAAAAAA",
"AAAAAAAAAAAAAD]|``))_____(AApCAAAAAAAAAA",
"AAAAAAAAAAAAZT|[))`)_____)GZuCAAAAAAAAAA",
"AAAAAAAAAAAZrQ|`__))______HuwAAAAAAAAAAA",
"AAAAAAAAACxb;F{`__)_______A;txCAAAAAAAAA",
"AAAAAAAACcNUN%G()_```___^D&VV6yCAAAAAAAA",
"AAAAAAAAbh<VIn$=sFRWWRDs&&mVm2lvAAAAAAAS",
"AAAAAAAAyNM88UNg:$+@++$:glK15LKyAAAAAAAA",
"AAAAAAAA=nI3kk,Jz6J79V59B>9V9Yg0SAAAAAAA",
"AAAAAAAAuOcIYz3P21L11L15IjBYUgOiSAAAAAAA",
"AAAAAAAAA=O-nPYYKKYNBYIIYYLn$OrAAAAAAAAA",
"AAAAAAAAAAro.+:gmBJLKVBmg;+ @uCAAAAAAAAA",
"AAAAAAAAAAAa;-+O OOOOOOXO$;;aAAAASAAAAAA",
"AAAAAAAAAAAAZ;dnnfddddgcmdqZAAAAAAASAAAA",
"AAAAAAAAAAAAA*Owxbbcdfcxio=AAAAAAAAAAAAA",
"AAAAAAAAAAAAA%#CAAAu.=ZAS=&AAAAAAAAAAAAA",
"AAAAAAAAAAAAZ#wAAASaowSSSa%ZAAAAAAAAAAAA",
"AAAAAAAAAAAAZ%CAAAAC#pSSAZqZAAAAAAAAASAA",
"AAAAAAAAAAAAZaAAAAAZ*aSSAAAAAAAAAAAAAAAA",
"AAAAAAAAAAAAAAAAAAAAuCAAAAAAAAAAAAAAAAAA",
"AAAAAAAAAAAAAAAAAAAAAAAAAAAAAAAAAAAAAAAA",
"AAAAAAAAAAAAAAAAAAAAAAAAAAAAAAAAAAAAAAAA",
"AAAAAAAAAAAAAAAAAAAAAAAAAAAAAAASAAAAAAAA",
"AAAAAAAAAAAAAAAAAAAAAAAAAAAAAAAAAAAAAAAA",
"AAAAAAAAAAAAAAAAAAAAAAAAAAAAAAAAAAAAAAAA",
"AAAAAAAAAAAAAAAAAAAAAAAAAAAAAAAAAAAAAAAA",
"AAAAAAAAAAAAAAAAAAAAAAAAAAAAAAAAAAAASAAA",
"AAAAAAAAAAAAAAAAAAAAAAAAAASAAAAAAAAAAAAA",
"AAAAAAAAAAAAAAAAAAAAAAAAAAAAAAAAAAAAAAAA"
};
