/* XPM */
static char *fae0c90de7744c14ac3022fd5b49da447oDPTCTfUchcEKPs[] = {
/* columns rows colors chars-per-pixel */
"40 40 105 2 ",
"   c #3B241E",
".  c #3C2D25",
"X  c #382F2D",
"o  c #3A3027",
"O  c #35342B",
"+  c #3A3028",
"@  c #32382E",
"#  c #362D34",
"$  c #273E33",
"%  c #2F3D34",
"&  c #313B31",
"*  c #34323B",
"=  c #3E3139",
"-  c #4E1F19",
";  c #5E1D16",
":  c #5C1F19",
">  c #671E17",
",  c #6B1D16",
"<  c #611E18",
"1  c #771D15",
"2  c #7C1E15",
"3  c #47251F",
"4  c #4D251E",
"5  c #52231C",
"6  c #5B231C",
"7  c #62251D",
"8  c #6B231E",
"9  c #73241B",
"0  c #7C241B",
"q  c #462721",
"w  c #432A23",
"e  c #4A2922",
"r  c #552724",
"t  c #532820",
"y  c #4C3235",
"u  c #7D362F",
"i  c #254135",
"p  c #2D4136",
"a  c #274438",
"s  c #2B453A",
"d  c #2B4A3D",
"f  c #2D3F42",
"g  c #323643",
"h  c #333947",
"j  c #313A49",
"k  c #2F4E41",
"l  c #304F42",
"z  c #335245",
"x  c #375649",
"c  c #38574A",
"v  c #3B5B4E",
"b  c #2B465D",
"n  c #3F5F52",
"m  c #294B64",
"M  c #405F52",
"N  c #426355",
"B  c #466659",
"V  c #831E15",
"C  c #8C1F15",
"Z  c #941F15",
"A  c #8F2117",
"S  c #82251B",
"D  c #8F261B",
"F  c #962016",
"G  c #94251A",
"H  c #99261C",
"J  c #9A281E",
"K  c #A3281C",
"L  c #AD291D",
"P  c #B52A1E",
"I  c #BD2B1E",
"U  c #9D2D24",
"Y  c #A03027",
"T  c #A4352B",
"R  c #A7382F",
"E  c #B9392D",
"W  c #AC3D33",
"Q  c #B13F35",
"!  c #C22D1F",
"~  c #C82D1F",
"^  c #C92E1F",
"/  c #C62D20",
"(  c #C72E20",
")  c #C82E20",
"_  c #CA2E20",
"`  c #C93022",
"'  c #C93325",
"]  c #C93426",
"[  c #C93628",
"{  c #C93629",
"}  c #C63C2F",
"|  c #C8382A",
" . c #C83A2D",
".. c #C93F32",
"X. c #AE4036",
"o. c #AF4036",
"O. c #B44339",
"+. c #BB4439",
"@. c #BD463B",
"#. c #C04237",
"$. c #C64034",
"%. c #C44337",
"&. c #C34438",
"*. c #C1463A",
"=. c #C4453A",
/* pixels */
"d d d d d d d d d d s d d d d a d d d a d i a d d a d d d d d a d O j m m m m m ",
"d d d d a d a d s d d d a d d d d d d d d a i d s a s s p a a d d @ g m m m m m ",
"d d d a d d d d d d d d d d d d d d a % @ . . e t 6 r 6 7 6 5 e w . # b m m m m ",
"s d d d d d d d d d d d d d a % O e 6 9 G K L I I ! ( ~ ] ! I I L J 0 r j m m m ",
"k d d d d d d d d d d s & o 5 9 H P ! ~ ` ^ ~ ~ ` ( ` ( ~ ( ( ( ) ) ) I 8 j m m ",
"d d d d d d d d d s & e 9 J I ) ~ ~ ~ ` ( ^ ` ( ~ ~ ~ ~ ( ( ~ ` ) ) ) ) I r b m ",
"d d d d d d d d @ 4 S P / ) ) ) ~ ~ / ~ ( ~ ( ~ ~ ( ` ~ ` ( ~ ( ) ) ` ( ` G h m ",
"d d d d d d % q 0 P ) ) ) ) ) ) ~ ~ ` ~ ` ~ ` ~ ~ ` ( ~ ~ ~ ~ ` ) ) ) / / L = m ",
"d d d d s O 7 K ) ) ) ) ) ) ) ) ~ ` ~ ` ~ ` ~ ` ~ ( ` ~ ~ ~ ~ ( ) ) ) ) ) E y b ",
"d d a $   S ! ) ) ) ) ) ) ) ) ) ~ ( ~ ( ~ ( ~ ( ~ ` ( ~ ( ` ~ ` ) ) ) ) ' O.r b ",
"$ i $ w D / ) ) ) ) ) ) ) ) ) ) ( ` ~ ~ ( ` ~ ~ ~ ~ ~ ~ ` ( ~ ( ) ) ~ ~ *.Y < * ",
"d d + G ) ) ) ) ) ) ) ) ) ) ) ) ~ ~ ` ( ~ ~ ` ( ( ` ( ` ~ ~ ~ ` ) ) ` *.R F ,   ",
"d & 0 / ) ) ) ) ) ) ) ) ) ) ) ) ( ~ ( ` ~ ~ ( ~ ~ ~ ( ^ ~ ~ ~ ( ) ' *.T F F 1 o ",
"s t I ) ) ) I ! ) ) ) ) ) ) ) ) ` ~ ~ ~ ` ( ` ~ ( ~ ` ( ( ` ~ ` | +.Y F F F V 3 ",
"@ S ) ) ) ) I ! ) ) ) ) ) ) ) ) ~ ` ( ` ~ ~ ~ ` ! I ^ ~ ` ^ ] &.Q H Z F F F V 5 ",
"+ K ) ) ) ) ) ) ) ) ) ) ) ) ) ) ~ ( ~ ~ ` ( ~ ( ( ( ~ ~ ] %.O.U F F F F F F F ; ",
". U ) ) ) ) ) ) ) ) ) ) ~ ~ ^ ~ ( ~ ( ` ~ ~ ~ ( ^ ` | +.o.Y F F F F F F F F F , ",
"@ u ..~ ~ ) ) / ) ) ) ) ( ` ( ^ ` ~ ~ ~ ~ ~ ~ | $.+.W U F Z F F F F F F F F F 1 ",
"% 6 X.=.[ ) ~ ~ ~ ^ ) / ` ~ ~ ^ ~ ~ ` ]  .$.+.W Y H F F F F F F F F F F F F F A ",
"d 3 A Y W @.$...} | [ [ [ [ | } $.&.+.X.T U H F F F F F F F F F F F F F F F F F ",
"d . V Z F H U T W W W o.W W T T U J F F F F F F F F F F F F F F F F F F F F F F ",
"f X V Z F F Z Z Z Z Z Z Z Z F Z F F F F F F F F F F F F F F F F F F F F F F F F ",
"s & , Z F F F F F F F F F F F F F F F F F F F F F F F F F F F F F F F F F F F F ",
"d % 7 F F F F F F F F F F F F F F F F F F F F F F F F F F F F F F F F F F F F F ",
"a $ 5 Z F F F F F F F F F F F F F F F F F F F F F F F F F F F F F F F F F F F F ",
"s d w C F F F F F F F F F F F F F F F F F F F F F F F F F F F F Z F F F F F F A ",
"d d X V F F Z F F F F F F F F F F F F F F F F F F F F F F F F F F F F F F F F ; ",
"d k O 1 F F F F F F F F F F F F F F F F F F F F F F F F F F F F F F F F F F < . ",
"d d % > F F F F F F F F F F F F F F F F F F F F F F F F F F F F F F F F C 6 O d ",
"d d p 6 F F F F F F F F F F F F F F F F F F F F F F F F F F F F F Z Z 1 4 & s d ",
"d d d 4 Z F F F F F F F F F F F F F F F F F F F F F F F F F F F Z 2 6 o s s d d ",
"d d d w V F F F Z F F F F F F F F F F F F F F F F F F F F F Z 2 6 o p d d d d z ",
"d d d @ , Z Z F F F F F F F F F F F F F F F Z Z Z F F Z V > 4 + s d d d d v N B ",
"d d d d . , Z F F F F F F F F F Z Z F F F F Z Z Z 2 , 5 . & s d d s z v N M z d ",
"d d d d d O 4 9 V V Z F F F F F Z Z Z C V 9 , 6 3 X & d d d d d z N B v z d d d ",
"d d d d d d p & . 3 5 ; ; < < ; : - 4 e w X & s s d k d d d x N N x d d d d d d ",
"c d d d d d d k d d s p % p & p p s s d d d d d d d d k v B n z d d d d d d d d ",
"B z s d d d d d d d d d d d k d d d d d d d d s d z N N v k d d d d d d d s d d ",
"z N d d d d d d d d d d d d d d d d d d d d l c M N x d d d d d d d d d d d d d ",
"s v v d d d d d d d d d d d d d d d d d d v B N z d d d d d d d d d d d d d d d "
};
