/* XPM */
static char *a3fef4f195e943319776ea11b15db19aW6gsMbcZm0QmlIUX[] = {
/* columns rows colors chars-per-pixel */
"40 40 124 2 ",
"   c None",
".  c #150D0B",
"X  c #19110D",
"o  c #1F1310",
"O  c #221612",
"+  c #261914",
"@  c #2B1C17",
"#  c #2D1E19",
"$  c #321F1A",
"%  c #26211B",
"&  c #2E231A",
"*  c #34221B",
"=  c #39241D",
"-  c #352B1E",
";  c #3F2720",
":  c #362922",
">  c #3C2C22",
",  c #3D3323",
"<  c #3C3229",
"1  c #452C24",
"2  c #492D25",
"3  c #413625",
"4  c #4A3026",
"5  c #433927",
"6  c #41352B",
"7  c #4B352B",
"8  c #463B2A",
"9  c #483E2B",
"0  c #55362B",
"q  c #56392D",
"w  c #5B3B2F",
"e  c #473E32",
"r  c #4C3E32",
"t  c #503E32",
"y  c #5D3D31",
"u  c #623E33",
"i  c #4E412D",
"p  c #53422F",
"a  c #4D4234",
"s  c #4F4638",
"d  c #524532",
"f  c #5E4433",
"g  c #544834",
"h  c #5A4C35",
"j  c #534639",
"k  c #554B3C",
"l  c #5B4D3D",
"z  c #5D5036",
"x  c #5B523E",
"c  c #654235",
"v  c #694336",
"b  c #634C36",
"n  c #6E4639",
"m  c #654E39",
"M  c #6B4B3D",
"N  c #70483A",
"B  c #605137",
"V  c #65543B",
"C  c #6A543C",
"Z  c #6D5B3E",
"A  c #72573D",
"S  c #735C3E",
"D  c #5C5142",
"F  c #634F40",
"G  c #625645",
"H  c #6A5242",
"J  c #655944",
"K  c #6D5B45",
"L  c #665A4A",
"P  c #6A5E4B",
"I  c #735444",
"U  c #795645",
"Y  c #725E42",
"T  c #795940",
"R  c #735C4B",
"E  c #6D6046",
"W  c #6B614E",
"Q  c #746243",
"!  c #796643",
"~  c #7C6945",
"^  c #7A674D",
"/  c #7C6B4A",
"(  c #6E6250",
")  c #746351",
"_  c #786653",
"`  c #736A55",
"'  c #7C6B54",
"]  c #7E7052",
"[  c #7B7058",
"{  c #816D46",
"}  c #826D4B",
"|  c #87724A",
" . c #89754C",
".. c #806752",
"X. c #816B57",
"o. c #857655",
"O. c #8B7550",
"+. c #8E7A51",
"@. c #83755A",
"#. c #8A7B5D",
"$. c #927D55",
"%. c #917F5B",
"&. c #817761",
"*. c #857961",
"=. c #8B7A62",
"-. c #968155",
";. c #9D8557",
":. c #95825C",
">. c #998459",
",. c #9E885D",
"<. c #A38C5D",
"1. c #8D826A",
"2. c #92866D",
"3. c #978868",
"4. c #988B6D",
"5. c #9F9377",
"6. c #A18760",
"7. c #A28B60",
"8. c #A79061",
"9. c #AA9463",
"0. c #B29B67",
"q. c #B69E6A",
"w. c #A29576",
"e. c #AA9C7C",
/* pixels */
"                                                                                ",
"                      e.                              5.w.1.                    ",
"                    #.o.@.) P { Y 0 2 2 2 2 y ~ :.2.L =.@.4.                    ",
"                  <./ W _ _ =.%.c 0 0 q 0 0 q _ #._ ' F h o.3.                  ",
"                  <.Z 0 F _ / #.K v c v c u H R @.K c u w / ;.                  ",
"                  $.c n n v Q ' H I N n N U ' R } T n N v C -.                  ",
"                | ! y v v v S ! [ =.I v N ' @.H Y S v v c f {                   ",
"                { Y y u c v S b M P ..v I I H y Z A u v u f !                   ",
"                ~ V 0 w w w ! b y I 7.$.6.<.} q A A w w w 0 S {                 ",
"                 .V 0 0 0 w ~ b 7 c 8.q.q.0.A 7 S S 0 0 0 0 Q  .                ",
"                | w 1 1 2 0 ~ h 1 2 O.0.0.>.q 4 Z S 2 2 2 2 m |                 ",
"              / ! C m m m V ! V m m Y <.9.~ C z Q Q V m m m Z ! |               ",
"            $.$.$.$.-.-.+.-.-.-.$.$.<.9.9.9.-.-.+.-.$.-.$.$.$.$.$.$.            ",
"            ! Z Q Y Z ! Z E Q E ! Z +.,.>.>.E Q Z Q Z Y Q Z ! Z E !             ",
"            i 3 , , , , , , , , 8 , i ^ ] g , , , , 3 3 3 3 3 , 3 p             ",
"            8 8 5 i 5 i 8 i i , i , i k x a i i 8 i 5 8 8 8 9 3 9               ",
"              , - & & & & & - - % , a ! / V e & - : * & & * & - ,               ",
"                3 @ o o + + , & % j D Q Q J D < - , o o X o & i                 ",
"                p - O @ + + 8 , < < < h V , < 6 a , + + + + , i                 ",
"                z 3 @ @ $ @ p g k 5 & % @ @ : k x 8 @ @ @ & i z                 ",
"                Z i * * * > L j s * $ $ * * * 6 J G t * * * h Z                 ",
"                Z p * * 7 l G W > * = * = * * * J P j l ; * z                   ",
"                E p t G j L k 8 ; ; ; ; 1 ; ; ; d a D D k l V E                 ",
"              1.[ J j D L r 8 p * $ * * $ $ $ = h 1 : D W a W W                 ",
"            *.` ` J k e : o 3 i + O O + O + + & g & O @ < s W a `               ",
"                *.( % X . . : 8 X X . . . . . + 9 & . . . + x 1.                ",
"                                                                                ",
"                                                                                ",
"                                                                                ",
"                                                                                ",
"                                                                                ",
"                                                                                ",
"                                                                                ",
"                                                                                ",
"                                                                                ",
"                                                                                ",
"                                                                                ",
"                                                                                ",
"                                                                                ",
"                                                                                "
};
