/* XPM */
static char *result[] = {
/* columns rows colors chars-per-pixel */
"40 40 231 2 ",
"   c #0E3E09",
".  c #0F4408",
"X  c #1E4C03",
"o  c #13440B",
"O  c #144B0B",
"+  c #1F5D04",
"@  c #155009",
"#  c #1A550C",
"$  c #1D5B0C",
"%  c #0A4F13",
"&  c #125714",
"*  c #135D14",
"=  c #195D14",
"-  c #255404",
";  c #295503",
":  c #245B03",
">  c #2C5C04",
",  c #235E0E",
"<  c #325E04",
"1  c #225912",
"2  c #1E610C",
"3  c #176314",
"4  c #1C6514",
"5  c #176813",
"6  c #1D6B14",
"7  c #1E7213",
"8  c #246303",
"9  c #2C6104",
"0  c #2B6C04",
"q  c #22620C",
"w  c #2C6509",
"e  c #266C0C",
"r  c #2D6C0C",
"t  c #336404",
"y  c #356B04",
"u  c #3B6C04",
"i  c #31670A",
"p  c #336A0A",
"a  c #3D6C0B",
"s  c #2B7304",
"d  c #2D7609",
"f  c #3B7205",
"g  c #357C04",
"h  c #387905",
"j  c #3D7C04",
"k  c #34740B",
"l  c #3C7409",
"z  c #357E0C",
"x  c #226713",
"c  c #236D14",
"v  c #2B6D12",
"b  c #28671B",
"n  c #247314",
"m  c #2A7515",
"M  c #257914",
"N  c #2C7B15",
"B  c #327514",
"V  c #397717",
"C  c #327C15",
"Z  c #347A18",
"A  c #427605",
"S  c #457C05",
"D  c #487E04",
"F  c #43730B",
"G  c #447C0B",
"H  c #487A0B",
"J  c #497E16",
"K  c #417324",
"L  c #2E8803",
"P  c #3B8404",
"I  c #3A8706",
"U  c #3C830A",
"Y  c #35900F",
"T  c #2E8214",
"R  c #338315",
"E  c #3A8615",
"W  c #358A14",
"Q  c #3B8C15",
"!  c #378418",
"~  c #3D9214",
"^  c #448205",
"/  c #4B8405",
"(  c #458B04",
")  c #4C8904",
"_  c #4B820A",
"`  c #428F0E",
"'  c #4E8B09",
"]  c #528B05",
"[  c #54880D",
"{  c #459304",
"}  c #4A9403",
"|  c #4C9B05",
" . c #4C920A",
".. c #459808",
"X. c #569404",
"o. c #599505",
"O. c #559B03",
"+. c #5C9B04",
"@. c #549209",
"#. c #59940A",
"$. c #52990B",
"%. c #5B9A0A",
"&. c #428C15",
"*. c #438B1B",
"=. c #49881A",
"-. c #568817",
";. c #598619",
":. c #439315",
">. c #4A9513",
",. c #469914",
"<. c #4A9A15",
"1. c #449418",
"2. c #559916",
"3. c #629F04",
"4. c #619E0A",
"5. c #649417",
"6. c #65951C",
"7. c #4AA607",
"8. c #5FA403",
"9. c #58A707",
"0. c #56A20C",
"q. c #5CA30B",
"w. c #5DB406",
"e. c #4DA113",
"r. c #54A415",
"t. c #5BA814",
"y. c #5BA21B",
"u. c #64A304",
"i. c #69A705",
"p. c #63AC04",
"a. c #6CAD04",
"s. c #64A20A",
"d. c #69A60B",
"f. c #63AA0B",
"g. c #6DAB0B",
"h. c #72AC07",
"j. c #70AD0C",
"k. c #64B405",
"l. c #6BB204",
"z. c #63BB05",
"x. c #6EBC07",
"c. c #74B405",
"v. c #74BC05",
"b. c #7CBA05",
"n. c #75B30B",
"m. c #7BBA0D",
"M. c #6AA415",
"N. c #68A81A",
"B. c #71AC14",
"V. c #78AE1B",
"C. c #6AB71A",
"Z. c #73B012",
"A. c #7BB513",
"S. c #7FB912",
"D. c #7CB21A",
"F. c #508A2B",
"G. c #559628",
"H. c #6A9928",
"J. c #659F36",
"K. c #5CA028",
"L. c #68A929",
"P. c #78A724",
"I. c #6BB224",
"U. c #73B82C",
"Y. c #67A534",
"T. c #6EAB33",
"R. c #6EB136",
"E. c #7CBA37",
"W. c #74B239",
"Q. c #7AB73D",
"!. c #61C006",
"~. c #7AC604",
"^. c #7ED105",
"/. c #78C411",
"(. c #7CC52B",
"). c #7EC339",
"_. c #649942",
"`. c #78A943",
"'. c #7AB546",
"]. c #82BA15",
"[. c #87BD1C",
"{. c #83B725",
"}. c #85BA21",
"|. c #8ABE22",
" X c #82BE3B",
".X c #82C304",
"XX c #85CE04",
"oX c #86D205",
"OX c #8EC12B",
"+X c #89C62A",
"@X c #91C22D",
"#X c #85D42D",
"$X c #87C73A",
"%X c #98C736",
"&X c #93D83D",
"*X c #A1CE3B",
"=X c #84BE40",
"-X c #8CC543",
";X c #8FC847",
":X c #91C74C",
">X c #93CB4C",
",X c #9AD34B",
"<X c #99D648",
"1X c #8DC853",
"2X c #96CD51",
"3X c #97CE59",
"4X c #9CD257",
"5X c #A3CE40",
"6X c #AAD245",
"7X c #A3D757",
"8X c #A2E14E",
"9X c #ACE15F",
"0X c #B3E85F",
"qX c #A6D761",
"wX c #AADA64",
"eX c #ABDB6C",
"rX c #B1DF6A",
"tX c #B3DF72",
"yX c #B6E666",
"uX c #B3E26B",
"iX c #B5E274",
"pX c #B9E576",
"aX c #B7E579",
"sX c #B8E47B",
"dX c #C5EF7C",
"fX c #BBE682",
"gX c #C3EB84",
"hX c #C4EC8B",
"jX c #CCF287",
"kX c #C6ED90",
"lX c #CDF192",
/* pixels */
"W R Z = 6 N W Q 4 Z R n 6 c E c 6 M W R <.*.1.C R Q n 3 C Q W Q n ! ! C ~ ~ m ,.",
"c 4 n n N M m ! E C W M n N :.x n ! T n Z T Q ,.~ ~ W T :.&.n 1.W W 6 c <.e.N R ",
"= * N E ,.W n 4 c C ,.R % N 1.&.c :.R ~ C M W ~ M Q ~ <.Q M N Q 1.W n C m N 6 m ",
"x & c ! W m Z B n C E E 6 C *.n n E &.Q 1.,.W T R n ~ Q R T W R ,.:.N n n R ~ T ",
"C m N ,.! R m m R n m N ~ R Q N m Q x.f.C Q ,.Y ....` m 6 W :.N R :.x * N Y Q m ",
"R R <.R ,.n m Q <.:.N R Q &.q.0.0.v.oXoX9.7.w.w.k.p.O.z U z C 7 4 R m c N ~ M N ",
"T Q Q N :.= m R ~ <.q.f.9.b..Xv.v.k.k.z.^.!.z.9.| { } ( ( G R M 5 ! c m C R W M ",
"C Q >.! m n c &.E 0..X.Xl.p.9.| ..k..Xw.z.^.7.L d s 0 0 9 j ^ r 5 3 c x R R Q 5 ",
"Q <.N * c N 3 M Q f.b.l.8.} { | l.v.~.~.~.^.z.7.7.I j ^ f 9 y f v % N R v ~ ,.T ",
"~ 1.W 6 m C W :...c.c.8.{ { I k..Xc.v.XXXX^.z.z.x.k.p.8.O.9 > S V = 7 N N ~ :.~ ",
"&.E W T B Q ,.>.l.c.u.O.I g } l.a.k.l.~.x./.C.y.0.Z.9.8.O.f X > i k R E R W M 4 ",
"N Q ~ Q N n 6 Q l.8.( ( P 8.c.a.} ..7.0.N.$X7XuX7X7XN.| +./ 0 g I g P R R N M 6 ",
"c &.N N n N U $.i.+.( h s i.b.a.0.N.t.r.E.,XuXgXjXyX2.} X.) P } ( ( g 0 v 6 T T ",
"C Q ! ! $.a.a.d.s.X.( P &.n.c.i.q.(.)./.U.qXgXlXdX7XI.@.) ) P I P ^ ^ h r E <.~ ",
"N 6 W <.j.m.[.d.j.#.#.=.'.eX$X%.t.<X<X#X(.>XgXuX>X X XL.^ ^ j s s s h f w T N T ",
"~ n T <.n.A.}.f.s.@./ u G.eXlX XI.9X9X8X&X+X2X4X>XqX:XW.[ ) ] s 8 8 8 y w m T ,.",
"..r.&.:.n.[.B.i.+._ t u J 3XlXuXE.tXfXpX0X#X).4XwXsX1XR.*.^ ^ u 9 8 : y t ~ ~ ~ ",
"R Q m q.S.@XB.4.3.a < t v R.sXdX-X7XkXkXyX&XU.:XtXqX=XK.K k A A : 8 : 9 ; R R m ",
"n M :.n.].%XA.3.%.D ; > < =.3XlXrX>XiXhXyX<Xy.-XeX;XT.F.B u S u : + + t t , m n ",
"M n %.m.].}.B.4./ D > ; f ' Q.fXgX;X>XiXpX7XI.'.3XQ.Y.F.b > u u 8 + ; 9 t - v n ",
"b ! >.n.].%X[.g.@.u > - j X.2.3XpXuX$X2XrX,Xy.L.'.J.Y._.K - u < + : - - > ; E Q ",
"m N Q c.m.@X%XB.%.S - - S 8.( G.1XfXeX-X XI.U =.J.`.=Xa < ; t y : : : - > w ,.~ ",
"n n R a.n.|.5X[.h.u./ - A u.+./ 2.1XsXaX2XW.Y.`.F.F u < < < < H f > : - ; d ~ T ",
"c N ~ f.n.[.%X}.B.s.%.i u i.l.+.( K.3XsXpXaXpXH.A A u t u > < F ;.F X ; t C R M ",
"* ! ~ f.a.Z.OXOXn.s.' y 9 s.a.a.+. .G.T.Y.T.T.H A A u u A > t ;.6.u - t w C E R ",
"n n E j.c.S.OXB.g.+.+.X.i @.i.a.u.+.} ^ S D S D / H A D t ; F {.;.: 9 y &.:.Q Q ",
"n N M s.l.j.Z.V.D.j.i.u.A f u.g.i.i.u.+.} X.] ] ] H / D u F ;.J r 0 f z ,.0.<.W ",
"4 N N >.a.c.].*X6X|.s.' ^ y / s.d.i.u.3.+.+.X.@.] D ] 5.6.-.i > 0 ^ k ,.T Q :.N ",
"C 4 B :.q.n.A.[.@X{.s.%.3.] y ] o.4.3.3.3.#.X.] / D P.P.J 8 e s I h z e.W c 6 6 ",
"R 5 R R >.E %.g.{.{.P.D.i.3.l t / ] #.o.@.] ] H [ 6.6.J i V C g s + Q t.E n n Q ",
"N n x n T E u.A.D.V.|.{.M.#.@.) f f A H _ [ #.-.H.;.r v B *.Z q @ 6 M ~ ~ E C C ",
"C 4 4 N Q Q E %.s.M.V.V.6.V.D.5.G F A A _ l r k p V *.=.v m q O 2 M 7 N N W n m ",
"Q c 4 c ,.:.N N C Q >. .F p G V z B k w w v R E V V *.C v 2 O $ R r.e.Q ! :.n C ",
"E c c Z *.&.C c n C R N O . $ v V C C B m B r v $ 1 B v $ O q <.>.&.1.E E ,.N 7 ",
"C T ! *.Q 1.N 6 m E ~ ! 4 r $ # @ 1 $ $ 1 # o O o 1 v $ & x ! ~ ,.! C ! R E <.~ ",
"R :.m c ~ N m n 3 <.:.N R E E E V e $ . o o   o 2 m 2 E Q T Q ! N n n v N M W R ",
"R N C :.m 6 n Q Q &.n T T N 7 N C Q ! W N m N M 6 m M M W :.W C R 4 * n T c 6 n ",
"T N R <.1.6 4 C :.R ~ ~ C R n 6 M &.W W R R 4 M n N N ! W 1.T ! R 4 4 ! Q n E R ",
"T M R T n 7 6 R C m ~ ! m ! m n T :.Q N M M 6 T ! ! T N n M 5 7 T c N n n >.Q ! ",
"T E R R R N M T ! n b 4 N c 4 N n 6 R E c M T N m m 5 5 M Q W ~ ~ W C & 4 ! n E "
};
