/* XPM */
static char *result[] = {
/* columns rows colors chars-per-pixel */
"40 40 183 2 ",
"   c #879BAA",
".  c #869AA9",
"X  c #869AAB",
"o  c #859AAC",
"O  c #869AAC",
"+  c #869BAB",
"@  c #8A9DA7",
"#  c #9DA794",
"$  c #AFB382",
"%  c #B7B679",
"&  c #B3B07C",
"*  c #A3A98D",
"=  c #8F9FA2",
"-  c #A1A790",
";  c #D2BA5C",
":  c #F0C73C",
">  c #F9D834",
",  c #FAD831",
"<  c #FACA2D",
"1  c #F5CA34",
"2  c #DEC24C",
"3  c #AFAE7F",
"4  c #AFAD81",
"5  c #EDC23F",
"6  c #FBC12B",
"7  c #F4AD24",
"8  c #F09C1E",
"9  c #EF951D",
"0  c #EF961C",
"q  c #F3A820",
"w  c #FAC325",
"e  c #F7CC2F",
"r  c #C4B867",
"t  c #8C9EA4",
"y  c #879BAB",
"u  c #A5A88B",
"i  c #EFC13D",
"p  c #F9BA2A",
"a  c #EF911D",
"s  c #EF7918",
"d  c #F3761A",
"f  c #F4771B",
"g  c #F17919",
"h  c #EF891A",
"j  c #F6B622",
"k  c #F9CF2A",
"l  c #BDB56E",
"z  c #889BA9",
"x  c #8E9EA3",
"c  c #DBBA53",
"v  c #FBBD2B",
"b  c #F08F1D",
"n  c #F3771B",
"m  c #F7791E",
"M  c #F77A1E",
"N  c #F77B1E",
"B  c #F77C1E",
"V  c #F67B1D",
"C  c #F1861B",
"Z  c #F8BD22",
"A  c #EFCC35",
"S  c #9EA690",
"D  c #A8A888",
"F  c #F6C136",
"G  c #F4A624",
"H  c #F37B1B",
"J  c #F77D1E",
"K  c #F77E1E",
"L  c #F77F1E",
"P  c #F67E1D",
"I  c #F3991E",
"U  c #FCCF24",
"Y  c #C3B866",
"T  c #C1AF6E",
"R  c #FBC02D",
"E  c #F3911F",
"W  c #F7801E",
"Q  c #F7811E",
"!  c #F5891E",
"~  c #FBC521",
"^  c #DCC549",
"/  c #8C9DA5",
"(  c #CBB262",
")  c #F58C1F",
"_  c #F7821E",
"`  c #F7831E",
"'  c #F7831F",
"]  c #F7861F",
"[  c #FBBF21",
"{  c #E9CA3A",
"}  c #92A09D",
"|  c #CAB164",
" . c #FCBF2C",
".. c #F78F20",
"X. c #F7841F",
"o. c #F7851E",
"O. c #F78A1E",
"+. c #FBC122",
"@. c #EDCA33",
"#. c #979F97",
"$. c #BFAC6E",
"%. c #FBC22D",
"&. c #F89B23",
"*. c #F7821F",
"=. c #F7861E",
"-. c #F7871D",
";. c #F7881E",
":. c #F7931F",
">. c #FBCB22",
",. c #EAC335",
"<. c #949C9A",
"1. c #859BAC",
"2. c #ADA37F",
"3. c #F8C030",
"4. c #F9B328",
"5. c #F7891E",
"6. c #F7871E",
"7. c #F8AB21",
"8. c #FDD321",
"9. c #DAB445",
"0. c #8C9AA4",
"q. c #949B99",
"w. c #E6B23F",
"e. c #FCC42B",
"r. c #F8A623",
"t. c #F78B1E",
"y. c #F78B1D",
"u. c #F79E1F",
"i. c #FBCB23",
"p. c #F9CA22",
"a. c #BAA16A",
"s. c #BAA06C",
"d. c #F9BB2C",
"f. c #FCC52B",
"g. c #F9AD24",
"h. c #F7941F",
"j. c #F78D1D",
"k. c #F78C1D",
"l. c #F78D1E",
"z. c #F7931E",
"x. c #F8A720",
"c. c #FBC923",
"v. c #FCD022",
"b. c #E1AD3A",
"n. c #959A98",
"m. c #8E9AA1",
"M. c #CEA153",
"N. c #F9BB27",
"B. c #FCC92A",
"V. c #FBC328",
"C. c #FAB724",
"Z. c #F9B323",
"A. c #FABA22",
"S. c #FAC523",
"D. c #FBD025",
"F. c #FBCC21",
"G. c #EBAE2E",
"H. c #A89A80",
"J. c #919A9E",
"K. c #C69D5B",
"L. c #F0AE2B",
"P. c #FBBF24",
"I. c #FCC825",
"U. c #FCCE26",
"Y. c #FCD523",
"T. c #FCCD21",
"R. c #F7BA21",
"E. c #DFA33A",
"W. c #A79981",
"Q. c #8A9AA6",
"!. c #A59984",
"~. c #C89B57",
"^. c #DEA13D",
"/. c #E6A633",
"(. c #E3A636",
"). c #D59F47",
"_. c #B8996C",
"`. c #949999",
"'. c #869BAC",
"]. c #94999A",
"[. c #91999D",
"{. c #8B9AA5",
"}. c white",
/* pixels */
"                                                                              . ",
"                                                                              . ",
"                                                                              . ",
"                                                                              . ",
"                                                                              . ",
"                                                                              . ",
"                                                                              . ",
"                                                                              . ",
"                                                                              . ",
"                                                                              . ",
"                                    X o o o O +                               . ",
"                                + @ # $ % & * = +                             . ",
"                                - ; : > , < 1 2 3 @ +                         . ",
"                              4 5 6 7 8 9 0 q w e r t y                       . ",
"                          + u i p a s d f f g h j k l z                       . ",
"                          x c v b n m M N N B V C Z A S X                     . ",
"                        O D F G H N B J J K L L P I U Y                       . ",
"                        + T R E B K L L W W Q Q Q ! ~ ^ /                     . ",
"                          ( v ) L W Q Q _ _ ` ' ' ] [ { } +                   . ",
"                          |  ...Q _ ` ' ' X.X.o.o.O.+.@.#.+                   . ",
"                        + $.%.&.*.X.X.o.=.=.-.;.;.:.>.,.<.+                   . ",
"                        1.2.3.4.5.=.6.;.;.5.5.O.O.7.8.9.0.                    . ",
"                        + q.w.e.r.O.5.O.O.t.t.y.u.i.p.a.X                     . ",
"                            s.d.f.g.h.j.k.l.z.x.c.v.b.n.+                     . ",
"                          + m.M.N.B.V.C.Z.A.S.D.F.G.H.+                       . ",
"                            + J.K.L.P.I.U.Y.T.R.E.W.                          . ",
"                              + Q.!.~.^./.(.)._.`.+                           . ",
"                                  '.z m.].[.{.+ +                             . ",
"                                      y + +                                   . ",
"                                                                              . ",
"                                                                              . ",
"                                                                              . ",
"                                                                                ",
"                                                                                ",
"                                                                                ",
"                                                                                ",
"                                                                                ",
"                                                                                ",
"                                                                                ",
"                                                                                "
};
