/* XPM */
static char *_456_7899956a607b6a3f0d4d71024d6cdad64e94eec0fa053f8ebdf272856714c572[] = {
/* columns rows colors chars-per-pixel */
"40 40 128 2 ",
"   c #E77411",
".  c #EA7513",
"X  c #E77812",
"o  c #EA7A14",
"O  c #EF7718",
"+  c #EF7C18",
"@  c #F67C1D",
"#  c #EA8216",
"$  c #EA8917",
"%  c #EB8C19",
"&  c #F7831E",
"*  c #F78B1E",
"=  c #EE941C",
"-  c #EE9B1E",
";  c #F7941F",
":  c #F69B1D",
">  c #F89E1F",
",  c #EFA21E",
"<  c #F4A41E",
"1  c #F5AB1D",
"2  c #F5B21E",
"3  c #F78E20",
"4  c #EE942A",
"5  c #ED9B2A",
"6  c #F49522",
"7  c #F39A23",
"8  c #F89920",
"9  c #E69436",
"0  c #E89434",
"q  c #E69C35",
"w  c #E3943A",
"e  c #EEA42D",
"r  c #F0A421",
"t  c #F8A222",
"y  c #F4AC22",
"u  c #F8AC22",
"i  c #F5B324",
"p  c #F9B424",
"a  c #F5BA23",
"s  c #FABB25",
"d  c #F9B228",
"f  c #F6BA2B",
"g  c #FAB829",
"h  c #E2AE3A",
"j  c #E8A838",
"k  c #EBBC33",
"l  c #F5BF36",
"z  c #F9C31F",
"x  c #FACA1F",
"c  c #FCD01F",
"v  c #F7C321",
"b  c #FAC424",
"n  c #FACC24",
"m  c #F7C22C",
"M  c #FBC42E",
"N  c #FCCB2B",
"B  c #FCD425",
"V  c #FDDB26",
"C  c #F4D02F",
"Z  c #FBD12A",
"A  c #EBC435",
"S  c #E6C53D",
"D  c #EECD3C",
"F  c #F7C035",
"G  c #FBC230",
"H  c #F5CF33",
"J  c #FACA32",
"K  c #F3CF3C",
"L  c #F6D032",
"P  c #FBD431",
"I  c #FADC33",
"U  c #F2D63E",
"Y  c #FBE335",
"T  c #BF9767",
"R  c #BB976C",
"E  c #AE997C",
"W  c #BFB66F",
"Q  c #B4B37D",
"!  c #BCB978",
"~  c #DC9543",
"^  c #CF9655",
"/  c #C9975B",
"(  c #C59A5E",
")  c #CA9A59",
"_  c #D7A348",
"`  c #DBAE4E",
"'  c #D2B95E",
"]  c #E7B743",
"[  c #E7BE47",
"{  c #C19765",
"}  c #C7A461",
"|  c #C7BA64",
" . c #C4BA6B",
".. c #C8B96B",
"X. c #C2BE72",
"o. c #DDC449",
"O. c #D4C155",
"+. c #D4C35F",
"@. c #D9C259",
"#. c #D8CC5C",
"$. c #ECC343",
"%. c #E6C943",
"&. c #EBCB44",
"*. c #E4C649",
"=. c #E5C94D",
"-. c #EEDA46",
";. c #E6D54E",
":. c #E0C851",
">. c #CEC162",
",. c #979B97",
"<. c #999A96",
"1. c #949B9C",
"2. c #989A98",
"3. c #A99983",
"4. c #A2998B",
"5. c #9CA697",
"6. c #96A49D",
"7. c #99A499",
"8. c #AAA787",
"9. c #ADAB84",
"0. c #A2A48F",
"q. c #A6AB8C",
"w. c #A0A791",
"e. c #A2AB91",
"r. c #8D9CA5",
"t. c #879AAB",
"y. c #889BAA",
"u. c #91A0A2",
/* pixels */
"y.y.y.y.y.y.y.y.y.y.y.y.y.y.t.t.y.u.7.e.e.e.6.u.y.t.t.y.y.y.y.y.y.y.y.y.y.y.y.y.",
"y.y.y.y.y.y.y.y.y.y.y.y.y.u.e.>.#.;.-.-.U &.&.:.>.9.5.y.t.y.y.y.y.y.y.y.y.y.y.y.",
"y.y.y.y.y.y.y.y.y.y.y.6.! :.L P P Y Y Y N N N N Z P K >.q.y.t.y.y.y.y.y.y.y.y.y.",
"y.y.y.y.y.y.y.y.y.u.9.=.J J G G G Y Y Y P G N N J N N N L >.5.t.y.y.y.t.t.y.y.y.",
"y.y.y.y.y.y.y.t.5.+.J G G M M M P Y I I P L M N N N N N N Z D 9.t.t.t.y.t.t.t.t.",
"y.y.y.y.y.y.t.e.=.G G G M M J f i 7 % # $ % = r f N N N N Z N P  .r.t.y.t.t.r.t.",
"y.y.y.y.t.t.e.&.M G G M J f *           .       X $ y n B N Z N N  .r.t.r.y.r.t.",
"y.t.y.t.t.5.*.G G m J M - X . O O @ O @ @ @ @ O o X . $ i B N B B Z W t.y.y.t.t.",
"y.y.y.t.r.@.G l M G m % . O O @ @ @ @ @ @ @ @ @ @ @ @ . o < Z B N B H 9.y.y.t.t.",
"y.y.y.y.X.G G G G g # . O @ @ @ @ @ @ @ @ @ @ @ @ @ @ @ + X , Z B N B %.6.y.t.t.",
"y.y.t.5.$.G G G m # . @ @ @ @ @ @ @ @ @ @ @ @ @ @ @ @ @ @ + o y Z B Z n  .r.y.t.",
"y.t.y...G f G J -   @ @ @ @ @ @ @ @ @ @ @ @ @ @ @ @ @ @ @ & @ o a B B B D 5.y.t.",
"y.t.7.[ g G M i X @ @ @ @ @ @ @ @ @ @ @ @ @ @ @ & @ @ @ 3 @ @ @ = B B B B W t.t.",
"y.t.Q G G G M = O @ @ @ @ @ @ @ @ @ @ @ @ 3 @ @ @ @ & & @ @ @ & # 2 B B B o.u.t.",
"y.y.' M l G g o @ @ @ @ @ @ @ @ @ @ @ @ @ @ @ 3 & @ & @ & & & & @ - B B B C w.y.",
"t.u.[ G G G r @ @ @ @ & @ & @ & @ @ @ @ & @ @ @ & & & @ & @ & & & * b B B B Q y.",
"t.w.l l G M = @ @ & @ & @ @ @ @ @ @ @ @ @ & & & & & & & & @ & & & & a B B V | t.",
"t.q.F G G M % @ @ @ & @ & & & & @ 3 @ 3 & & & @ & & & & & & & & & & p B B c O.y.",
"t.8.G G G m * @ & @ @ & & & @ & 3 @ @ 3 @ & @ 3 & & & & 3 & & & & & i B B c o.u.",
"t.9.f G G m & & @ 3 & & @ & & & @ @ 3 @ @ 3 @ @ & & & & & & & & * & u B B V S 1.",
"t.8.l l G M * & @ & & & @ & & & @ 3 @ @ 3 @ @ 3 & * & * & & & * & * y B B B A ,.",
"t.0.F g G N 3 & & & & & @ 3 & & 3 @ 3 @ @ 3 @ 3 & & & & & * & * * * a B B c k ,.",
"t.7.] M G J 8 @ @ 3 & & 3 & & & @ 3 @ 3 3 3 @ @ * & & * * & * & * * n B V c k ,.",
"y.1.] G G G d @ 3 & & & & & * & 3 @ 3 @ 3 @ 3 3 * * * & * 3 * * * : B B V c h 1.",
"y.r.` G G G M * & * & * & & * & & * & * & * * * * * * * * 3 * 3 * y B B B c _ y.",
"y.t.} G G M N u & & * & & * & * * & * & * * & * & * * * 3 & * & ; n B B B z ( t.",
"y.t.E f G M G M ; & & & * & * & * * & 3 * * * * * * * * * * * * 2 B B B c 2 E t.",
"y.t.2.j M G G N d * & 3 * * * * * * 3 * * * * * * * * * * * * > x V B V c q 1.t.",
"y.y.y.) g M M M N u 3 3 * * * * * * * * * * * * * * * ; ; * ; b B B B c 2 / t.t.",
"y.y.y.4.e M G N G N t 3 * * * * * * * * * * ; * ; * * * * > b B B B B x 5 4.t.t.",
"y.y.y.y.) u M M M N N p ; * * * * * * * * * * * * ; * * < b B B B B x < / r.y.t.",
"y.y.y.t.2.q d N M N M N s < * ; * * * ; ; * ; ; * * > 2 n B B B B n 1 9 <.y.y.t.",
"y.y.y.y.y.E 7 d J N N M N N s u : 3 ; * * 3 3 ; t p n B B Z B B n 2 6 E t.y.y.t.",
"y.y.y.y.y.y.{ 7 p M M N N N N N N b s p p s b n B B N B B B B n 1 7 R y.y.y.y.y.",
"y.y.y.y.y.y.r.{ 6 u m N N N N N N Z Z Z B V V V B B B B B B z < 6 T r.y.y.y.y.y.",
"y.y.y.y.y.y.y.y.R 4 < p b N N N N n N N N B V V B N B B v 2 : 4 R y.y.y.y.y.y.y.",
"y.y.y.y.y.y.y.y.t.3.w : t i b M N n N Z N B V V V B v 2 < ; ~ 3.y.y.y.y.y.y.y.y.",
"y.y.y.y.y.y.y.y.t.t.1.T 0 ; : < 2 p v v n n n v 2 < : 6 0 { 1.t.y.y.y.y.y.y.y.y.",
"y.y.y.y.y.t.y.y.t.y.t.y.<.R ~ 4 6 ; : : : : : ; ; 4 ~ R 2.t.t.y.y.y.y.y.y.y.y.y.",
"y.t.y.y.y.y.y.y.y.y.y.y.t.y.r.4.R ^ ~ 9 9 9 ~ ^ R 4.r.y.y.y.y.y.y.y.y.y.y.y.y.y."
};
