/* XPM */
static char *_de5162b352c452efada43193cec4cd95jG0r6InDMSbUtgS[] = {
/* columns rows colors chars-per-pixel */
"40 40 194 2 ",
"   c #B6611F",
".  c #BB691F",
"X  c #AF6229",
"o  c #B26626",
"O  c #B56B26",
"+  c #BA6B22",
"@  c #B26529",
"#  c #B66B29",
"$  c #B96D2A",
"%  c #BA7123",
"&  c #BE7823",
"*  c #BE712D",
"=  c #B66B30",
"-  c #BB6B30",
";  c #BE7131",
":  c #C0771C",
">  c #C47E1A",
",  c #C17A27",
"<  c #C0732E",
"1  c #C27B2A",
"2  c #C07330",
"3  c #D28D0C",
"4  c #DD9B05",
"5  c #D8960D",
"6  c #D5920B",
"7  c #C78116",
"8  c #C7851B",
"9  c #C8851B",
"0  c #CC8B1C",
"q  c #CB8514",
"w  c #D18E15",
"e  c #DA9A16",
"r  c #D6971A",
"t  c #D49514",
"y  c #E09B00",
"u  c #DFA011",
"i  c #D8A31C",
"p  c #E2A302",
"a  c #E6AC02",
"s  c #E8AE02",
"d  c #E4A70F",
"f  c #E6AC0D",
"g  c #E9AE0D",
"h  c #E7B102",
"j  c #E9B304",
"k  c #ECB906",
"l  c #E7B208",
"z  c #E9B50B",
"x  c #ECBA0C",
"c  c #F6BE03",
"v  c #F4BD09",
"b  c #E0A611",
"n  c #E3A91A",
"m  c #EFBE10",
"M  c #EBBB1C",
"N  c #EAB416",
"B  c #CC8623",
"V  c #C68924",
"C  c #CC9221",
"Z  c #D19223",
"A  c #D29C22",
"S  c #DDAF20",
"D  c #D5A222",
"F  c #E3AD22",
"G  c #E7B427",
"H  c #ECBD21",
"J  c #EBBE2B",
"K  c #EABD3A",
"L  c #EFC40F",
"P  c #F7C203",
"I  c #F9C505",
"U  c #FCCB00",
"Y  c #F5C20B",
"T  c #F9C60B",
"R  c #FBCC0C",
"E  c #FDD302",
"W  c #FCD30D",
"Q  c #FCDC0C",
"!  c #EEC213",
"~  c #EFC41C",
"^  c #F2C515",
"/  c #F5CA15",
"(  c #F9CD14",
")  c #F2C51D",
"_  c #F5CA1C",
"`  c #F9CE1A",
"'  c #EFDC1B",
"]  c #F6D215",
"[  c #FAD115",
"{  c #FCDC15",
"}  c #F6D71D",
"|  c #FBD31B",
" . c #F6D91C",
".. c #FDDC1B",
"X. c #FEED01",
"o. c #FDE106",
"O. c #F5E11C",
"+. c #FDE31C",
"@. c #FDEA1A",
"#. c #FDF019",
"$. c #EDC221",
"%. c #F3C321",
"&. c #F1CA22",
"*. c #F5C628",
"=. c #FBD521",
"-. c #F6D52A",
";. c #FBD528",
":. c #FADC28",
">. c #F1C932",
",. c #F2D732",
"<. c #FAD737",
"1. c #FBE128",
"2. c #FEEC38",
"3. c #E6B642",
"4. c #E7BB4E",
"5. c #E6BA59",
"6. c #ECC64A",
"7. c #EECA4A",
"8. c #FBDB45",
"9. c #EDCB59",
"0. c #FADC56",
"q. c #F9DE5A",
"w. c #F5D25D",
"e. c #FAEA41",
"r. c #FAF14E",
"t. c #FAE958",
"y. c #FAE455",
"u. c #ECCB61",
"i. c #F8DC62",
"p. c #F4D366",
"a. c #EBC876",
"s. c #FAE560",
"d. c #F9E16B",
"f. c #F6E17E",
"g. c #D7AD85",
"h. c #D7AD88",
"j. c #D8AF8B",
"k. c #D2A589",
"l. c #D9B18C",
"z. c #D7B29A",
"x. c #DFBFA1",
"c. c #D8B9A8",
"v. c #ECCE87",
"b. c #EFD587",
"n. c #F0DA8F",
"m. c #F0DB93",
"M. c #F1DD9C",
"N. c #F7E28A",
"B. c #F9E481",
"V. c #F8E591",
"C. c #F8EA92",
"Z. c #DFC1A6",
"A. c #DFC8BD",
"S. c #E1C4AA",
"D. c #F1DFA3",
"F. c #EFDDB5",
"G. c #F8E8A0",
"H. c #F2E2AB",
"J. c #F7EAA8",
"K. c #F1E0A5",
"L. c #F3E4B4",
"P. c #F2E5BC",
"I. c #F5EABC",
"U. c #F9F0BD",
"Y. c #F3E7C2",
"T. c #F3E9C6",
"R. c #F8EEC7",
"E. c #F3EACC",
"W. c #F3ECD3",
"Q. c #F3EFDF",
"!. c #F7F1D7",
"~. c #F6F0DB",
"^. c #F5EFE0",
"/. c #F5F2E6",
"(. c #F3F1EC",
"). c #F5F5F3",
"_. c #F5F5F2",
"`. c #F5F4F1",
"'. c #F5F5F4",
"]. c gray96",
"[. c #F4F4F4",
"{. c #F5F5F7",
"}. c #F5F5F4",
"|. c #F5F6FB",
" X c #F5F5F8",
".X c #F5F7FF",
"XX c #F5F5FE",
"oX c #F5F6FC",
"OX c #F5F8FF",
"+X c #F5FAFF",
"@X c #F6F9FF",
"#X c #F9FEFF",
"$X c #F9FFFF",
"%X c #F9FDFF",
/* pixels */
"].].].].].].].].].].].].].].{.{.{.].].].].].].].].].[.].].].].].].].].].].].].].",
"].].].].].].].].].].].].].].{.[.`.].].].].].].].].].{.[.].].].].].].].].].].].].",
"].].].].].]._._._.].].].].[.].[.[.[.`.`.`.[.[.[.].[.[.[.].`.].]._.].].].].].].].",
"].].].]._.XXXXXXXX X`.`._._._._.[. XXXoXXX[.`.[.[.`.[.`.`.XXXXXXXX|.].].].].(.[.",
"].].]._.|.!.s.t.q.R.%X%X%X%X%X%X%XW.f.f.N.`.%X%X%X%X%X%X%XU.0.0.i.^.XX].{.(.{.].",
"].].].].XXy.X.#.E 4.A.S.Z.Z.Z.x.c.7.E ( U 5.z.j.j.h.g.h.k.K E ( U w.XX`.(.`.].].",
"].].].|.!.=.+.=.( > o + + + + . o N =.=.[ 3 o : . . : + o Z =.=.| _ ^.|.[.{.].].",
"].]._.+XG.Q =.| v O # * $ * * $ # H ..| [ e # $ $ $ $ $ $ 1 [ | | P L.XX`.{.].].",
"].]._.OXq.W =.( g o # O $ $ O $ # ) | =.R u @ $ $ $ $ # $ # H | =.I p.@X`.`.].].",
"].].oX~.;.[ | T e o < < 2 2 * * < _ | | ( d o * < < < < < $ F { | ( %.`.].].].].",
"[._.oXJ.W =.` c 9 @ # $ $ $ * $ 1 ` | | T g O $ $ $ < $ $ @ Z ..| | c I.@X`.].].",
"[._.OXi.R ` Y v % o o o # o o X + v c v T z O O @ o o o $ @ 1 [ ` | c p.@X`.].].",
"[.XX/.) c v P z O O % $ O % O V $.1.2.1.{ { } i o % O % + O % N T m c *./.].|.].",
"XXC.@.@.@.+.@.@. .O.O. .O. .) ..2.,.r.e.L L ] +.) _ _ _ ) _ _ ` [ | | | ;.8./.|.",
"+Xd.o.+.+.+.+. .O.+...+.+...| ..! z -._ &.f ! ......| | | | | | [ | | | [ [ !.XX",
"OXV.W =.| | / ` [ ` ` / _ / / | } ! -._ :.z ] } m m m m x x x x z x z z z H (.].",
"OXI.k k v z x x L k k k k k j Y { z &.&.&.j [ ] j k x k k k k k z k l z a 6.XX].",
"_._.P.G p a a w 8 8 8 9 9 9 9 9  .{ O.1.{ { @.i 8 9 8 8 8 8 8 8 u a a a b./.].{.",
"[._.%Xa.y p a 8 X X o o X @ o X & B C C A A A # @ @ @ # @ @ @ O p a p n oXoX{.{.",
"]._.+XK.a g s 6 o * * * * * < < # @ o o X X o O < < < < < < 2 B z x p 4.+X`.{.`.",
"]._.+XW.z k j 4 O $ O $ $ $ # $ $ $ $ $ O % $ $ $ O $ $ $ $ @ 0 k z p v.+X`.[.[.",
"].].].`.J h l p % # O $ # # $ # $ O $ $ $ $ $ $ $ $ # # $ $ # e k z p P.XX{.{.[.",
"{.{.`.+X9.h z a : $ < * < < < < < * * * * 2 * 2 * < < < < * $ b x h n /.|._.[. X",
"`.{.`.+Xn.s N s 7 = * * $ < $ < * * $ $ $ * $ $ $ $ * $ $ * * g x p 3.+X_.].(._.",
"{.{._.XXY.h z h w @ O O O O o # # o o # O O O # O O # O * # & z z p a.%X`.(._.{.",
"{.`._.|./.M k x 5 # < $ $ < < $ * * * * * * * * < < ; 2 * - B k l p F.%X(.[.{.`.",
"{.].].`.XX6.s l 4 o $ $ < < $ < $ * * * * * * * < < < 2 1 ; r k x d W.+X[.[.[.{.",
"{.`._.XX!.-./ ` / H H H H H H %.~ $._ %.%._ _ _ _ _ _ ` &.` | | | | <.(. X[.|.{.",
"].].[.oXY.R ( ` | [ [ [ [ ( ` ( ` / / / / / / / ^ / ^ / / ^ ^ ^ ^ v >.].].].].].",
"].].[.[./.J k z l l l s l h h s h h h h s s h s s s s s s s s s s a u.+X`.].].].",
"].].].]. X^.W.W.W.E.E.E.T.T.Y.I.P.P.L.L.L.H.H.H.K.K.D.M.M.M.m.m.n.m.Q. X`.{.].].",
"].].|.[.[. XoXoXXX+XXX+XXX+X@X@X@X@X+X+X+XXX+X+X+X+X+XXX+X+X+X+X@X@X|.].].].].].",
"].].].].].].].]._.(.].]._._.]._._.`.`.`.`.[.`.`.{.`.`.`._.(.[.`.`.`.`.{.].].].].",
"].].].].[.[.].[.[.[.].[.].].].].].].].].{.{.].].{.`.{.[.(.`.[.{.{.{.{.{.].].].].",
"].].].].[.[._.[.[.[.[. X].].].].].].].].{.].].].[. X[.(.{.].].].{.{.{.`.].].].].",
"].].].].[.[.[.[.[.[.[.[.].].].].].].].].`.].].].{.[.[.[.].].].].{.`.{.{.].].].].",
"].].].].].].].].].].].].].].].].].].].].].].].].{.{.`.{.{.{.].].`.{.`.{.{.`.].].",
"].].].].].].].].].].].|.].].].].].].].].].].].].`.{.{.{.].`.].].{.{.{.{.{.{.].].",
"].].].].].].].].].].[.[._.[.].].].].].].].].].].{.`.{.`.].].].].`.(.{.{.{.{.{.].",
"].].].].].].].].].].[.[.[._.].].].].].].].].].].{.{.{.{.].].].].`.{.{.{.`.{.`.{."
};
