/* XPM */
static char *ddcf46eedb314e70bbab6341f569c970HUGSA76VcaHG242l[] = {
/* columns rows colors chars-per-pixel */
"40 40 126 2 ",
"   c #030305",
".  c #191B1E",
"X  c #25272A",
"o  c #242629",
"O  c #16181A",
"+  c #020204",
"@  c #323439",
"#  c #A5AFBB",
"$  c #B9C4D1",
"%  c #B8C3D0",
"&  c #9BA5B0",
"*  c #232428",
"=  c #70767F",
"-  c #D5E1F2",
";  c #D5E1F1",
":  c #D2DDED",
">  c #575B62",
",  c #7C838D",
"<  c #D3E0EF",
"1  c #D3E0F0",
"2  c #D3DFEF",
"3  c #D2DFEE",
"4  c #626870",
"5  c #7B838C",
"6  c #D2DEEE",
"7  c #626970",
"8  c #7B838D",
"9  c #D3DFF0",
"0  c #D4E0F0",
"q  c #D4E0F1",
"w  c #D2DEEF",
"e  c #D4E1F1",
"r  c #CBD7E6",
"t  c #C8D4E2",
"y  c #C9D4E3",
"u  c #D1DDEC",
"i  c #C9D5E3",
"p  c #ADB6BF",
"a  c #A9B1BA",
"s  c #BBC6D2",
"d  c #7C838C",
"f  c #D0DCEC",
"g  c #B3BDC7",
"h  c #A6AEB6",
"j  c #A6AFB6",
"k  c #C5D0DD",
"l  c #BCC7D3",
"z  c #A7AFB7",
"x  c #A6AFB7",
"c  c #AEB7C0",
"v  c #CCD8E7",
"b  c #C6D2E0",
"n  c #AAB2BB",
"m  c #A6AEB7",
"M  c #B7C1CC",
"N  c #D1DEEE",
"B  c #CEDAE9",
"V  c #B0B9C3",
"C  c #A8B0B9",
"Z  c #C1CCD9",
"A  c #CDD9E8",
"S  c #C2CEDB",
"D  c #C2CDDA",
"F  c #C2CDDB",
"G  c #C2CEDA",
"H  c #C7D2E0",
"J  c #D1DDED",
"K  c #CFDBEB",
"L  c #CFDCEB",
"P  c #D0DCEB",
"I  c #B4BEC9",
"U  c #AFB8C1",
"Y  c #AFB8C2",
"T  c #AFB9C2",
"R  c #C3CEDB",
"E  c #D2DFEF",
"W  c #BAC4CF",
"Q  c #A6AEB5",
"!  c #ACB5BE",
"~  c #CBD6E5",
"^  c #A8B1B9",
"/  c #A7AFB6",
"(  c #AEB6C0",
")  c #BEC8D5",
"_  c #B5BEC9",
"`  c #A5ADB5",
"'  c #A9B2BB",
"]  c #CCD7E6",
"[  c #B9C3CE",
"{  c #B8C2CD",
"}  c #B8C1CC",
"|  c #D4E0EF",
" . c #D1DEED",
".. c #C0CCD8",
"X. c #BBC5D1",
"o. c #A8B0B8",
"O. c #B3BCC6",
"+. c #CAD6E5",
"@. c #ADB5BF",
"#. c #BCC6D2",
"$. c #B4BEC8",
"%. c #C6D1DF",
"&. c #BEC9D5",
"*. c #CDD9E9",
"=. c #B2BBC6",
"-. c #AEB7C1",
";. c #AFB7C1",
":. c #BFCAD7",
">. c #636970",
",. c #7B828C",
"<. c #636870",
"1. c #D7E3F4",
"2. c #D7E4F4",
"3. c #CFDAEA",
"4. c #4D5057",
"5. c #1D1E22",
"6. c #7D848E",
"7. c #969FAA",
"8. c #959EA8",
"9. c #747A83",
"0. c #141518",
"q. c #010103",
"w. c #050507",
"e. c #08090B",
"r. c #040406",
"t. c white",
/* pixels */
"  . X o o o o o o o o o o o o o o o o o o o o o o o o o o o o o o o o o o X O + ",
"@ # $ % % % % % % % % % % % % % % % % % % % % % % % % % % % % % % % % % % $ & * ",
"= - - - - - - - ; - - ; - - - - - ; - - - - - - - - - - - - - - - - - - - - : > ",
", ; < < < < < < < < < < < < < < < < < 1 < < < < < < < < < < < < < 2 < < 1 < 3 4 ",
"5 ; < 2 2 < 2 2 < < 2 < < < < 2 < 2 < < < < < < < < < < < < < < < 2 < < 2 < 6 7 ",
"8 ; 9 1 1 9 9 0 0 0 0 q q 0 0 0 0 q q q 0 q q q 0 q q q 0 0 q 0 0 9 9 9 9 1 w 7 ",
"8 e 1 1 1 1 9 r t t t t t t t t t t t t t t t t t t t t t t t y u 0 1 1 1 1 3 7 ",
", e < < < 0 i p a a a a a a a a a a a a a a a a a a a a a a a a s 2 1 1 1 1 6 7 ",
"d e 1 1 0 f g h h h h h h j h h h h h j j j j h h h h h h h h h a k 0 1 1 1 3 7 ",
"8 e 1 1 < l z x x z z z z z x x x x x x z x x z x x x x x x x z h c v 0 1 1 3 7 ",
"8 e 1 0 b n h j h j j j j x j h j x x m x j m m x j m j j x x j j h M N 1 1 3 7 ",
"5 e 1 B V h z z z z z z z z z z z z z z z z z z z z z z z z z z z z C Z 1 < 6 7 ",
"d e 1 A S D F D S S S F F G G D F S D F F D D F D D G S S F S D D D D H 2 < 3 7 ",
", ; 1 0 q q q q q q q q q q q q q q q q q q q q q q q q q q q q q q q 0 1 1 3 7 ",
", e 9 1 9 1 9 1 9 1 9 1 9 9 9 9 9 1 1 9 9 1 1 9 9 1 9 9 9 1 1 9 9 9 9 9 1 1 6 7 ",
"8 e < < < < 1 1 1 1 1 1 1 1 1 1 1 1 1 1 1 1 1 1 1 1 1 1 1 1 1 1 1 < < 1 < 1 3 7 ",
", e < < < < 1 J K L L L K L K L K L L L L K K L L K L L L K L P 2 < 2 < < < 6 7 ",
", ; 1 1 1 1 B I U Y Y Y Y Y Y Y Y Y Y Y Y Y Y Y Y Y Y Y Y Y Y T R 1 1 1 1 1 E 7 ",
", ; 1 1 1 E W h h h h h h h h h h h h h h h h h h h h h h h h Q ! ~ 0 1 1 1 3 7 ",
"8 ; < < 0 R ^ h x x z j x z x x z z x / z x x z x x j x / x x x h g f 0 2 < 6 7 ",
"8 e 1 0 v ( h / j j j / / j j j / / / j / / j j j / / / / j j / j z ) 9 1 1 6 7 ",
", e 1 u _ ` h h h h h h h h h h h h h h h h h h h h h h h h h h h ` ' b 0 1 6 7 ",
", ; 0 ] [ { { { { { { { { { { { { { { { { { { { { { { { { { { { { { } Z 2 1 3 7 ",
"8 e 1 2 < < < < < < < < < < < < < < < 2 < 2 < < < < < < < < < < < < < 2 < 1 3 7 ",
"d ; < < < < < < < < < < < < < < < < < < < < < < < < < < | < < < < | < < < < 3 7 ",
", e 1 1 1 1 1 1 1 1 1 1 1 1 1 1 1 1 1 1 1 1 1 1 1 1 1 1 1 1 1 1 1 1 1 1 1 1 3 7 ",
", e 1 1 1 1 1 1 1 1 1 1 1 1 1 1 1 1 1 1 1 1 1 1 1 1 1 1 1 1 1 1 1 1 1 1 1 1 3 7 ",
", e < < < 1  ...X.s s s s s s s s s s s s s s s s s s s s s s s r 1 2 2 < < 6 7 ",
", ; 1 1 1 0 D o.Q h h h h h h h h h h Q h h h h h h h h h h h Q O.P 0 1 1 1 6 7 ",
"8 e 1 1 0 +.@.h z z x x z z z z x x z z z z z z x / x z z x z z z #.2 1 1 1 E 7 ",
", e 1 1 J $.h j x / / j / / j j x j j j j j x / j j j j j j j j h a %.0 1 1 3 7 ",
", e 1 2 &.z h h h h h h h h h h h h h h h h h h h h h h h h h h h ` Y *.1 1 3 7 ",
", ; 0 v =.-.;.;.;.;.;.;.;.;.;.;.;.;.;.;.;.;.;.;.;.;.;.;.;.;.;.;.;.;.-.:.2 | 3 7 ",
", e 1 6 K K K K K K K K K K K K K K K K K K K K K K K K K K K K K K K P 2 < 6 7 ",
", e 1 1 1 1 1 1 1 1 1 1 1 1 1 1 1 1 1 0 1 0 1 1 1 1 1 1 1 1 1 1 1 1 1 1 1 1 E 7 ",
", e < < < < < < < < < 2 2 2 < 1 < < 9 2 1 < < 2 < < 2 < < < < 1 2 < < < < 1 6 >.",
",.e 2 2 2 2 2 < 2 2 2 2 2 < 2 < < 2 2 < 2 2 < 2 2 < 2 2 2 2 < 2 2 < 2 2 2 < 6 4 ",
"<.1 1.1.1.1.1.1.1.1.1.1.1.1.1.1.1.1.1.1.1.1.1.1.1.1.1.1.1.1.1.1.1.1.1.1.1.2.3.4.",
"5.6.7.8.8.8.8.8.8.8.8.8.8.8.8.8.8.8.8.8.8.8.8.8.8.8.8.8.8.8.8.8.8.8.8.8.8.7.9.0.",
"q.w.e.e.e.e.e.e.e.e.e.e.e.e.e.e.e.e.e.e.e.e.e.e.e.e.e.e.e.e.e.e.e.e.e.e.e.e.r.q."
};
