/* XPM */
static char *_88eb926bcc241d4ffb3ebada013138aZLaLngr9QqEJeTyx[] = {
/* columns rows colors chars-per-pixel */
"40 40 144 2 ",
"   c #030305",
".  c #08090B",
"X  c #16181A",
"o  c #17181B",
"O  c #1D1E22",
"+  c #242629",
"@  c #323439",
"#  c #4D5057",
"$  c #575B62",
"%  c #626970",
"&  c #1FFF00",
"*  c #24FF00",
"=  c #28FD06",
"-  c #2CFC0B",
";  c #2FFA10",
":  c #32F614",
">  c #32FC13",
",  c #36F419",
"<  c #39F31D",
"1  c #36FC19",
"2  c #39FB1D",
"3  c #3EEF25",
"4  c #3DF422",
"5  c #3EFB23",
"6  c #40EE27",
"7  c #43EC2C",
"8  c #40F226",
"9  c #40FA27",
"0  c #42F529",
"q  c #44F92C",
"w  c #4AE735",
"e  c #46EA30",
"r  c #49EB34",
"t  c #4EE53A",
"y  c #4EEA3B",
"u  c #49F434",
"i  c #47F930",
"p  c #4BF836",
"a  c #4FF73B",
"s  c #4DF838",
"d  c #51F73D",
"f  c #5ADE4B",
"g  c #5EDD51",
"h  c #61DA55",
"j  c #66D65C",
"k  c #63D958",
"l  c #52E540",
"z  c #55ED44",
"x  c #5AE74B",
"c  c #54F641",
"v  c #58F647",
"b  c #5CF54C",
"n  c #5FF450",
"m  c #63E757",
"M  c #61F454",
"N  c #66F35A",
"B  c #69F35E",
"V  c #6DD267",
"C  c #69DE60",
"Z  c #71D06B",
"A  c #76CD72",
"S  c #79CB77",
"D  c #7FC77F",
"F  c #7CCA7B",
"G  c #6FE269",
"H  c #70EC68",
"J  c #6BF262",
"K  c #70F168",
"L  c #77E673",
"P  c #7DEF7B",
"I  c #76F071",
"U  c #7BF076",
"Y  c #81EF7E",
"T  c #747A83",
"R  c #7C838D",
"E  c #7FC780",
"W  c #8EBE93",
"Q  c #93BA9C",
"!  c #959EA8",
"~  c #9BB6A6",
"^  c #9DB4AA",
"/  c #9BA5B0",
"(  c #A6AEB6",
")  c #A6AEBA",
"_  c #A9AEB9",
"`  c #AAB2BB",
"'  c #81C683",
"]  c #86C389",
"[  c #89C18D",
"{  c #8ACE8E",
"}  c #8CC092",
"|  c #8DD192",
" . c #95DC9B",
".. c #85EE84",
"X. c #89E18C",
"o. c #8BEC8D",
"O. c #8EEC91",
"+. c #92EB96",
"@. c #94EA9A",
"#. c #9DC1AA",
"$. c #9BDAA4",
"%. c #A7C6B5",
"&. c #A6D4B4",
"*. c #A4D8B1",
"=. c #9CEAA4",
"-. c #9FE9A8",
";. c #A2E8AC",
":. c #A6E6B2",
">. c #AAE7B7",
",. c #ADE4BB",
"<. c #B0E7BF",
"1. c #AFB7C1",
"2. c #AFB8C2",
"3. c #B0B7C2",
"4. c #B2BBC6",
"5. c #B5BEC9",
"6. c #B8C2CD",
"7. c #B7C9CB",
"8. c #B2DEC3",
"9. c #B6D5C9",
"0. c #B8C3D1",
"q. c #BFCAD6",
"w. c #BFDBD5",
"e. c #B3E5C4",
"r. c #B6E4C8",
"t. c #BAE3CE",
"y. c #BDE4D1",
"u. c #C1C7D9",
"i. c #C2CDDA",
"p. c #C4D3DD",
"a. c #C4E3DB",
"s. c #C7D2E0",
"d. c #CAD4E4",
"f. c #CCD8E7",
"g. c #CFDBEB",
"h. c #D2DFEE",
"j. c #D5DFF2",
"k. c #CBE1E4",
"l. c #CFE0EA",
"z. c #D1E1EC",
"x. c #D3E0EF",
"c. c #D3E0F0",
"v. c #D4E1F1",
"b. c #D5E1F2",
/* pixels */
"  o + + + + + + + + + + + + + + + + + + + + + + + + + + + + + + + + + + + + o   ",
"@ ` 0.0.0.0.0.0.0.0.0.0.0.0.0.0.0.0.0.0.0.0.0.0.0.0.0.0.0.0.0.0.0.0.0.0.0.0./ + ",
"T c.c.b.b.b.b.b.b.b.b.b.c.b.b.x.a.a.k.t.e.r.a.b.b.b.b.b.b.b.c.b.b.b.c.c.b.b.h.$ ",
"R j.c.c.x.x.x.x.x.x.x.x.x.x.-.v 5 5 5 1 > > 9 B :.l.b.b.x.b.z.x.x.c.c.x.c.x.x.% ",
"R b.x.h.c.h.x.h.c.c.c.c.j.-.; & & = > = & & - = = B y.b.b.x.x.x.h.h.x.x.h.c.x.% ",
"R b.b.l.a.x.j.c.c.c.c.b.l.b * 0 U >.y.=.M = 2 ..N - a :.r.a.x.b.h.j.j.j.c.c.h.% ",
"R x.j.y.;.y.k.w.w.p.d.d.w.2 u -.=.P U O.:.X.< p 8.H * - > 5 J 8.h.j.c.c.c.c.x.% ",
"R c.x.r.@.J p 5 4 r g F ] ; w 4 * * * * ; y k ; 7 < * * * * * 4 &.j.c.c.c.c.g.% ",
"R b.c.y.b * - , < - * = : = * * * * * * * * - - * * * = * * : : g p.j.x.x.x.h.% ",
"R c.b.e.1 l A D W Q ] e * * * * * * * * * * * * * * t A : 3 ; e < #.f.j.c.c.h.% ",
"R b.j.-.4 F E D D W ] , * * * * * * * * * * * * * = S ) l f f , , ' 0.j.c.c.h.% ",
"R b.j.-.7 W ' ' D F 6 * * * * * * * * * * * * * * * 3 ~ A e } , = j ) q.c.x.h.% ",
"R c.j.e.4 &.9.*. .m * * * * * * * * * * * * * * * * * L $.0 9.n & n u.s.x.x.g.% ",
"R b.j.k.s U b.x.<.5 * = * * * * * * * * * * * * * * * ; i ; =.o.* b x.j.x.x.x.% ",
"R c.c.j...2 ,.b.o.* * * * * * * * * * * * * * * * * * * * * = i * c l.c.c.c.h.% ",
"R b.x.b.a.s p r.d * * * * * * * = - * * * * * * * * * * * = p ; * d k.c.c.c.h.% ",
"R b.x.x.j.>.1 q - = = * * * * * > c = * * * = * * * * * * * c o.> * Y x.x.x.h.% ",
"R b.c.c.j.j.@.- * - = * * * * * * = * * * * * * * * * * * * * 4 > u > =.j.x.x.% ",
"R b.b.x.x.h.6.h * = * * * * * * * * * * * * * * * * * * * * * * 1 ,.n i a.x.h.% ",
"R b.x.x.b.i._ ] : * * * * * * * * * * * * * * * * * * = : * 7 w , %.8.2 o.j.h.% ",
"R b.x.b.f.1.( ( Z * * * * * * * * * * * * = * * * * * : E 3 k E - ] u.U a k.h.% ",
"R c.h.h.5.( ( ( Q , * = * * * * * * * = * * * * * * * ; [ 3 3 g * V 3.&.5 e.j.% ",
"R b.h.f.6.6.6.6.6.z & : = * * * * * * * * * * * * * * 2 C : : - - m 6.q.d +.j.% ",
"R b.x.h.x.x.x.b.h.n * * * * * * * * * * * * * * * * * - ; d i 1 N b x.h.N P j.% ",
"R x.x.x.x.x.x.b.g.b 2 = = = * * * * * * * * * * * * * * * = * J O.b h.b.J U j.% ",
"R b.c.x.c.c.h.b.h.b d q O.i * * * * * * * * * * * * * * * * & O.P M x.x.b ..j.% ",
"R x.x.b.c.x.x.c.j.B N 6 =.e.5 * * * * * * * * * * * * * - 2 B ;.q ..j.;.1 ;.x.% ",
"R b.x.c.x.h.h.i.q.C z x u 7.| : * = = * & * * * * * * = G X.L 5 1 +.P 1 d f.x.% ",
"R b.c.c.c.c.i.` ( W : j : f ^ W 4 * e f t 7 3 < : * * * = = * * * = * a r.b.h.% ",
"R c.c.c.c.d.` ( ( ( w < f = f ^ Q t = < g ' Q ~ W : - = 7 7 < < 7 x +.a.j.x.h.% ",
"R c.x.c.g.4.` ( ( ( W , 3 w - 7 ' ^ A 3 * - 3 f w * * 7 ^ ^ ~ ~ ^ ` s.j.x.x.h.% ",
"R b.x.x.q.` ( ( ( ( ) E : , 7 - = w S W V 7 * * & = 3 W ( ) ) ) ( ( 1.g.c.c.h.% ",
"R b.x.f.4.` 4.` 4.4.1.3.{ 4 * - * * = : < , * * 4 E %.2.` 4.` ` 4.` 4.i.h.x.x.% ",
"R b.x.x.g.h.g.g.h.f.g.g.h.r.J 1 * * * & & * 2 U t.h.g.g.g.h.h.h.g.g.f.h.h.x.h.% ",
"R b.c.c.b.x.x.b.x.x.x.c.j.j.h.r.@.I B M K O.t.x.j.c.c.c.c.b.x.b.x.b.x.x.b.h.h.% ",
"R b.x.x.x.x.c.x.x.x.x.h.h.h.j.j.b.b.b.b.j.j.j.j.c.x.x.x.x.x.x.b.h.x.x.x.x.h.h.% ",
"R x.b.b.b.x.b.b.b.b.b.b.h.b.x.x.b.b.b.b.x.b.c.b.h.b.b.b.x.x.b.b.h.x.b.b.b.x.h.% ",
"% c.b.b.b.b.b.b.b.b.b.b.b.b.b.b.b.b.b.b.b.b.b.b.b.b.b.b.b.b.b.b.b.b.b.b.b.b.f.# ",
"O R ! ! ! ! ! ! ! ! ! ! ! ! ! ! ! ! ! ! ! ! ! ! ! ! ! ! ! ! ! ! ! ! ! ! ! / T o ",
"    . . . . . . . . . . . . . . . . . . . . . . . . . . . . . . . . . . . .     "
};
