/* XPM */
static char *b7de230af26a4984f780ef78dc3c09afhOtCB3i4nE9gVjlp[] = {
/* columns rows colors chars-per-pixel */
"40 40 146 2 ",
"   c #221D13",
".  c #252116",
"X  c #2A2417",
"o  c #2B271D",
"O  c #2F2A1F",
"+  c #332D1D",
"@  c #363020",
"#  c #3B3422",
"$  c #3F3826",
"%  c #3B372C",
"&  c #3E392B",
"*  c #443C26",
"=  c #483F27",
"-  c #463E29",
";  c #4A4127",
":  c #4D432B",
">  c #51462C",
",  c #53492E",
"<  c #454133",
"1  c #554C33",
"2  c #594E33",
"3  c #554E39",
"4  c #5C5234",
"5  c #575039",
"6  c #5C533B",
"7  c #615636",
"8  c #645937",
"9  c #605639",
"0  c #655B3B",
"q  c #695E3B",
"w  c #6C613E",
"e  c #4E4B41",
"r  c #5F5741",
"t  c #5F5845",
"y  c #5E5A4F",
"u  c #655D44",
"i  c #665E4A",
"p  c #685F49",
"a  c #615D53",
"s  c #6C6243",
"d  c #6C644B",
"f  c #716642",
"g  c #756B46",
"h  c #786D46",
"j  c #71674B",
"k  c #736A4C",
"l  c #796E4A",
"z  c #7C724C",
"x  c #656257",
"c  c #6B6554",
"v  c #6F6853",
"b  c #746C52",
"n  c #786E50",
"m  c #746D5A",
"M  c #7B7354",
"N  c #7D755A",
"B  c #7D7661",
"V  c #7F7862",
"C  c #7C776A",
"Z  c #817750",
"A  c #827955",
"S  c #80775B",
"D  c #867D5B",
"F  c #887F5D",
"G  c #807964",
"H  c #807A69",
"J  c #898264",
"K  c #8D8669",
"L  c #8D8774",
"P  c #8E8974",
"I  c #86847E",
"U  c #948D74",
"Y  c #989075",
"T  c #96907B",
"R  c #9C957D",
"E  c #9F997E",
"W  c #9A968A",
"Q  c #9E9A8D",
"!  c #ABA48B",
"~  c #A6A191",
"^  c #A9A593",
"/  c #AEA890",
"(  c #ADA99C",
")  c #B1AC97",
"_  c #B5B09F",
"`  c #ADAAA0",
"'  c #B1ADA1",
"]  c #B3B0A7",
"[  c #B6B1A2",
"{  c #B5B2AA",
"}  c #B9B5AA",
"|  c #BCB9AF",
" . c #BDBBB5",
".. c #BEBBB0",
"X. c #C1BEB5",
"o. c #C1BFBA",
"O. c #C2C1BB",
"+. c #C5C2BA",
"@. c #C8C6BF",
"#. c #C9C7C1",
"$. c #C8C6C1",
"%. c #CCCAC4",
"&. c #CFCDC9",
"*. c #D0CECB",
"=. c #D3D1C9",
"-. c #D3D1CD",
";. c #D6D5D1",
":. c #D5D4D3",
">. c #D6D5D2",
",. c #DCDBD5",
"<. c #DDDBD5",
"1. c #DDDBD7",
"2. c #DEDDD8",
"3. c #DFDDDA",
"4. c #E3E1DC",
"5. c #E3E2DE",
"6. c #E2E0DE",
"7. c #E3E3E2",
"8. c #E7E6E2",
"9. c #E5E4E2",
"0. c #E8E8E6",
"q. c #E9E8E6",
"w. c #EAE9E6",
"e. c #E9E9E7",
"r. c #EBEAE8",
"t. c #EFEEEE",
"y. c #EFEFEE",
"u. c #EBEAE9",
"i. c #F0F0EF",
"p. c #F1F1F0",
"a. c #F1F1F1",
"s. c #F2F1F1",
"d. c gray95",
"f. c #F2F2F3",
"g. c #F3F3F3",
"h. c #F3F3F4",
"j. c #F3F4F4",
"k. c #F4F4F4",
"l. c #F4F4F5",
"z. c #F4F5F5",
"x. c gray96",
"c. c #F5F5F6",
"v. c #F5F6F6",
"b. c #F6F6F6",
"n. c #F3F3F3",
"m. c #F7F7F8",
/* pixels */
"k.g.g.g.g.g.g.g.j.j.j.z.z.z.z.z.z.k.i.k.j.j.d.d.d.j.j.j.j.d.d.d.g.g.g.i.f.f.g.i.",
"g.g.g.g.g.i.g.g.i.j.w.2.<.<.5.5.w.w.y.k.d.p.p.p.y.5.=.-.e.d.d.j.g.i.g.g.g.g.g.g.",
"g.g.g.y.g.g.i.g.i.i.( M M k J K K K U R T P P E U J f 1 W d.d.d.g.g.g.g.g.g.i.g.",
"g.g.g.g.i.g.g.g.j.y.E l J Z J A J D z h h w 4 g h z J w ^ v.d.j.g.g.g.f.g.g.g.g.",
"g.g.g.g.g.g.g.g.j.i.P 4 s s z J z 1 1 1 5 2 6 w g M k w ^ j.d.d.i.g.g.f.g.i.g.g.",
"g.f.i.g.g.g.g.i.d.j.I $ & @ $ & < % O   X X O @ $ ; $ X I z.d.d.g.g.g.i.g.g.g.g.",
"g.i.g.g.i.g.f.f.d.j.7.U h s y e x a &       . e o > 4 C >.d.j.d.g.g.g.g.g.i.g.g.",
"f.f.g.g.f.g.g.g.d.d.d.! z d j b w 9 4 , , , , : @ ; 9 ( m.k.d.d.g.g.g.g.f.f.g.g.",
"g.g.g.g.g.g.g.f.g.g.g.! A s n A z h w 1 4 q 4 , ; $ 0 ' j.d.d.j.g.g.g.g.i.g.f.f.",
"g.g.g.g.f.f.g.i.g.g.f.! Z u b M N h 6 1 0 u 4 , $ , 0 ( v.j.d.d.f.f.g.g.g.g.i.g.",
"i.g.g.g.i.g.g.g.g.g.f.! z 0 k l M f 0 w w s 6 , : 0 4 ] v.d.d.j.g.i.g.g.g.i.f.g.",
"f.g.g.i.g.g.g.g.g.f.j.^ k 4 b k z w s 0 8 u 0 : 1 6 4 } v.d.d.d.g.g.g.i.g.g.g.g.",
"f.f.g.g.g.g.g.i.g.g.k.^ q 4 b s n f f s q d 0 * 3 q 4  .v.k.d.d.g.g.g.g.g.g.g.g.",
"g.g.g.g.g.i.g.g.g.g.k.[ s 4 d g k g g 4 q d u ; > 8 6 O.v.d.k.d.g.g.g.g.g.i.g.g.",
"g.g.g.i.g.f.g.g.g.g.g.[ f ; , w w f w 4 w 4 4 > : w 0 O.v.d.d.d.f.f.g.g.g.g.g.g.",
"g.g.g.g.g.i.g.g.g.g.k.` 8 1 6 w , 6 w 4 w 1 4 ; - 0 q @.v.d.k.d.i.g.g.f.i.g.f.f.",
"n.n.n.n.n.n.s.n.l.s.l.{ 8 , 6 q 4 4 4 8 q 2 4 ; * 9 9 #.k.g.g.g.g.g.g.i.f.f.g.i.",
"n.s.n.n.n.n.n.n.s.s.x.} 8 > b 8 w w w w 8 m s : ; 8 9 &.m.g.g.g.g.i.g.g.g.g.g.g.",
"n.n.n.s.n.n.n.n.l.s.l.X.4 1 G q 0 w w 6 : M g : ; ; 3 &.j.g.a.g.g.g.g.g.g.g.i.g.",
"n.n.n.n.n.n.n.n.s.s.l.X.2 1 G 8 w 4 w 6 ; b k > : - 1 &.k.a.g.g.g.g.g.f.g.g.g.g.",
"n.n.n.n.n.n.n.n.h.s.x.o.2 2 B 8 6 8 s 6 > d s 2 : ; 3 &.k.g.f.j.i.g.g.f.g.i.g.g.",
"n.n.s.n.n.n.s.n.x.s.x.#.8 4 N 8 4 w s 6 , d 6 , 3 , 3 #.k.j.g.g.g.g.g.i.g.g.g.g.",
"g.s.n.n.n.n.k.n.n.s.x.%.7 6 m 2 4 4 f 3 > 6 6 , 5 , 2 &.g.g.g.g.g.g.g.g.g.i.g.g.",
"g.n.g.n.n.n.s.s.n.n.x.*.6 8 b 2 8 8 k 4 : 5 4 1 r > 3 &.k.g.g.g.g.g.g.g.f.f.g.g.",
"s.g.g.g.s.g.g.g.n.n.k.*.0 q b q 0 8 j 6 ; 3 : : t : 3 -.f.f.f.h.g.g.g.g.i.g.f.f.",
"g.g.g.s.g.g.g.s.n.n.k.;.u 0 p s w 0 n 6 > : = , t > r :.l.f.f.f.f.f.g.g.g.g.i.g.",
"s.g.g.g.i.g.g.g.n.n.x.<.l 8 6 2 8 8 M 6 , - ; 2 t , r 1.h.g.h.h.g.i.g.g.g.i.f.g.",
"g.g.s.g.f.g.g.i.n.n.k.3.l 4 i , 7 8 N u ; ; = 7 i ; r 3.h.h.s.s.g.g.g.i.g.g.g.g.",
"g.g.g.g.f.g.g.g.n.n.h.3.n 4 c > 7 q A j 7 > = 1 d 4 p 6.h.n.n.g.g.g.g.g.g.g.g.g.",
"g.i.g.g.g.g.g.g.n.n.h.6.n 9 3 > 2 8 k f 2 2 , 2 i 4 d 9.h.n.n.n.g.g.g.g.g.i.g.g.",
"g.g.g.g.g.g.i.g.n.n.h.6.n 9 - > 4 w 9 0 7 1 > 1 p 9 d 6.n.g.g.g.f.f.g.g.g.g.g.i.",
"i.g.f.f.i.g.g.g.s.n.h.9.S 9 1 > 2 q 7 u q 2 = ; u s j 6.h.s.g.g.i.g.g.f.i.g.g.g.",
"f.g.g.i.g.g.g.g.g.g.k.9.N 7 5 , 4 q g 9 4 1 > ; : 9 d 3.k.g.g.g.g.g.g.y.g.g.i.g.",
"g.g.f.f.i.g.g.g.g.i.f.0.S 0 d 4 0 8 N 0 0 4 : ; ; 4 d 3.g.g.g.g.g.g.g.g.g.g.g.g.",
"g.g.g.g.g.g.g.g.g.f.f.0.N q u 1 7 4 m 9 s 9 , ; * s M 3.j.g.g.g.g.g.g.g.g.g.g.g.",
"g.g.g.g.g.g.g.f.g.i.f.9.m 7 5 , 1 4 k , 4 2 , : # 4 k 3.g.y.g.g.i.g.g.g.g.g.g.f.",
"i.g.f.f.g.g.f.f.g.g.f.9.b 2 3 4 4 , d , 4 ; : = # , d 3.k.d.g.g.g.g.g.g.i.g.f.f.",
"g.g.i.g.g.g.i.g.g.f.j.9.k , 4 s b u m d N b H m u w k 5.k.j.g.g.g.g.g.g.g.g.g.f.",
"g.g.g.g.g.g.g.g.g.g.f.r.N d Q #.3.;.3.1.3.7.r.r.@._ | u.d.d.k.g.i.g.g.g.g.i.f.f.",
"g.g.i.g.g.g.i.g.g.g.f.f.1.1.g.k.k.k.j.k.k.k.g.g.v.v.v.k.j.d.g.g.g.g.g.i.g.g.g.i."
};
