/* XPM */
static char *_9367b2ab3864a358866fda83bb121ffN1zyBMnw33nIMnxu[] = {
/* columns rows colors chars-per-pixel */
"40 40 172 2 ",
"   c #1B170E",
".  c #1D190F",
"X  c #1E1A10",
"o  c #221E13",
"O  c #262015",
"+  c #282316",
"@  c #292419",
"#  c #2E291B",
"$  c #332D1D",
"%  c #312D23",
"&  c #3B3526",
"*  c #39352A",
"=  c #3E3A32",
"-  c #433B25",
";  c #483F27",
":  c #443D2A",
">  c #413E34",
",  c #4B4127",
"<  c #4C432A",
"1  c #504527",
"2  c #51472C",
"3  c #544A2E",
"4  c #584E2F",
"5  c #454032",
"6  c #4A4434",
"7  c #4F4836",
"8  c #534B34",
"9  c #584F32",
"0  c #544F3F",
"q  c #5C5234",
"w  c #5C543C",
"e  c #615736",
"r  c #635836",
"t  c #61573A",
"y  c #645A3B",
"u  c #695E3B",
"i  c #6B603E",
"p  c #554F42",
"a  c #5E5743",
"s  c #645B41",
"d  c #6C6344",
"f  c #6C644B",
"g  c #706644",
"h  c #736844",
"j  c #736A4C",
"k  c #796F4B",
"l  c #7C724D",
"z  c #646057",
"x  c #6B6450",
"c  c #6E6857",
"v  c #6C685D",
"b  c #746C53",
"n  c #746D5B",
"m  c #7B7254",
"M  c #76705E",
"N  c #7B745C",
"B  c #736E63",
"V  c #767161",
"C  c #7B7666",
"Z  c #7F7861",
"A  c #79766C",
"S  c #7F7A6B",
"D  c #807652",
"F  c #837954",
"G  c #80775A",
"H  c #867E5E",
"J  c #897F5C",
"K  c #847D65",
"L  c #827C6C",
"P  c #837E70",
"I  c #827F79",
"U  c #8C8463",
"Y  c #89816A",
"T  c #878275",
"R  c #8A8576",
"E  c #8E8877",
"W  c #8A857A",
"Q  c #8E897B",
"!  c #938E7C",
"~  c #8D8A84",
"^  c #8F8D88",
"/  c #928D80",
"(  c #969285",
")  c #989385",
"_  c #979389",
"`  c #99958B",
"'  c #9D998E",
"]  c #999791",
"[  c #9D9991",
"{  c #A39D85",
"}  c #A09D92",
"|  c #A19F98",
" . c #A7A088",
".. c #ACA68F",
"X. c #A6A297",
"o. c #A4A29C",
"O. c #A9A69D",
"+. c #ACA89E",
"@. c #B2AC96",
"#. c #B2AD9C",
"$. c #B5B09F",
"%. c #A7A6A3",
"&. c #A8A6A1",
"*. c #ACAAA4",
"=. c #AEADAA",
"-. c #B1AEA4",
";. c #B0AFAA",
":. c #B4B2AB",
">. c #B9B6AC",
",. c #BCB8AD",
"<. c #B6B5B1",
"1. c #BDBBB3",
"2. c #C0BDB5",
"3. c #C1BFB8",
"4. c #C4C1B6",
"5. c #C5C2B9",
"6. c #CBC8BC",
"7. c #C6C5C2",
"8. c #C8C7C3",
"9. c #CCCAC4",
"0. c #CECECC",
"q. c #D1CFCB",
"w. c #D4D1C6",
"e. c #D4D3CE",
"r. c #DAD8CF",
"t. c #D5D4D2",
"y. c #D8D7D5",
"u. c #DAD9D6",
"i. c #DCDCDA",
"p. c #E0DFDD",
"a. c #E2E1DD",
"s. c #E5E4E2",
"d. c #E8E7E4",
"f. c #EAE9E6",
"g. c #EDEDED",
"h. c #EFEEED",
"j. c #EEEEEE",
"k. c #EFEFEF",
"l. c #EEEDED",
"z. c #EEEEEE",
"x. c #F0EFEB",
"c. c #F0EFEE",
"v. c #F0F0EF",
"b. c #F2F1EE",
"n. c #EFEFF0",
"m. c gray94",
"M. c #F1F1F1",
"N. c gray95",
"B. c #F3F3F3",
"V. c #F4F4F4",
"C. c gray96",
"Z. c #F6F6F6",
"A. c gray97",
"S. c #F6F6F7",
"D. c #F6F6F6",
"F. c #F4F4F4",
"G. c #F9F8F7",
"H. c #F7F7F8",
"J. c #F8F8F8",
"K. c #F9F9F9",
"L. c #F8F9F9",
"P. c #F9F9FA",
"I. c gray98",
"U. c #FBFBFB",
"Y. c #FAFAFB",
"T. c gray99",
"R. c #FDFDFD",
"E. c #FDFDFC",
"W. c #FEFEFE",
"Q. c white",
"!. c #FDFEFE",
"~. c #FBFBFB",
/* pixels */
"Q.I.g.C.Q.B.B.Q.I.g.a.6.4.4.w.r.r.a.f.f.v.C.g.d.g.f.5.,.e.g.n.Q.I.g.H.Q.B.B.Q.I.",
"Q.I.g.I.Q.B.B.~.A.g...j m d m H H G U Y Y Z N U U H k r 0 w.B.~.I.g.C.Q.B.g.Q.I.",
"B.C.I.C.B.I.C.B.C.I. .l U H U U U U l l l g r g k l U m m a.I.C.C.I.C.C.I.C.C.C.",
"g.B.Q.C.g.~.Q.g.C.Q.! 3 r y j G l 7 5 , 7 8 q y y m j i j a.Q.n.B.Q.C.g.I.Q.g.B.",
"C.C.I.C.C.C.H.C.A.I./ * : % * : = * % % % # # # $ : - # * y.I.C.C.C.C.C.C.C.C.C.",
"Q.I.g.C.Q.B.B.Q.A.v.g.{ l d o.z Q 1.y.0.8.8.<.&.] 6 r w =.g.n.Q.I.g.I.Q.B.B.Q.I.",
"Q.H.B.C.I.B.B.I.A.v.A.$.l d =.= @ * A i.Y.Q.L.A.a.7 q b g.C.B.I.I.B.C.Q.C.B.I.A.",
"g.B.Q.C.B.I.Q.g.A.~.A.@.F d X.p X   X ;.~.n.L.Q.i.6 4 m s.I.Q.n.B.Q.C.g.I.Q.B.B.",
"g.B.Q.C.g.Q.I.g.C.Q.C.@.F d O.x o X X *.Q.n.A.Q.i.p e b s.I.Q.B.C.Q.C.g.I.Q.n.B.",
"Q.A.B.C.I.C.C.I.H.B.I.#.l y +.c o X X %.I.I.C.C.s.f u n g.C.B.I.C.B.C.Q.B.B.I.I.",
"Q.Q.g.I.Q.B.B.Q.A.g.~.-.l w O.n O X . [ C.Q.C.n.f.f e M C.C.g.Q.Q.g.I.Q.B.B.Q.I.",
"C.C.C.C.C.C.C.C.C.A.I.#.i 9 &.M O X   o.I.C.A.L.d.c r C B.L.C.C.C.C.C.C.C.C.C.C.",
"g.B.Q.C.g.Q.I.g.C.Q.C.>.i q ` n O o   o.~.n.L.Q.a.f e C f.I.Q.n.B.Q.C.g.I.Q.g.B.",
"B.C.I.C.B.I.I.B.C.~.I.,.h 2 5 a @ O   o.I.B.A.~.a.f u L n.L.I.B.C.I.C.B.I.I.B.C.",
"Q.I.g.I.Q.g.B.Q.I.g.Q.1.i 9 & - O O . ] A.Q.A.n.s.f i E ~.B.n.Q.I.n.C.Q.B.g.I.I.",
"Q.H.v.C.Q.B.B.~.A.v.I.5.r 9 5 , O O X ] L.Q.C.N.p.f e E ~.B.B.I.I.g.C.Q.B.B.Q.I.",
"B.B.Q.C.B.I.I.B.V.T.J.2.u < C n O O o o.I.B.C.Q.y.d e E B.H.~.B.B.Q.C.B.I.I.B.B.",
"g.B.Q.H.g.I.T.n.V.Q.S.1.t , o.L o o o &.Q.g.L.Q.y.a < Q g.~.Q.n.B.Q.C.g.I.I.B.B.",
"C.J.C.C.J.C.C.J.J.V.P.9.w 1 -.L o o o X.I.I.C.C.y.7 - Q I.C.C.H.C.C.C.I.C.C.C.C.",
"Q.I.g.C.Q.B.m.Q.I.g.T.e.q 2 :.T O o o o.H.Q.C.B.y.8 , / Q.B.g.Q.Q.g.H.Q.B.B.Q.I.",
"I.J.V.C.I.V.C.J.J.V.I.e.t 3 -.P O o X %.I.I.C.C.t.8 < E I.C.C.I.C.C.C.I.C.N.I.I.",
"g.B.Q.C.g.T.T.m.V.Q.J.9.s 9 X.B X o X =.Q.g.L.Q.t.w 3 T g.I.Q.n.B.Q.C.g.I.Q.g.B.",
"m.B.Q.C.m.I.~.B.C.T.J.e.w q [ C o o o <.~.g.L.Q.t.8 < Q B.I.~.B.B.Q.C.g.I.~.B.B.",
"Q.I.B.C.T.V.m.T.J.m.I.p.s e } L O o o *.L.Q.C.B.t.8 , / Q.B.B.I.I.B.H.Q.B.B.I.I.",
"Q.I.g.I.Q.B.m.Q.I.g.I.s.d r ( L @ o X *.H.Q.V.B.0.8 , ' Q.V.m.Q.I.g.I.Q.B.B.Q.I.",
"B.V.I.C.B.J.I.B.C.I.I.i.j y T L o O o ;.~.N.C.T.8.8 , [ C.I.J.B.C.I.C.B.I.C.B.C.",
"g.B.Q.C.g.T.T.g.B.Q.C.p.m q T L o o o <.Q.g.H.Q.7.7 , } B.I.Q.c.B.Q.C.g.I.Q.g.B.",
"V.C.I.C.C.I.C.C.C.I.C.f.b q ` S o @ o =.~.C.H.~.8.8 , *.H.J.J.C.C.I.C.C.C.I.C.C.",
"Q.I.g.I.Q.B.m.Q.L.g.I.v.G q _ P o + o %.J.Q.V.B.6.t 4 :.Q.B.g.Q.I.g.C.Q.B.B.Q.I.",
"T.J.B.C.I.V.B.I.L.n.I.g.N q p 7 o O o *.J.T.C.C.3.t 4 :.Q.V.B.I.I.B.C.Q.B.B.I.I.",
"g.C.Q.C.m.I.I.B.C.Q.C.d.G y > - O @ o ;.T.m.J.Q.1.s q *.N.J.T.B.B.Q.C.g.I.I.g.B.",
"g.B.Q.H.g.I.T.g.N.Q.C.d.Z y 6 : O O o =.Q.g.J.Q.-.d y &.B.I.T.m.B.Q.H.g.I.Q.B.B.",
"T.I.B.C.I.B.C.I.C.B.C.B.Y e n V O o . %.A.~.C.C.[ 8 9 +.Q.C.B.I.I.B.C.Q.B.B.I.C.",
"Q.I.g.C.Q.B.B.Q.I.g.I.I.Y e ) / o . = 0.C.Q.C.B.' 4 y +.Q.B.g.Q.I.g.C.Q.B.B.Q.I.",
"C.C.I.C.C.H.I.C.C.C.I.g.K r ! W o @ %.L.C.C.I.I.( 9 d @.L.C.C.C.C.I.C.C.C.I.C.C.",
"g.B.Q.C.g.I.Q.g.C.Q.B.d.N q W W o I g.Q.I.g.A.Q.~ ; r O.B.I.Q.v.B.Q.C.g.I.Q.g.B.",
"N.C.Q.C.B.I.I.B.C.~.H.f.N 4 T R v d.C.I.C.B.C.Q.^ ; q +.C.A.I.B.C.I.C.N.I.I.B.B.",
"Q.~.g.H.Q.B.g.Q.I.g.I.C.N < T >.9.I.Q.n.C.Q.C.B.>.d y >.Q.B.v.Q.I.g.C.Q.B.B.Q.I.",
"Q.I.g.C.I.B.B.I.H.g.I.I.E b >.C.B.I.I.B.N.Q.C.B.l.6.4.s.Q.B.B.~.I.g.C.Q.B.B.I.I.",
"B.B.Q.C.B.I.I.B.C.Q.C.N.g.f.B.C.~.C.B.I.H.B.C.I.B.C.Q.I.B.S.I.B.C.Q.C.B.H.I.B.B."
};
