/* XPM */
static char *result[] = {
/* columns rows colors chars-per-pixel */
"40 40 140 2 ",
"   c #04450E",
".  c #064B0D",
"X  c #0A4E0B",
"o  c #095107",
"O  c #0D530C",
"+  c #0E5A0D",
"@  c #12540D",
"#  c #145B0C",
"$  c #195F0E",
"%  c #034312",
"&  c #054B13",
"*  c #0B4D11",
"=  c #094C18",
"-  c #055010",
";  c #0B5311",
":  c #0D5B14",
">  c #0E5619",
",  c #135613",
"<  c #145B12",
"1  c #195D15",
"2  c #0C650F",
"3  c #136707",
"4  c #16640D",
"5  c #1B630D",
"6  c #166E0D",
"7  c #1C6B0D",
"8  c #1C740F",
"9  c #1A7B0D",
"0  c #0E6113",
"q  c #0F6816",
"w  c #156412",
"e  c #1B6312",
"r  c #156A13",
"t  c #1C6C13",
"y  c #176A18",
"u  c #1E6D1A",
"i  c #167213",
"p  c #1C7313",
"a  c #1E7812",
"s  c #1D711A",
"d  c #20660F",
"f  c #226C0D",
"g  c #286D0C",
"h  c #23740E",
"j  c #237A0D",
"k  c #2B7C0E",
"l  c #226614",
"z  c #236D14",
"x  c #2A6D15",
"c  c #236D18",
"v  c #2B6E1B",
"b  c #247413",
"n  c #2A7513",
"m  c #247B13",
"M  c #2B7B13",
"N  c #247419",
"B  c #2C7519",
"V  c #247C18",
"C  c #2C7C1A",
"Z  c #307717",
"A  c #327D15",
"S  c #397E11",
"D  c #327D1A",
"F  c #377C21",
"G  c #27810C",
"H  c #2C830E",
"J  c #2E880E",
"K  c #32840E",
"L  c #338B0E",
"P  c #3A8E0E",
"I  c #3D920E",
"U  c #268112",
"Y  c #2D8214",
"T  c #2E8913",
"R  c #2C821A",
"E  c #338414",
"W  c #3A8514",
"Q  c #348B14",
"!  c #3B8C14",
"~  c #348319",
"^  c #3A851A",
"/  c #358B19",
"(  c #3C8C1A",
")  c #379013",
"_  c #3C9313",
"`  c #3F9913",
"'  c #3E911A",
"]  c #42940E",
"[  c #469A0E",
"{  c #489D0E",
"}  c #438E14",
"|  c #438D1B",
" . c #429514",
".. c #489616",
"X. c #459B14",
"o. c #4B9C14",
"O. c #43931A",
"+. c #4A951A",
"@. c #449B1A",
"#. c #4C9C1A",
"$. c #509F10",
"%. c #529C1C",
"&. c #589F1C",
"*. c #4EA30F",
"=. c #55AB0E",
"-. c #4DA214",
";. c #4DA219",
":. c #52A414",
">. c #58A714",
",. c #54AA14",
"<. c #5BAC15",
"1. c #53A31A",
"2. c #5AA51B",
"3. c #55AB19",
"4. c #5AAB1B",
"5. c #5DB115",
"6. c #5EB219",
"7. c #6ABB0F",
"8. c #60AF17",
"9. c #61AF18",
"0. c #62B313",
"q. c #65B913",
"w. c #6BBB13",
"e. c #63B31A",
"r. c #68B718",
"t. c #67BA1B",
"y. c #6CBC1A",
"u. c #488F20",
"i. c #479421",
"p. c #4D9425",
"a. c #4E9C21",
"s. c #539B24",
"d. c #4FA021",
"f. c #54A420",
"g. c #5AA523",
"h. c #64B222",
"j. c #6CBC21",
"k. c #75C414",
"l. c #73C119",
"z. c #75C918",
/* pixels */
"~ + e @ . 6 j U a 8 @.3.1.Y W 1.W ! :.4.;.<.:.! g k 1.<.z   @ e @ t U m n R 6 m ",
"t r t t n ) ! Y V a ` J J _ X.! / ) ` *.5...E o.1.%.+.4.Z = : B c n / ~ c a G J ",
"N + V Q _ ,. .# m U ^ p / 1.%.! ( X.I :.t.I Q ) ) ` m W ~ O y m @.E X.] E Y  .5.",
"( z C ) X.{ :...} Y O & t ^ ( ' Q ' ) -.5.-.X.` j m p C a.E I +.A '  .~ b b / -.",
"n W X.:.,.{ =.5...! g e M ! O. .X.@.T H G Q Q / U a O s ! $.4.| l c Y j R C M t ",
"4.e.t.4.o.@.W W 1.1.;.M z ! ! M H / m i i U ~ ` ` ' z # ! 9.| D 1 y R a a t C 5 ",
",.P M 8 m ~ z 5 A o.H e 7 | A N b C y < & w ' 3.G / ' ( o.:.W n 1 : i r w C l ^ ",
"A 5 e y w t ! %.x ' E ^ %.| x 5 F C y X 4 m E X.Q R 8  .{ X.8.O.e > q q w ' h g ",
"%   1 N t p #.~ m  .E E t , l | A 1 n ^ g.O.E h ..U a O.( ' <.1.c * - > t T ;. .",
", < t Y m ` / j L ) Z e . + ~ -.^ ! %.W g W n k O.! H -.) k Y / V w : - d O.#.h.",
"n C ~ Y ~ { >.X.;.X.~ < : t T T A W 2.( ( 1.^ / ~ M Q Q ~ m j m p a p m ..o.~ O.",
"1.#.#...) I X. .` J k ~ m a 9 p @ g K ! K O.:.,.-.-.` m z z m R p R U ) :.) J ` ",
"o.<.<.1. .n ' _ / H ) ` -.X.;.@.^ 2.L @.~ n n Q ! } ..H C ~ Y m t p h Q ` Q U j ",
"L 6.<.f D 5 D E / / Q  .5.,.! n Q ! G / O.~ W ! b h ..h 4 M ( V C H ' ` X.~ T ) ",
"` ,.y.W | n / ( A + 3 G -.e.H C t c m y b b ( O.M Q Z @ ^ a.m O b :.1.! ~ 6 ~  .",
"C L :.o.X.I  .! ' A ! @.Q >.<.E # 1 b B t N c n M / } +.%.f z @ D ~ h ^ C A ( ! ",
"A D [ -.{ #.X.-.-.o. .! ~ o.l.e.| v , 1 s 2 % * r 8 4.f.t o u.1.' O 1 C b  .-.S ",
"r...;.X.o.h w m I ( m C Y &.&.S , . < C a 0 % & s m ! # e e } +.b e z m m ;.2.+.",
">.t. .1.` p i p M b ~ O.E W l * . c ~ b t < & < z t m X w +.&.@ . s T a p 5 W y.",
"7 Q Q @.Q @._ _ ` T H H H ! S d ^ ^ D 7 6 N O : u m ~ T 7 W n , e M _ I W ! o.k.",
"f ~ m p w n ! ;.) Y W +.9.<.9.9.o.~ O.a.( ! ~ f j ' ! ( ' ' A # E :.<.<.3.*.=.=.",
"! Q Y e l B n H T O.3...n 5 | e.~ 7 f Y Q =.:.:.G ) E f W #.:.W D h ~ E Q L _ X.",
" .J Q / B w w p e $ ^ A   % , o.*.} ^ E X.5.q.w.I X...M ~ W 6.t.W 7 b 5 ~  .;.*.",
"[ / Y a w p b t O + b ( c X n 2.2.W z e ^ W o.y.5.1.o.O.! @.P -.t.o.@.W Q  .o.j.",
"8 b / k w 6 b M ' Q ~ M M b t 5 # O ; , Z D A >.X.A o.q.0.! V 6 n C P 1.! Y }  .",
"h m M E m M T / Q -.<.:./ M C Y / ~ n Z | +.d.o.:.W k -.<. .Y G E ) X.*.>.O.! 0.",
"X.' V m Y #.@.T Q K X.y.] O ; t U W | h e X t z ! | ) 2.-.6.-.-.o...4.>... .e.l.",
"M z w 6 } +.f 6 Q _ P t.&.@ @ z t w t Z p.l N e v z z n K 5.5.,.X.j 7 k k 9 -.<.",
"5 t 8 #.%.# < U @.-.Q Y c e C w r p w e A D D . l D l S :.w.q.{ _ / ~ Q H 8 M  .",
"~ Y Y ^ # # Y Q T M 6 8 p N z p r p Y M m ^ n   B | n D Z :.<.$.n 7 P _ / M m ! ",
"6 f / t w b ( t p z y a p o t b t U _ o.P K E n ^ c N , X A O.+.! ! O._ E H o.X.",
"u M s.Z ; e C z D p i p e z ' ~ T M #.0.5.! ..9.! z B X D %.o.1.X.Q K [ { ,.0.>.",
"b ~ Z s.Z v x M R t i j ~  .Q 6 m 5 S w.w.0.] o.%._ Y 7 ' 5.<.X.+.~ #.l.q.5.<.2.",
"m n x ^ | E z M ~ t b ..#.Q A ~ W 2.r.7.w.z.>.k M X...Q L _ K 3 m Y J ,.q...5 O ",
"O.E s.x t E ~ R | 2.%.O.K t 7 ..3.r.l.#.} :.-.~ 6 k _ ` Q U V t B ~ k Q ! Y r O ",
"! :.n # ~ Y k ! o.o.W W X.) T Q A W } 4 4 j H Y f j I 6.o.Q a w O 5 i.M m / Q M ",
"m O.h | <.} ! [  .~ ^ O. .X.Q M M W h ~ / / ( :.<.<.4.1.4.E y ; & , D p.d l t 4 ",
"B A <.w.<.^ ! *.1.Z n W A E O.5 5 _  .' Q m W  .5.*.! f ! Y + & % & , n p.f Y H ",
"} 2.r.o.M j -.<.$.#.+.| 2.:.#. .+.-.@.m Y N $ i.#.( ~ b M ^ t , 1 z B W 2.:.! A ",
"A 1.M 5 p T O.g.h.2...| :...L X.*.[ { -.U 2 $ W L M t N b U b b M ..o.0.7.:.W O."
};
