/* XPM */
static char *_d15be11979248df9f31c400fcde8381yAEtMYjbLL8Bqcd3[] = {
/* columns rows colors chars-per-pixel */
"40 40 186 2 ",
"   c #0C0000",
".  c #130200",
"X  c #180500",
"o  c #1C0803",
"O  c #1D0E0B",
"+  c #210903",
"@  c #220D0A",
"#  c #23110E",
"$  c #28120E",
"%  c #3E1B0C",
"&  c #2B1612",
"*  c #371F19",
"=  c #38221E",
"-  c #29282C",
";  c #3E2B24",
":  c #3E312A",
">  c #252E39",
",  c #282D32",
"<  c #2F3135",
"1  c #2A343E",
"2  c #27313C",
"3  c #323236",
"4  c #35363B",
"5  c #393738",
"6  c #36393D",
"7  c #401B0B",
"8  c #592F14",
"9  c #553017",
"0  c #563118",
"q  c #5F381E",
"w  c #4C250A",
"e  c #6E360D",
"r  c #72390E",
"t  c #60391F",
"y  c #773F17",
"u  c #783F17",
"i  c #4D372E",
"p  c #5B3927",
"a  c #543B35",
"s  c #433935",
"d  c #633B21",
"f  c #784017",
"g  c #7D441B",
"h  c #774017",
"j  c #5A443D",
"k  c #584338",
"l  c #68432A",
"z  c #79543A",
"x  c #2B3641",
"c  c #2F3943",
"v  c #353C44",
"b  c #3B3E43",
"n  c #363F48",
"m  c #413E40",
"M  c #3D444C",
"N  c #3F4146",
"B  c #3F4750",
"V  c #434346",
"C  c #444549",
"Z  c #484649",
"A  c #43484E",
"S  c #4C4A4B",
"D  c #4C4646",
"F  c #5A4740",
"G  c #5D4943",
"H  c #544C4A",
"J  c #444B54",
"K  c #634D46",
"L  c #654F48",
"P  c #66524A",
"I  c #6B534A",
"U  c #7C6058",
"Y  c #636264",
"T  c #7D6B66",
"R  c #646B73",
"E  c #6E7176",
"W  c #707278",
"Q  c #8B532E",
"!  c #97562E",
"~  c #99562C",
"^  c #9E592F",
"/  c #9C5A31",
"(  c #885536",
")  c #A75C2D",
"_  c #B7622B",
"`  c #BC642B",
"'  c #BF6327",
"]  c #B16735",
"[  c #C1662D",
"{  c #C16E36",
"}  c #CB7135",
"|  c #CD7338",
" . c #C6783D",
".. c #D57534",
"X. c #D97734",
"o. c #DB7935",
"O. c #D77738",
"+. c #D87A39",
"@. c #DB772D",
"#. c #E37C34",
"$. c #E77D35",
"%. c #875B40",
"&. c #886248",
"*. c #976946",
"=. c #AF7D59",
"-. c #AC7852",
";. c #B17F5A",
":. c #896E66",
">. c #976F61",
",. c #8D7568",
"<. c #93766C",
"1. c #997C72",
"2. c #A27A61",
"3. c #C97B41",
"4. c #D27A40",
"5. c #DC823D",
"6. c #E3843C",
"7. c #EA873C",
"8. c #EB893E",
"9. c #E8833A",
"0. c #F18B3D",
"q. c #AF805E",
"w. c #B4825E",
"e. c #A6887E",
"r. c #BD9778",
"t. c #D4814A",
"y. c #EC8B40",
"u. c #D78F61",
"i. c #C7946E",
"p. c #C8956E",
"a. c #CA9770",
"s. c #C88D67",
"d. c #8F8F90",
"f. c #979493",
"g. c #AA9187",
"h. c #B69B92",
"j. c #BC9E92",
"k. c #BFA195",
"l. c #CB9E88",
"z. c #C3A397",
"x. c #D1A596",
"c. c #E0AC8B",
"v. c #CBACA0",
"b. c #D6AEA1",
"n. c #CCB3A8",
"m. c #D3B7AB",
"M. c #D2BCAC",
"N. c #D1B3A7",
"B. c #D6BEB3",
"V. c #DBBEB2",
"C. c #C5C1BD",
"Z. c #D6C1B2",
"A. c #DCC1B6",
"S. c #DCC4BA",
"D. c #DDC9BD",
"F. c #D7C2BA",
"G. c #E1C5B7",
"H. c #E4C5BB",
"J. c #E1CABE",
"K. c #EDCAB3",
"L. c #C5CACE",
"P. c #DDCAC2",
"I. c #E2CCC2",
"U. c #E9CFC5",
"Y. c #E6D1C6",
"T. c #E9D3C3",
"R. c #E5D5CB",
"E. c #EAD4CA",
"W. c #E5DAD6",
"Q. c #EDDDD3",
"!. c #E7DDD8",
"~. c #E8DEDA",
"^. c #F4DACA",
"/. c #EAE1DC",
"(. c #F0E2DA",
"). c #F0E1D7",
"_. c #EEE7E3",
"`. c #EDEAE8",
"'. c #F1EBE6",
"]. c #F3EDEB",
"[. c #F7F1EC",
"{. c #F6F2F1",
"}. c #F9F7F5",
"|. c #FFFFFE",
" X c #F9F8F7",
".X c #EBF2F7",
/* pixels */
"|.|.|.|.|.|.|.|.|.|.|.|.|.|.|.|.|.|.|.|.|.|.|.|.|.|.|.|.|.|.|.|.|.|.|.|.|.|.|.|.",
"|.|.|.|.|.|.|.|.|.|.|.|.|.|.|.|.|.|.|. X|.|.|.|.|.|.|.|.|.|.|.|.|.|.|.|.|.|.|.|.",
"|.|.|.|.|.|.|.|.|.|.|.|.|.|.|.|.|.|.].F.P. X|.|.|.|.|.|.|.|.|.|.|.|.|.|.|.|.|.|.",
"|.|.|.|.|.|.|.|.|.|.|.|.|.|.|.|.|.~.B.).Q.B.'.|.|.|.|.|.|.|.|.|.|.|.|.|.|.|.|.|.",
"|.|.|.{.}.|.|.|.|.|.|.|.|.|.|.|.P.J.).S.U.).D.W.|.|.|.|.|.|.|.|.|.|.|.].}.|.|.|.",
"|.|.|.=.z .X|.|.|.|.|.|.|.|.{.S.E.Q.S.G.G.J.Q.D.P.|.|.|.|.|.|.|.|.|.L.g B.|.|.|.",
"|.|.|.w.w R |.|.|.|.|.|.|._.B.J.R.A.N.a I V.I.Q.R.S.}.|.|.|.|.|.|.`.M e M.|.|.|.",
"|.|.|.=.d > f.|.|.|.|.|./.F.(.Y.U.z.;     i v.A.R.Q.m.].|.|.|.|.|.Y < g M.|.|.|.",
"|.|.|.=.t J 5 C.|. X|./.x./.S.G.1.$   o o   & j.H.R.Y.N.{.|.|.|.d.- A u M.|. X|.",
"|.|.|.=.t M N D '.|.].F.Q.J.G.U   . o X X X . O e.J.Y.Q.F. X|.B.< N M y M.|.|.|.",
"|.|.|.=.t M S < ,.|.F.Q.J.G.,.  X o X X X X o . X e.H.R.R.R.[.j 6 C M y M.|.|.|.",
"|.|.|.=.p M V V s l.).Y.H.<.  X X X X X X X X X . $ k.A.Q.Q.>., C V M y M.|. X|.",
"|.|.|.=.t M C C 6 ( ^.D.z.@ . X X X X X X X X X o   a V.D.K.k N S V M h M.|.|.|.",
"|.|.|.=.q N b 4 2 l c.J.j   o X X X X X X X X X X X . <.Q.s.: , 6 6 N h M.|. X|.",
"|.|.|.w.9 , i l ] @.u.h.X X X X X X X X X X X X X X   = M.+...Q p : > u Z.|.|.|.",
"|.|.|.p.9 N ..@.8.5.t.I   o X X X X X X X X X X X X o   >.o.7.7.$.~ 1 g T.|. X|.",
"|.|.|.p.9 C O...7.6.| * . X X X X X X X X X X X X X X   p o.9.6.#.~ x g T.|.|.|.",
"|.|.|.p.9 C O.o.y.7.[ + X X X X X X X X X X X X X X X . 7 ..7.7.$.~ x g T.|.|.|.",
"|.|.|.p.9 V O.o.y.7.` + . X X X X X X X X X X X X X X   % ..7.y.$.~ > Q T.|.|.|.",
"|.|.|.p.8 C +.o.y.7.` + X X X X X X X X X X X X . X X . % ..6.y.$.~ 1 g T.|.|.|.",
"|.|.|.p.9 V X.$.y.y.` o . X X X X X X X X X X X X X X . % ..7.8.9.^ 1 g J.|.|.|.",
"|. X|.i.9 Z } +.y.+._ + X X X X X . X X X X X . X X X   % } 5.5.X.~ 1 g T.|.|.|.",
"|.|.|.p.9 Z ] {  .3.) + . X X . X X X X X X X X X X X . % ]  . .{ Q 1 u T.|.|.|.",
"|.|.|.p.9 V ..o.t.y.` o X X X X X X X X X X X X X X X . % ..6.5...~ 1 Q T.|. X|.",
"|.|.|.p.9 C o.#.y.8.` o X X X X X X X X X X X X X X X . % #.y.7.#.^ x g T.|.|.|.",
"|. X|.p.9 V O.o.y.7.` o X o X X X . X X X X X X X X X . % o.y.7.#.^ 1 g T.|.|.|.",
"|.|.|.p.9 V O.X.y.7.` + X X X X X X X X X X X X X X X   7 X.y.6.#.^ x g T.|.|.|.",
"|.|.|.p.9 C ....7.#.` o X X X X X X X X X X X X X X X . 7 X.7.5.o.^ x g T.|.|.|.",
"|.|.|.p.0 S | #.0.7.` o . X X X X X X X X X X . X X X . % X.7.7.#./ c g T.|.|.|.",
"|.|.|.w.t A H I *.+.' o X X X X X X X X X X X X X X X   7 #.4.&.P H M g M.|.|.|.",
"|.|.|.-.q M N v n S ( + X X X X X X X X X X X X X X X . 7 &.M v M C M f M.|. X|.",
"|.|.|.q.q M V C Z A < X X X . X X X X X X X X X X X X X @ v C Z V V A h M.|.|.|.",
"|.|.|.=.t M V V m A 5 X X . X X X X X X X X X X X X X . O b C V V V M y M.|.|.|.",
"|.|.|.=.p M V V V C 3 o o o o o o o o o o X o o o o o X O V C V V V M u M.|. X|.",
"|.|.|.=.d A C C V V -                                   . b V Z C C A g M.|.|.|.",
"|.|.|.-.8 x 6 4 5 b H G F K K F G F G K G G G P F K P j G D 5 6 4 5 x y M.|. X|.",
"|.|.|.r.&.E T ,.g.n.S.I.I.I.I.I.I.I.I.I.I.I.Y.I.I.I.I.P.D.B.h.1.:.T E *.F.|.|.|.",
"|.|.|.|.|.J.x.G.E.Y.Y.I.I.I.I.I.I.I.I.I.I.D.I.I.I.I.I.I.I.E.Y.H.x.z.).|.|.|.|.|.",
"|.|.|.|.|._.~._.~.!.~.!.!.!.~.~.!.~.~.!.~.W.W.!./.!././.~.~.W.!._.W.`.|.|.|.|.|.",
"|.|.|.|.|.|.|.|.|.|.|.|.|.|.|.|.|.|.|.|.|.|.|.|.|.|.|.|.|.|.|.|.|.|.|.|.|.|.|.|."
};
