/* XPM */
static char *result[] = {
/* columns rows colors chars-per-pixel */
"40 40 219 2 ",
"   c #3F1719",
".  c #371A18",
"X  c #153810",
"o  c #242D14",
"O  c #2A2718",
"+  c #3E251B",
"@  c #342B1A",
"#  c #3A291A",
"$  c #273517",
"%  c #363719",
"&  c #2E3A22",
"*  c #451719",
"=  c #4B1A1D",
"-  c #511C1E",
";  c #581C1E",
":  c #45231C",
">  c #482B1B",
",  c #4C311D",
"<  c #4D1C21",
"1  c #551D22",
"2  c #5A1E24",
"3  c #611F25",
"4  c #4D2422",
"5  c #542324",
"6  c #5D2225",
"7  c #5B2B24",
"8  c #5D242A",
"9  c #573521",
"0  c #632325",
"q  c #6A2527",
"w  c #642B24",
"e  c #64252A",
"r  c #6B262A",
"t  c #6D282B",
"y  c #72272B",
"u  c #74292B",
"i  c #7B2A2D",
"p  c #6D3428",
"a  c #73322B",
"s  c #074B0C",
"d  c #0A490B",
"f  c #0A4C0B",
"g  c #13440B",
"h  c #0C5607",
"j  c #0C540C",
"k  c #0D5B0E",
"l  c #12550E",
"z  c #18510E",
"x  c #145C0B",
"c  c #1B5D0E",
"v  c #034512",
"b  c #0B4811",
"n  c #0B4D12",
"m  c #1B4616",
"M  c #0C5311",
"N  c #125512",
"B  c #1B5712",
"V  c #145B13",
"C  c #28430F",
"Z  c #28471B",
"A  c #3A4616",
"S  c #3E4918",
"D  c #265716",
"F  c #235C14",
"G  c #2B531B",
"H  c #2C5D1B",
"J  c #345819",
"K  c #13630D",
"L  c #1C640C",
"P  c #156C0F",
"I  c #1C6B0E",
"U  c #1C730F",
"Y  c #1B780F",
"T  c #146412",
"R  c #1C6512",
"E  c #156B13",
"W  c #1B6B12",
"Q  c #176A1A",
"!  c #1E6A1A",
"~  c #1D7313",
"^  c #1B7516",
"/  c #1D7B12",
"(  c #236D0E",
")  c #296F0F",
"_  c #24740D",
"`  c #237B0E",
"'  c #297B0E",
"]  c #226414",
"[  c #2A6516",
"{  c #226B14",
"}  c #296E13",
"|  c #2B631A",
" . c #236A1B",
".. c #296918",
"X. c #336314",
"o. c #326C13",
"O. c #34651C",
"+. c #396D18",
"@. c #247313",
"#. c #2B7513",
"$. c #247C13",
"%. c #2B7C14",
"&. c #24771A",
"*. c #2B7419",
"=. c #267A18",
"-. c #2C7C1A",
";. c #337314",
":. c #3A7313",
">. c #337C14",
",. c #31741A",
"<. c #3C751B",
"1. c #357E19",
"2. c #3A7B1B",
"3. c #2E4225",
"4. c #334524",
"5. c #394828",
"6. c #315522",
"7. c #3B5625",
"8. c #3C542C",
"9. c #3F4E30",
"0. c #48471A",
"q. c #495A19",
"w. c #486B19",
"e. c #46791B",
"r. c #584823",
"t. c #435C2C",
"y. c #4E5A2E",
"u. c #465835",
"i. c #4E5D35",
"p. c #4E6135",
"a. c #536636",
"s. c #53653C",
"d. c #58673D",
"f. c #5B6A3E",
"g. c #556840",
"h. c #5E6C43",
"j. c #5C7043",
"k. c #636E41",
"l. c #657244",
"z. c #6B7847",
"x. c #717749",
"c. c #727D4A",
"v. c #802D2F",
"b. c #832E32",
"n. c #8A3133",
"m. c #903236",
"M. c #2C830E",
"N. c #2A850F",
"B. c #32850E",
"V. c #348B0E",
"C. c #388D0E",
"Z. c #37920E",
"A. c #3B930E",
"S. c #258112",
"D. c #2D8413",
"F. c #2E8B14",
"G. c #2D8218",
"H. c #338514",
"J. c #3A8514",
"K. c #348B14",
"L. c #3B8C14",
"P. c #34841A",
"I. c #3B851A",
"U. c #358C19",
"Y. c #3C8B1A",
"T. c #359214",
"R. c #3C9314",
"E. c #3E9914",
"W. c #3C9119",
"Q. c #3F981A",
"!. c #41950D",
"~. c #439A0F",
"^. c #448D16",
"/. c #428D1B",
"(. c #4A8D1C",
"). c #439514",
"_. c #499615",
"`. c #459A14",
"'. c #4B9D14",
"]. c #44931B",
"[. c #4B951C",
"{. c #459B19",
"}. c #4B9B1A",
"|. c #539B1B",
" X c #529D1C",
".X c #4CA30F",
"XX c #4BA114",
"oX c #4DA11B",
"OX c #52A415",
"+X c #56AA14",
"@X c #5CAC14",
"#X c #53A41B",
"$X c #5AA61C",
"%X c #57AB19",
"&X c #5AAC1B",
"*X c #5DB214",
"=X c #5EB21C",
"-X c #62B514",
";X c #66B515",
":X c #63B31B",
">X c #66B91A",
",X c #68BB1B",
"<X c #5C8523",
"1X c #4B9821",
"2X c #529922",
"3X c #4EA220",
"4X c #58A521",
"5X c #6FC11B",
"6X c #73C31A",
"7X c #76814C",
"8X c #7A844D",
"9X c #7E8650",
"0X c #828A4E",
"qX c #808750",
"wX c #848B52",
"eX c #898F55",
"rX c #8A9156",
"tX c #8E9459",
"yX c #91945B",
/* pixels */
"@.f K J.%X_.-.~ &.] _.].{ l k E $.@.^ -.>.W.' %.%.L.Y.^.$X>.~ / P.{ N K / T s s ",
"U R E #.L._ T R %.%X Xx T R R ~ -.@.T Q $.U.U.' W #.I.2X X{ =.$.@.M v E $.^ ! K ",
"K M ! P.K.K._ #.`.XX%.V T %.1.P U.$X[.H.` / -.I.*.*. . .@.&.R s  .&.k E ! ! P.U.",
" .s R *.#.J.@X#X'.M.#.%.x I.3XG.T c I.U.S./ E j n n V s M x n s R P.-.E T T #.F.",
"J.L.I.x k `.6X#XR.}.H.].(.>._ $.! ! *.L %.` Y.#.s v T @.>.I.I./.1.;.[.K.N.K.K.R.",
"=XXXD.@.$.XX_.1XK.$.{.'.@X'.^.Y.f d #. XT.H./.:XH.V L K.#X}.).D.T =.].1X#X'.XXK.",
"@XA.).#.H.].} H.K.H.R.{.OXOXOX/.] *.2X'.R.H./.@X$XI.G.R.E.` H.K.@.E M x H.H.R.S.",
"XX#X}.] %.].%.G.U ).D.D.U.).A.D.^ #.H.L.R.{ l ;.) @.K.T.XXV.E.XXL.K N N %.I.D.Y ",
"( c ] B.OX@X].#.$.R.N.~ %.M.R.%.E ~ x H.L.l ] #.}.C.N.R.D.K.{.,X-X'.H.L ).`.K.` ",
").I.>.).'.^.2.Y.).{.T.$.W I.R.M.$.@.K %./.>._.}.OX&XB.S.I.@.#.#X*X@X'.J.}.).{.R.",
";X;X+XL.$.P.I.`.XXN.G.~ k @.'.`.K.D.I.).*X>X'.{.D.{.&XN.H.U ).@X*X@X=X'.U.$.D.U.",
"-X*X).^.D.@.@.R.E.$.W W k -.].#X%XD.%.'.6XOX_ $._ N.oXP.D.J.:X:X^.^.`.K.K.K.U.{ ",
"M.$X^._ S.Y F.H.E.F.D.Y.D.D.W #.=X{.R.@X#XJ.$.*.W.K.P K S.).J.( N R *.1.].2X/.,.",
"P H.>X{.N.S.S.' Q.$.W /.`.H.M *.H.V.).H.#.F.].C.{.K.~ T $.].H.L #.-.@.K ]._.c N ",
"N.).'.'.).N.K.R.R.~ {  X).%.x I.$.%.D.#.I.N.Z.+XA.U T Q ^ K.1...*.F <. X#XJ.( L ",
"R.}.L.J.{.&X+XA.F.K. X X%.S.H.L.D.V.L.L.R.XX=X>XXXE s l N { -.{ ..g X ;.{.U.>.$X",
"L.) L %.D.T.Q.$.D.%.;.[.$XOX`. X&X*XOXR.D.V.#XV.K.V b | F ] ' J.,.,.z R R.%X#X5X",
"R.].] c F.F./ U S.#.j ) $X:XJ.) ^.@X:X).~ ~ H.G.W M b #.L.Y.[.(.[ /.].).:X@X+X).",
"%.*.2X2.'.D.E ~ F.U.^.e.w.$ $ o % w.w.e./ S.D.Y.{ n d ,.4X[.} f g J.'..X~.).`.V.",
"~ j l >. XK T =.@.+.q.> > - 5 6 ; 7 7 , S ,.H.>.G.^ T F O.G m Z H ).+X+X!.~.+X+X",
"/ @.1.4XY.} N ..C + 0 t t t r w w 0 q 0 w 0.w.V E ^ ! Z u.d.f.d.t.+.$XXX*X*X).).",
"#.L %.J.{.P.x | % t r q u q q r q q r 6 6 w 0.| ~ $.F 8.l.c.8X7Xh.J J.R.~.).L.J.",
";X*XXX'. X;.<.0.7 3 0 r r r q 0 q q 0 0 0 0 w A *.P.D s.c.y.k.8Xi.Z 2.).}.I.>.].",
"^.@X6X'.XXL.X., 3 r t y i i u 0 0 0 0 q u u 0 # D *.6.l.7Xl.7X9Xd.5.<.}.J.#.M R ",
"f c [.[.I.(.q.0 y i y v.n.y q 0 2 0 3 y i y 1   $ H 8.c.9XrXeX0Xc.s.O./.].I.s v ",
"I.) L I.( X > q 3 i i n.n.q 3 2 2 8 r r t r = . . $ s.9XwXrXtXwX7Xd.J @.2.1XN v ",
"H. X$X_./.Z 6 u 3 i v.n.v.q 3 2 < 1 1 1 2 3 *   + % z.qXrXrXtXeX7Xs.D -.[./.{ ( ",
"@.) '.:X^.S r b.y y i n.v.q 3 2 1 6 2 1 1 1 < + % k.7XwXrXtXtX9Xx.8.c ' R.'.'.$X",
"D.P R J.1X0.a b.u y y b.i r e 8 1 1 0 8 < = 5 # p.7X9XrXrXyXrX8Xk.G ) !.Z.E.R.{.",
"L.~ { B.[.q.a n.u q y i i 0 e 1 1 1 2 1 = 4 # u.z.8XwXtXtXyX0X7Xu.:.:X-X.XT.S.F.",
"Y.{.'.-X:X<Xp m.y q r q r e 2 < 1 1 1 = 4 # 4.f.7X9XrXtXtXrX9Xl.G 2.+X%X%XZ.T.S.",
"%.V.'.$X;.2.r.v.y 0 3 * * 0 0 1 1 1 < = 4 % p.7X8XwXrXrXtXeX9Xa.O.J.U.'.R.N.S.G.",
"~ H.T.B.%.H.J 9 0 0 u 1 * 2 e < < < < 4 @ 9.j.7XqXwXrXtXrXqXx.7.;.H.K.XXE.S.Y K.",
"_ ).oXXX`.J.2.J % : p u 0 2 2 = < < 4 O 9.h.7X9XwXrXeXeXwX8Xs.H /.#X&X.XE.K.N.' ",
"+X#XY.+XXX'.U.F.} X O O . .       . @ 5.g.z.8X9X8XqXwX9X8Xl.6.L K.*X@XXXR.Z.U.k ",
"`.) I.). X>XA.I.| Z & 3.& O . . . @ 5.s.l.7X7X8X8X7Xc.z.f.t...G.V.,X+XA.R.N.%.@.",
"M.D.1.) [. X:.D Z 4.4.4.& & o o $ 4.9.u.i.i.p.p.p.i.u.J G [ &.$.{.OX!.K.R.L.U.M.",
"H.@.P J.^.>.o.:.+.e.+.o.O.| | [ F B | B m F F H X.O.} } ~ R G.F.$.' `.XX).'.#XM.",
"K.$.U.).R.L.$X$X^.|.[.J.%.%.%.G.%.I.K.P.^ -.W P. X[.$X}.%.@.$.S.$.$.D.XX,X$X}.K.",
"K.~ h L ].#XJ.I L c K *.N B j { K K.T.oXY.x E E l f R c { U.D.@.=.U U.L.'._./.>."
};
