/* XPM */
static char *_ebf67ff5f05459ebb2566a568e288d9T0dbMKSEqpPOWLxH[] = {
/* columns rows colors chars-per-pixel */
"40 40 155 2 ",
"   c #15120F",
".  c #171719",
"X  c #231F1C",
"o  c #28231F",
"O  c #211F20",
"+  c #292727",
"@  c #312B28",
"#  c #3C3733",
"$  c #3C3B3A",
"%  c #473D38",
"&  c #45402B",
"*  c #47433A",
"=  c #4D453A",
"-  c #51453B",
";  c #081B5C",
":  c #22284F",
">  c #223145",
",  c #031F68",
"<  c #011C7A",
"1  c #0E2361",
"2  c #453F45",
"3  c #12436A",
"4  c #1F4D7B",
"5  c #384160",
"6  c #2C5961",
"7  c #494846",
"8  c #574A40",
"9  c #5B4D44",
"0  c #574F49",
"q  c #5C524A",
"w  c #454D57",
"e  c #585758",
"r  c #66574B",
"t  c #62584E",
"y  c #6B5C4E",
"u  c #625A52",
"i  c #6D5E52",
"p  c #735F52",
"a  c #7C754B",
"s  c #666058",
"d  c #716255",
"f  c #75675A",
"g  c #7D6B5C",
"h  c gray40",
"j  c #6C6965",
"k  c #776D64",
"l  c #796E65",
"z  c #76706C",
"x  c #6A7071",
"c  c #777779",
"v  c #7D7D7F",
"b  c #93743A",
"n  c #856844",
"m  c #98744D",
"M  c #897555",
"N  c #847263",
"B  c #877868",
"V  c #84786B",
"C  c #8B7B6E",
"Z  c #907D6D",
"A  c #897E75",
"S  c #9C8958",
"D  c #B48D5C",
"F  c #BB8E5C",
"G  c #AEAA5E",
"H  c #93846F",
"J  c #9E9368",
"K  c #8E8176",
"L  c #968273",
"P  c #9D8875",
"I  c #A38E7B",
"U  c #B19D77",
"Y  c #B2AF6F",
"T  c #A5A27E",
"R  c #C79F69",
"E  c #CDA570",
"W  c #F3BB77",
"Q  c #F1BF79",
"!  c #003695",
"~  c #013F97",
"^  c #0D5B84",
"/  c #126883",
"(  c #10738B",
")  c #217891",
"_  c #0059AF",
"`  c #0169A3",
"'  c #017AAB",
"]  c #0063B5",
"[  c #017EC5",
"{  c #6684A2",
"}  c #768CA3",
"|  c #018ACC",
" . c #019CD3",
".. c #01A6D1",
"X. c #01AEDE",
"o. c #02B0D8",
"O. c #898684",
"+. c #968C84",
"@. c #9B9A85",
"#. c #95918C",
"$. c #99918B",
"%. c #8F8F90",
"&. c #999592",
"*. c #9B9A9A",
"=. c #A19184",
"-. c #A09E9E",
";. c #BDA382",
":. c #B7B58A",
">. c #B0A796",
",. c #BBA992",
"<. c #A5A4A4",
"1. c #AAA9A9",
"2. c #B0AFAE",
"3. c #BBB5A8",
"4. c #B4B3B4",
"5. c #BEBDBD",
"6. c #CAA782",
"7. c #DEBB80",
"8. c #DFB78E",
"9. c #C8B79F",
"0. c #CDBEA7",
"q. c #C4BCB4",
"w. c #E2C186",
"e. c #F6C885",
"r. c #F7CD8F",
"t. c #FFD58C",
"y. c #E0C09A",
"u. c #F8D79C",
"i. c #D8C6A4",
"p. c #D8D7AA",
"a. c #C4C2BD",
"s. c #D1C5B0",
"d. c #E5CBA0",
"f. c #F5D9A7",
"g. c #EFD9B4",
"h. c #FEE5B5",
"j. c #FFE8B6",
"k. c #A2BFC6",
"l. c #BEC5C6",
"z. c #CCC9C4",
"x. c #CCCCCC",
"c. c #D6CFC8",
"v. c #D1D1C3",
"b. c #DBD7CF",
"n. c #D5D4D4",
"m. c #DCDBDB",
"M. c #E2E2DF",
"N. c #E5E4E4",
"B. c #E8E6E3",
"V. c #ECECEC",
"C. c #EFEFF0",
"Z. c #F6F6F6",
"A. c #F7F7F8",
"S. c #F7F8F8",
"D. c #F9F9F9",
/* pixels */
"D.Z.D.A.Z.D.Z.D.Z.D.Z.D.A.Z.D.Z.D.Z.D.Z.Z.D.Z.D.Z.D.Z.D.Z.Z.D.Z.D.Z.D.Z.Z.D.Z.D.",
"S.S.D.A.Z.D.Z.D.A.D.A.D.D.Z.D.D.D.Z.D.Z.Z.D.D.D.D.D.A.A.D.Z.D.Z.D.Z.D.Z.Z.D.D.D.",
"Z.S.A.D.A.Z.D.Z.S.Z.S.Z.Z.D.Z.D.Z.S.Z.D.D.D.D.Z.D.Z.D.A.D.D.Z.D.Z.D.Z.D.D.Z.D.C.",
"A.A.D.A.Z.D.Z.D.Z.D.D.Z.D.Z.A.Z.S.Z.D.z.<.n.D.D.D.D.Z.D.D.Z.D.Z.D.Z.Z.D.Z.D.D.D.",
"D.Z.D.Z.Z.D.Z.D.Z.Z.Z.D.S.Z.S.Z.D.D.x.l B B x.D.Z.D.Z.D.Z.Z.D.Z.D.D.D.Z.D.D.Z.D.",
"Z.D.Z.D.D.Z.D.Z.D.Z.D.Z.D.S.Z.S.V.1.l Z I P *.Z.D.Z.D.Z.Z.D.Z.D.Z.D.Z.D.D.Z.D.Z.",
"Z.D.Z.D.D.Z.D.Z.D.Z.D.Z.D.D.Z.Z.c . t Z $.I A m.D.Z.D.Z.Z.Z.Z.D.Z.D.Z.D.D.Z.D.Z.",
"D.Z.D.D.Z.D.D.D.Z.D.Z.D.Z.Z.D.5.+ O i $.B.q.Z q.D.D.Z.Z.D.Z.D.Z.D.Z.D.Z.Z.D.Z.D.",
"D.D.D.D.Z.D.Z.D.Z.D.Z.D.Z.Z.S.v   + d *.x.q.Z #.Z.D.Z.D.Z.A.A.A.D.Z.D.Z.Z.D.Z.D.",
"C.D.Z.D.D.Z.D.Z.D.Z.D.Z.Z.D.C.e . % y +.%.$.Z N 2.*.<.D.Z.A.A.D.Z.D.Z.D.D.Z.D.Z.",
"D.Z.D.Z.Z.D.Z.D.Z.Z.Z.D.Z.Z.N.2 @ % 9 A n.<.N N 9 9 A D.A.A.A.A.D.Z.D.Z.Z.D.Z.D.",
"D.Z.D.Z.D.D.Z.D.Z.D.Z.D.Z.O.e % 9 - 9 p $.C g N r 9 -.D.A.A.D.Z.D.Z.D.Z.Z.D.Z.D.",
"Z.D.Z.D.D.Z.D.Z.D.Z.D.D.V.z d f r - - - - 9 d N - 0 n.D.Z.D.Z.D.Z.D.Z.D.Z.Z.D.Z.",
"Z.D.Z.D.D.Z.D.Z.D.Z.D.Z.D.$.N N y % > 3 ^ / 6 q = #.A.Z.Z.D.D.D.Z.D.Z.D.D.Z.D.Z.",
"D.Z.D.Z.Z.D.Z.D.Z.D.Z.D.D.z.f l % 1 ~ ] | X.X.( x C.Z.D.Z.Z.D.Z.D.Z.D.Z.Z.D.Z.D.",
"D.D.Z.D.Z.Z.D.Z.D.Z.D.Z.D.Z.1.w ; < ! _ [  .X...k.D.D.Z.Z.D.Z.D.Z.D.Z.D.D.Z.D.Z.",
"Z.D.Z.D.D.Z.D.Z.D.Z.D.Z.D.D.Z.{ < < 5 4 _ ` ' ) l.D.D.Z.S.D.Z.D.Z.D.Z.D.D.Z.D.Z.",
"D.Z.D.Z.Z.Z.Z.D.Z.D.D.Z.D.D.D.} , : p N 7 k s d c.D.S.S.D.Z.D.Z.D.Z.Z.Z.Z.Z.Z.D.",
"D.Z.D.Z.Z.D.Z.D.Z.D.Z.D.D.Z.D.4.m F i t f L f z B.D.Z.D.D.Z.D.Z.D.Z.D.Z.Z.D.Z.D.",
"Z.D.Z.D.D.Z.D.Z.D.Z.D.Z.Z.D.Z.a.D W 0.4.0 H #.1.S.Z.S.S.Z.D.Z.D.Z.D.Z.D.D.Z.D.Z.",
"Z.Z.Z.D.D.Z.D.Z.D.Z.D.Z.Z.D.Z.9.E W y.B.#.s.v.q.D.Z.D.Z.D.Z.Z.D.Z.D.Z.D.D.Z.D.A.",
"D.Z.D.Z.D.D.Z.D.Z.D.Z.D.D.Z.S.s.Q Q e.8.y.f.y.q.Z.D.Z.D.D.Z.D.Z.D.Z.D.Z.Z.D.Z.D.",
"Z.D.D.D.Z.Z.D.Z.D.Z.D.Z.Z.D.Z.b.T R r.r.u.h.g.z.D.Z.D.Z.Z.D.Z.D.Z.D.Z.A.D.Z.A.Z.",
"Z.D.Z.Z.D.Z.D.Z.D.Z.D.Z.Z.D.Z.Z.x.,.W u.f.j.i.x.D.Z.D.Z.D.D.Z.D.Z.D.Z.D.D.Z.D.Z.",
"D.Z.D.Z.Z.D.Z.D.Z.D.Z.D.D.Z.D.Z.D.M.U w.u.d.>.V.D.D.Z.D.D.D.D.Z.S.D.S.Z.Z.S.Z.D.",
"D.Z.D.Z.Z.D.Z.D.Z.D.Z.D.D.Z.D.Z.D.D.z.a J B m.D.Z.D.Z.D.Z.Z.D.Z.S.Z.S.D.D.S.A.D.",
"Z.D.Z.Z.D.Z.D.Z.D.Z.D.Z.Z.D.Z.D.Z.Z.:.G T g V.Z.D.Z.D.D.Z.D.Z.D.Z.S.Z.D.D.Z.S.Z.",
"Z.Z.D.D.D.Z.D.Z.D.Z.D.Z.Z.D.Z.D.D.M.Y G M @.n.S.D.D.Z.Z.Z.D.Z.D.Z.Z.Z.D.A.A.D.A.",
"D.Z.D.Z.Z.D.Z.D.Z.D.Z.D.S.Z.S.Z.D.v.G b :.p.>.B.Z.D.Z.D.D.Z.D.Z.D.Z.D.Z.Z.D.Z.D.",
"Z.D.Z.D.D.Z.D.Z.D.Z.D.Z.S.S.S.S.D.3.b S p.p.S ,.Z.Z.Z.D.Z.D.Z.D.Z.D.Z.D.D.D.D.Z.",
"Z.D.Z.D.D.Z.D.Z.D.Z.D.Z.S.D.Z.S.V.;.D & * = n T Z.Z.D.Z.Z.D.Z.D.Z.D.Z.D.D.Z.S.Z.",
"D.Z.D.Z.Z.D.Z.D.Z.D.Z.S.D.Z.Z.Z.C.6.R o X $ N a.S.D.Z.Z.D.Z.D.Z.D.Z.D.Z.Z.D.Z.S.",
"D.Z.Z.Z.Z.D.Z.D.Z.D.Z.D.D.Z.D.Z.D.3.+.V u #.B.C.S.S.S.S.D.Z.D.Z.D.Z.D.Z.Z.D.Z.Z.",
"Z.D.Z.D.D.Z.D.Z.D.Z.D.Z.Z.D.Z.D.D.D.C.j 7 j A.S.D.S.S.D.Z.D.Z.D.Z.D.Z.D.D.Z.D.Z.",
"D.Z.D.Z.Z.D.D.D.Z.Z.Z.D.D.Z.D.Z.V.B.n.u   O *.N.B.Z.A.D.D.Z.D.Z.D.Z.D.Z.Z.D.D.D.",
"D.Z.D.Z.Z.D.Z.D.Z.D.Z.D.Z.Z.Z.m.5.1.<.j # # h 1.2.x.V.D.Z.Z.D.Z.D.Z.D.Z.D.D.Z.D.",
"Z.D.Z.D.D.Z.D.Z.D.Z.D.Z.Z.Z.Z.Z.B.M.n.n.x.x.n.m.N.C.Z.Z.Z.D.Z.D.Z.D.Z.D.D.Z.D.Z.",
"Z.D.Z.D.D.Z.D.Z.D.Z.D.Z.D.D.Z.D.D.D.Z.D.D.D.D.D.D.A.D.A.Z.D.Z.D.Z.D.Z.D.D.Z.D.Z.",
"D.Z.D.D.Z.D.Z.D.Z.D.Z.D.D.Z.D.Z.D.Z.D.D.D.D.Z.D.Z.A.Z.A.D.Z.D.Z.D.Z.D.Z.Z.D.Z.D.",
"D.D.D.Z.Z.D.Z.D.Z.Z.Z.D.Z.Z.Z.Z.D.Z.D.Z.D.D.Z.D.A.A.A.A.Z.Z.D.Z.D.D.D.Z.Z.D.Z.D."
};
