/* XPM */
static char *result[] = {
/* columns rows colors chars-per-pixel */
"40 40 229 2 ",
"   c #181F11",
".  c #20160D",
"X  c #2D1B15",
"o  c #3A1916",
"O  c #09380E",
"+  c #292611",
"@  c #2C2D1A",
"#  c #3A2C17",
"$  c #34231A",
"%  c #39251A",
"&  c #273815",
"*  c #363E12",
"=  c #363A23",
"-  c #441618",
";  c #441B1C",
":  c #4B1A1C",
">  c #521C1E",
",  c #4A251D",
"<  c #53241F",
"1  c #5D201F",
"2  c #473D1A",
"3  c #4D1D22",
"4  c #551E21",
"5  c #591F23",
"6  c #452020",
"7  c #542222",
"8  c #5C2123",
"9  c #5A2926",
"0  c #632324",
"q  c #652926",
"w  c #632529",
"e  c #6C2729",
"r  c #692928",
"t  c #6D292C",
"y  c #752A2B",
"u  c #742A2D",
"i  c #6A372C",
"p  c #78322C",
"a  c #752B30",
"s  c #7A2D30",
"d  c #7F3433",
"f  c #05450C",
"g  c #09470C",
"h  c #06490D",
"j  c #0A4D0C",
"k  c #1B440C",
"l  c #0B530C",
"z  c #0D5B0D",
"x  c #18570C",
"c  c #135C0C",
"v  c #084611",
"b  c #064B11",
"n  c #0B4D12",
"m  c #1A4515",
"M  c #0C5312",
"N  c #0F5D11",
"B  c #145211",
"V  c #1B5416",
"C  c #145C12",
"Z  c #1A5D15",
"A  c #115E18",
"S  c #22480C",
"D  c #2C4411",
"F  c #254917",
"G  c #3E4919",
"H  c #245216",
"J  c #265A15",
"K  c #2B5C15",
"L  c #255419",
"P  c #2C5419",
"I  c #2B5C19",
"U  c #365917",
"Y  c #15630D",
"T  c #1B640D",
"R  c #176B0D",
"E  c #1C6B0E",
"W  c #1B710E",
"Q  c #1B7A0C",
"!  c #146312",
"~  c #1C6412",
"^  c #176C13",
"/  c #1C6C13",
"(  c #1B6418",
")  c #176C19",
"_  c #1D6C18",
"`  c #1C7312",
"'  c #1A7416",
"]  c #1E7A12",
"[  c #226B0F",
"{  c #23730E",
"}  c #28710D",
"|  c #237C0E",
" . c #2B7B0E",
".. c #226412",
"X. c #2D6216",
"o. c #236B14",
"O. c #2A6D15",
"+. c #2B651A",
"@. c #236B1A",
"#. c #366419",
"$. c #336C1A",
"%. c #247413",
"&. c #2A7514",
"*. c #247B13",
"=. c #2B7C14",
"-. c #247319",
";. c #2B751A",
":. c #277A19",
">. c #2C7C19",
",. c #377617",
"<. c #327C13",
"1. c #327C1B",
"2. c #3A7D1A",
"3. c #324B23",
"4. c #3C4329",
"5. c #384B2A",
"6. c #385626",
"7. c #464319",
"8. c #457C1B",
"9. c #537B17",
"0. c #43452F",
"q. c #47582F",
"w. c #4A5C37",
"e. c #6F4A31",
"r. c #4E6336",
"t. c #54653C",
"y. c #58673A",
"u. c #566842",
"i. c #5D6C42",
"p. c #636E43",
"a. c #667444",
"s. c #697547",
"d. c #6E7A4A",
"f. c #727D4B",
"g. c #757F51",
"h. c #832F31",
"j. c #853234",
"k. c #8B3938",
"l. c #943C3A",
"z. c #8D493D",
"x. c #96463A",
"c. c #97553E",
"v. c #904F42",
"b. c #9C5942",
"n. c #985845",
"m. c #A24D43",
"M. c #A45445",
"N. c #A95147",
"B. c #A45A48",
"V. c #A8644B",
"C. c #AC6D4D",
"Z. c #B0614F",
"A. c #AF7756",
"S. c #B17452",
"D. c #2C820D",
"F. c #2F890D",
"G. c #348B0D",
"H. c #3B8B0F",
"J. c #3D930E",
"K. c #258112",
"L. c #2C8214",
"P. c #2E8916",
"I. c #2F831A",
"U. c #338414",
"Y. c #398515",
"T. c #348B14",
"R. c #3B8C14",
"E. c #34821A",
"W. c #3A831A",
"Q. c #348A19",
"!. c #3B8C1A",
"~. c #369013",
"^. c #3D9214",
"/. c #3D931A",
"(. c #40950E",
"). c #449A0E",
"_. c #418516",
"`. c #428D15",
"'. c #428D1A",
"]. c #548E19",
"[. c #439315",
"{. c #499717",
"}. c #459A14",
"|. c #4C9D15",
" X c #44941A",
".X c #4B941B",
"XX c #45991B",
"oX c #4B9C1A",
"OX c #509C15",
"+X c #56911D",
"@X c #529D1B",
"#X c #4DA10F",
"$X c #5EB20E",
"%X c #46A113",
"&X c #4DA114",
"*X c #4CA11A",
"=X c #52A414",
"-X c #55AB14",
";X c #59AC14",
":X c #54A41B",
">X c #5AA719",
",X c #5BAC1B",
"<X c #5EB214",
"1X c #5FB31A",
"2X c #62B113",
"3X c #67B716",
"4X c #64B41B",
"5X c #459320",
"6X c #4A9722",
"7X c #549D24",
"8X c #59A622",
"9X c #57AB20",
"0X c #61AC22",
"qX c #65B421",
"wX c #70C31B",
"eX c #75814B",
"rX c #7B844D",
"tX c #7E894D",
"yX c #7C8851",
"uX c #81894E",
"iX c #858C53",
"pX c #848A55",
"aX c #8A8F55",
"sX c #879055",
"dX c #8B9156",
"fX c #8D9359",
"gX c #91955A",
"hX c #B6815D",
"jX c #BE8863",
/* pixels */
"R.%.1.o.%./.;.~ ! l C !.|.<X1XD.! T 5X6XoX|.,XqXU.1.=.[.&XG.~ l |  X!.^.oX|.J.:X",
"E.*.Q.%.%.=. .U.Y.=.@.Z &.|.1XH.R W.7XO.R.{.D.[.<.o.o.L.~.%.h h =.;.o.W.R.|.0XR.",
"E.=.!.!. X-X=X-X1XU.Y ~ O.'.&.}.:XY.B Z U.W.j o.>.1.[.*X[ ^ M h E.o.c R.}.T.R.L.",
"'.>.~ ..'.;X}.F.*XL.*.=.1.!. .T.-X@X~ Y P.<.l ! <.=X<X{.~ o.C l Y.U.U.!.R.=.%.P.",
"'.C h B o.=.E.=.U.=./.z Y U.[.(.J.|.^.!./.P._ ` =X3X3XG.=.P.T.R.}.).R.o.E.P.c -.",
"[.E.1.@.h v V o.E.=.!.L.-.;.W.{.}.[.R.| K.W _ &.3X3X$X(.}.[.|.=X2X3XR.=.%.!.&./ ",
"8X'.! ! f O O V ..E.T.&.....[.!.T.T R.T.| *.T.Y.=X2X<X&X:X.X} >X4X;X).G.P.T.L.=.",
"[ ;.h ) ( O m Z Z *.U.S 2.,.^.G.T.L.^.^.%X&X'.Y.%XJ.<.Y.Y.0XOX[.Y.[.[.U.!.>.o.~ ",
"<.'.c Z @.Z v V j %.R.<.>X2.2.!.~.^.*XU.}.|.>X<X{.` Y c R.|.<X2X}.} x C ;.1.O.g ",
"8X:Xo.@.B @.x @.o.!.oX X<.x c =.D.G.J.U.%.H.+X9.U S H X.<.{.R.>X;Xo.N _ @.%.1..X",
"[ W W &.~ R =.2.I X.K K J K U.T./.T.[.:X,.7.7.< 4 7 , @ D 8.'.`.>X6X%.~ =.T.oX|.",
"R *.~.^.'.!.'.#.r.y.y.y.6.$.9X6X%.XX=XOX7., 0 0 > 5 8 : ; # G ].:X%.%.U.:X<X}.R.",
"^.}.}.L.=.Y.X.q.g.pXpXeXp.P &.=.E .X+X7.7 0 0 1 8 5 0 1 < 0 < * 2.R <.'.R.H.[.|.",
"-X,X=X{.`.E.P 5.f.iXy.s.g.6.$.T.!.$.7.q 0 0 1 0 0 e e s r 0 0 , D o.1.1.o.1.Y. X",
"`.<.:X=XR.2.P q.yXaXp.f.g.r.K :.'.D < r 8 8 0 8 5 8 0 s e e y e , & o.o.c R.@X&.",
"E E.^.T.=...6.d.aXaXdXiXg.p.& n P # < 0 q 0 7 4 : : 0 h.k.x.b.m.d , +.@.>./.[...",
"T.Q.R.>.:.~ 6.f.aXfXfXiXtXf.5.  + o 3 4 w 5 > - - t j.l.m.N.N.N.m.i D >.!.R [.oX",
"%.z ' ' ` ( 3.d.uXgXgXdXiXtXy.& X o o : 8 4 : - r k.l.x.N.Z.M.m.m.v.G +X=.M T :X",
"U.c N ] *.>.P y.tXdXgXdXiXtXeXy.4.$ ; 7 8 4 4 : k.k.l.x.B.b.c.x.B.b.7.'.%.M ~ R.",
"^.E.c L.=.%...q.f.aXgXdXiXuXrXf.u.@ 6 4 8 w 5 4 s h.l.x.c.A.hXC.b.V.7.U.!.!.T.-X",
"~.^.{.%XG.R.W.3.a.uXfXgXdXiXtXf.s.5.o 7 7 7 4 5 s j.k.z.S.jXhXC.V.n.G Q.=.}.=XwX",
"Q.D.&X-X4X,X[ F r.eXaXdXgXdXpXrXf.t.@ , : 7 5 5 u j.p b.A.S.C.C.b.e.X.U.T.D.Y.H.",
"^.%X-XG.(.{.U.8.6.a.pXaXfXdXiXpXf.s.5.o ; 4 5 5 u s p V.S.C.C.B.z.2 E.T.^.^.{.^.",
"}.;X#X~.Q.=.U.{.X.t.f.iXdXdXaXpXrXf.u.@ 6 4 3 5 u u r n.C.A.A.n.2 X.K.K.=.1.} oX",
"F.J.`.=.c l [ {.+X6.a.tXsXdXfXaXpXrXs.5.% 4 - 4 t a w t v.n.v.7.L ` Q ] :.;.o.T.",
"%X-X`.5XW.{.|.[..XX.r.eXtXsXdXsXiXtXeXi.5.$ 3 o w t t r q , 2 8.R.Q K.*.~ / Q.!.",
"[.:X!.W.`.&X&X|.oX`.U r.a.eXyXpXiXtXeXd.u.4.% X 3 5 w t 9 = 3.#.+X8X/./.T.*.! c ",
"l U.E.^.|.}.^.[. .R._.#.U 6.u.t.y.u.t.t.u.w.=   . X o % 0.w.w.3.F K O.W..X/.Y Y ",
"l ` U.=.E.L.=.Q.{ oX4X,.;.X.J J I K L V H F L O F k S I #.I m L L v B x c /.T.I.",
"1.I.L.>.l f Y R.:X{.1.~ O.T.).XX!. XQ./ U.`.o.o.!.T.R.oX/.%.~ _ ^ C &.1.>./.T./ ",
"%./ z >.Y Z &.G.[.'.>.Y =.,X3X^.W L.T.U.[.|.&.>.:.Y *.] ' K.!.:./ ` 1.E.{ K.` Y ",
"@.l A R *.>.E.[ } 2X*XP.L.^.G.K.` ] K.P.U..XW.o.n f M ^ ] ` / ! :.%.( E.%.Q./ -.",
"'./ / *.I.=.=.`.>X3X&X!.=.R.~.Q.=.` *.Q.R.&X}.l b f n *.*.R :.=.W o.1.{.R.=.U.E.",
"O.*.P.:.Y U.XX[.`.;X:X&X XR.Q.~ j =. X-.%.K.~.I.) ! %.T.XX!.^.R.XXR.<.oX=.` Q.!.",
"z I.' l C %.U.~ l [ R.:XU.:.` %.<.:X&./ h ^ ' o._ :.:.E.T. .=.U.!.'.@X@X/ ] L.1.",
"1.=.Y ! :. XP.R ~ -.U.U.E c / ^.4X<.l ) / @.` !.*.Y ' =.T.R.o./ &.,.8XW.O.:.` -.",
"oX!.!.=.!.<.%.C M @.E.R.!.=.`.}.H.o.! ! '.>.W R.@XoXQ.K.Q >.1.O.@.Z Z / -.M h :.",
"U.U.^.=.O.M ~ ~ c >.o.{ }.4X|.{.D.:.=.T  XXX*.C ..1.=.] ] Y v v n ! h C l B c &.",
"~ T !.=.C %. .[.{.%.l W 4X3XoXR.XXT.@X.X&.{ ` ~ ( &.} L.*.XX} n b %.=.oX X{.!.o.",
"7XZ ;.[.{.U.-X4XJ.L.I.U.|.Y.6XL.U.|.OX;X|.@X1.f j `.:XG.R.@X4X&.A { /.oX`.R.%.! "
};
