/* XPM */
static char *result[] = {
/* columns rows colors chars-per-pixel */
"40 40 210 2 ",
"   c #2D0E0E",
".  c #300C0E",
"X  c #2A1512",
"o  c #341314",
"O  c #163A11",
"+  c #3C2916",
"@  c #3C231A",
"#  c #2B3916",
"$  c #383916",
"%  c #3E2C20",
"&  c #393924",
"*  c #3B3A25",
"=  c #46181B",
"-  c #451B1B",
";  c #541F1E",
":  c #47271C",
">  c #432C1D",
",  c #43371E",
"<  c #5D3F1D",
"1  c #4E1C21",
"2  c #541E22",
"3  c #5C1E22",
"4  c #4C2221",
"5  c #472D20",
"6  c #552322",
"7  c #5D2223",
"8  c #5D2A26",
"9  c #423423",
"0  c #4A3726",
"q  c #622425",
"w  c #692226",
"e  c #632528",
"r  c #6A2629",
"t  c #6B292A",
"y  c #74292E",
"u  c #71302C",
"i  c #0B460B",
"p  c #064A0B",
"a  c #0B4C0E",
"s  c #0C530C",
"d  c #0E5C0E",
"f  c #12560E",
"g  c #18520F",
"h  c #135D0C",
"j  c #185F0D",
"k  c #074911",
"l  c #134713",
"z  c #075312",
"x  c #0C5313",
"c  c #0D5912",
"v  c #125515",
"b  c #135B12",
"n  c #1B5911",
"m  c #274C18",
"M  c #3C431C",
"N  c #295715",
"B  c #245B15",
"V  c #2B521B",
"C  c #375718",
"Z  c #33561E",
"A  c #345B1D",
"S  c #14630D",
"D  c #1B620D",
"F  c #156C0E",
"G  c #1C6B0E",
"H  c #16720E",
"J  c #1C730E",
"K  c #156413",
"L  c #1B6412",
"P  c #1C6B12",
"I  c #196B17",
"U  c #167213",
"Y  c #1D7313",
"T  c #1E7A12",
"R  c #22640E",
"E  c #226C0E",
"W  c #22730E",
"Q  c #2B740D",
"!  c #237C0D",
"~  c #2A7A0E",
"^  c #216516",
"/  c #2E6112",
"(  c #236D14",
")  c #296D15",
"_  c #23641B",
"`  c #2B6319",
"'  c #266E19",
"]  c #286E1B",
"[  c #35641B",
"{  c #386318",
"}  c #326D1A",
"|  c #3C691B",
" . c #237413",
".. c #2A7414",
"X. c #247C13",
"o. c #2B7C14",
"O. c #237219",
"+. c #2B7419",
"@. c #237818",
"#. c #2C7B1A",
"$. c #337D15",
"%. c #3E7C17",
"&. c #32761B",
"*. c #337C1A",
"=. c #354F2A",
"-. c #355523",
";. c #3C5827",
":. c #525718",
">. c #427819",
",. c #51711E",
"<. c #474829",
"1. c #5A4725",
"2. c #44592D",
"3. c #57582B",
"4. c #464B31",
"5. c #455331",
"6. c #4A5B34",
"7. c #525C39",
"8. c #6E482F",
"9. c #4B6237",
"0. c #54653D",
"q. c #5C6C3E",
"w. c #556942",
"e. c #5D6D41",
"r. c #626E44",
"t. c #6B6C43",
"y. c #647344",
"u. c #6A7647",
"i. c #6E7C49",
"p. c #71774A",
"a. c #737D4B",
"s. c #873937",
"d. c #923F3D",
"f. c #96463F",
"g. c #9D4441",
"h. c #2B830E",
"j. c #2C860D",
"k. c #32850F",
"l. c #348B0E",
"z. c #3A920D",
"x. c #268213",
"c. c #2C8313",
"v. c #2E8A12",
"b. c #2C8218",
"n. c #2F8A18",
"m. c #338414",
"M. c #3A8615",
"N. c #348A14",
"B. c #3A8D14",
"V. c #348319",
"C. c #39851B",
"Z. c #358919",
"A. c #3B8C1A",
"S. c #369115",
"D. c #3D9314",
"F. c #3F9912",
"G. c #3D921A",
"H. c #3B8D21",
"J. c #43950F",
"K. c #44990D",
"L. c #489F0E",
"P. c #428D14",
"I. c #42851D",
"U. c #49861C",
"Y. c #428D1B",
"T. c #439415",
"R. c #4A9714",
"E. c #439A13",
"W. c #4A9C15",
"Q. c #43941A",
"!. c #4A951A",
"~. c #459A1C",
"^. c #4B9B1A",
"/. c #529D17",
"(. c #539F1D",
"). c #54A70D",
"_. c #47A013",
"`. c #4DA215",
"'. c #4EA21B",
"]. c #53A515",
"[. c #56AB14",
"{. c #59AC15",
"}. c #53A41B",
"|. c #5AA519",
" X c #56AA19",
".X c #5CAB1B",
"XX c #5DB215",
"oX c #5EB11C",
"OX c #60A81C",
"+X c #62B414",
"@X c #63B916",
"#X c #6BBD15",
"$X c #63B319",
"%X c #6ABA1A",
"&X c #468B22",
"*X c #499622",
"=X c #519624",
"-X c #5BA722",
";X c #62AD21",
":X c #6DC216",
">X c #74C518",
",X c #76824D",
"<X c #7C844E",
"1X c #7A8651",
"2X c #7C8652",
"3X c #808A4E",
"4X c #848C53",
"5X c #8A9156",
"6X c #8D9359",
"7X c #92965B",
/* pixels */
"=XZ.D  .o.Y S E T.K.Z.#.P f n ] ] _ n S ~ B.~ T.R.B.F.N.S.K.[.`.B.$.Y.N.! W V._ ",
"c.X.D ( Z.o.o.Q. X].R.k.j.V.) n I k k K *.G  .#.j.l.z.D.T.`.W.^.`.XX|.!.G.S.V.s ",
"#.c.Q.A.c.X.! ~.m.J.XX@X[.].P.) *.Y F o.n ` Q.}.{.T.S.~.M.^.M.( m.W.@X.XB.N.c.b.",
"! T.E.W Y x.T X.#.V.k.P.].].].|.'.v.S.U.Z V R !.|.E.! b.( Y #.V.+.W S.E.T.E.F.v.",
"/.T.B.o.X.c.T T X.W G !.].Y.^.XXXXK.R.| 9.=.k s  .V.T T b.H @. .T Y Y ..Y.`.E.~ ",
";XQ o.H.! v.j.T T N.R..X^.Y.P.m.{.:X%.-.i.0.m #.o.Y Y X.j.x.n.v.T T F P !.E.Q.n.",
"Q.&._ j b.W.F.X.@.~.R.OXm.m.N.S.E.%XU.2.1Xu.[ C.X.N.N.N. .x.o.X.n.v.N.Q.Q.!.Y.*X",
"E ) &.L ..N.N.Z.G v.}.W.X.b.}.v.h +.A q.4Xa.-.L x.Q.G.B.h S b.X.x.~.Q.G R ) L P ",
"m.Z.A.Z.N.c.S.E.S.! G.X.K V.N.o.b _ -.i.6X2X9.B !.V.o.^.$.S V.n.H J '.+.R +.P b ",
"L o.n.o.b.T c.F.oXE.j.N.C.o.O...+.i -.t.t.t.2.| I.s P T.W./.T.! x.N.E.}.Y.T.V.^ ",
"f m.c.+.O.T J l.[.:X).E.m.K a j *.V & , @ @ + # l c +.G.E.{.%Xz.c.N.~ $...o.&XO.",
"o.M.E.m.o.v.E.{.K.]. XN.( a k v m , 8 7 6 ; : : m B ) Z.F.z. XD.x.l. .p ' v L V.",
"B.T.E.A.P m.].XXB.W N.W ( ' B O + q t 7 q ; ; 7 : , <.} X.x.! n.P N.B.Z.*.b K O.",
"+.Z.! b.@.b.W o.N.N.B.S.B.}.,.6 t r t 3 q ; 3 r 7 r 8., f X.x.N.S m. XE.@.X.X.G ",
"f @.x.X.@.o.O. .G.! j.S.D.>.< y y w t r q ; 7 r q q s.8.C n.v.x.P o..X@Xh.h K L ",
"b P T K O.( o.*.A.o.m.o.&.$ y y r w r r r ; q q ; q s.f.1.o.Z.o.X.G N.[..Xf s ^ ",
"x K U c #.V.h !.B.! G.h l > y q 7 q w w r 6 q e = 6 s.g.1.C.M.$.C.o...m.B.T.=X*.",
"z z c v  .F.M.J.].G M.&.O : r 2 ; q w w e 6 7 7 o   q d.1.P.-XY.P..X^ s L $.*.( ",
"I z z x o.T.;X].$X!.~ -XN 5 e o . - r e 4 4 1 =   o 1 s.1.$.h *.A.(.M.b P K ) m.",
"T Y F G R.R.A.^.M.M.P A.} > = o 4 X % 0 4.0 & X @ - 6 u :.OX$.G o.b.V.X.@.+.) O.",
"@.x.x.'.`.n.N.F.o.s d U g + - 2 9 & =.y.,Xy.w.& * : 3 8 C $X].P.O.J X.m.@.F s c ",
"O.@.c.S.F.v.h.m.h.m.D.B.) # 6 : <.r.;.1X7X2Xe.5.7.9 7 8 C l.P.N.o.X.n.o.b.x.X.P ",
"J J G.D.F.c.b.B.! x.S.N.m.[ + : 7.a.p.f.7X7X,Xu.r.9 1 > N o.I M.M.Q T.Q.B.X.b.N.",
"T. X^.S.V.W S.R.S b X.B.!.>.M + 7.a.a.4X7X7Xa.a.e.* 4 > +.@.F }.$X%X^.S.m.b.N.T.",
"A.B.m.*.*...B.^.+.a ~ !.V.L # * y.,X3.i.7X5X3.y.y.4.@ M ( ! E.W.).[.W P P X.n.l.",
"Z.s O.#.m.T.R.$.P.%.}.m.) m.{ =.r.,X<X5X7X7X3X2Xa.5.# :...h.}.).%X].B.W Y ~ N.N.",
"G s +.G N..X(.E Y.;XY.(  .v.C.Z q.,X2X6X6X7X7X5Xa.5.V =XI.Y.P..X}.W.Q.N.c.j.E.].",
"L #.n.Y o....X|.R.$XQ $.Y.v. .V 0.y.,X4X5X5X7X6X,X5.}  .S T P $. XR.M.v.D.W.E.L.",
"h c.j.c.W ..).>X#X#X/.^.B.E.M.A 0.e.,X1X4X6X7X5X,X2.&XG.X.Y T N.S.X.Q.W.`.`.W.W.",
"P._.[. X{.{.+X+X).+X].E &.Y.P.;.0.y.a.4X5X6X6X4Xa.2.>.R.M.@.U H H j.F.T.D._.F.l.",
"M.T.W.T.l.z.K.L.{..X.XR.*.+.o.m 0.u.,X5X6X7X5X2X,X;.} ) Q.Z.H v.l.z.W.Q.#.! X.J ",
"h G P ..B.E.W.[.R.$.Y.;X$.p #.A 0.y.,X4X7X5X4X2Xa.;.%.&.*Xo.v. XoX`.o.Q.R.B.o.m.",
"].T.o.Q B.K.;X>X/...X.G A.J m.` ;.e.,X2X5X4X3X,Xq.C I.) b S B._.E.N.G E ^.oX].~.",
"A.Z.}.^.N.N.`.T.~.G G @.h.S.G.>.-.0.y.1X3X2X<Xi.6./ Z.h b ..v.X.T m.G.o.$.^.`.S.",
"o.m.D.W.R...E.K.v.c.A.W.].W.N.B.[ 9.e.u.,X,Xa.t.-.Y.E.G A.].`.T.b.F c.~.E.`.N.F.",
"W.].oX X}.(.%X>X`.X.m.B.^.^.v.S.V.;.5.7.q.y.0.2.N $.oXz.D.E./.!.A.Y J m. X@X`.E.",
"D.~ k.N.! l.XX$Xm.z h ) $.I.Q.T.^.M.B m A Z V l a G ].oXk.l.^.G +.Z.o. .B.E.}.l.",
"S.~ ~ b.! o.R.P.S k k f }.}.m.J. XE.Q.!..XV.Y ( s ' #.Q B.D.].B.! m.E Z.S. .O.V.",
"..$.D.S.h.G o.Z.P L P O.m.M.L.#X+XT. .!.Q.G p ( V.x.c I B.Z.$.h.N.^.c.G.C.L a d ",
"E m.F.G.n.j.R.D.V.#.O.K S M.W.{.B.~ A.P.o.G ^ m.Q.B.+.C.S.o.f o.M...#.#.L _ k s "
};
