/* XPM */
static char *result[] = {
/* columns rows colors chars-per-pixel */
"40 40 220 2 ",
"   c #2D1A13",
".  c #341B14",
"X  c #0D3D0B",
"o  c #19380E",
"O  c #172710",
"+  c #033E10",
"@  c #173D12",
"#  c #2E2216",
"$  c #243A13",
"%  c #313918",
"&  c #481B1D",
"*  c #4D1A1C",
"=  c #531D1E",
"-  c #581E1F",
";  c #48261C",
":  c #4C2B1C",
">  c #58201F",
",  c #48361C",
"<  c #4D1E20",
"1  c #541E21",
"2  c #581F21",
"3  c #4E2B20",
"4  c #552221",
"5  c #5B2122",
"6  c #5A2B23",
"7  c #4C3020",
"8  c #583723",
"9  c #632325",
"0  c #6A2627",
"q  c #662528",
"w  c #6B2629",
"e  c #6C2A2A",
"r  c #72272C",
"t  c #722B2C",
"y  c #7C2C2F",
"u  c #693428",
"i  c #782C31",
"p  c #7E3131",
"a  c #733830",
"s  c #04440E",
"d  c #064A0C",
"f  c #0A4B0D",
"g  c #14420E",
"h  c #15490D",
"j  c #0C570B",
"k  c #0C520C",
"l  c #11540C",
"z  c #145C0C",
"x  c #1B5D0E",
"c  c #034313",
"v  c #034811",
"b  c #0C4C12",
"n  c #184914",
"m  c #0C5212",
"M  c #0D5B11",
"N  c #145412",
"B  c #1B5211",
"V  c #145B12",
"C  c #1A5C13",
"Z  c #1A5C19",
"A  c #275A0F",
"S  c #254A19",
"D  c #354A17",
"F  c #205112",
"G  c #2A5814",
"H  c #2B521B",
"J  c #2A5C19",
"K  c #37591B",
"L  c #15650F",
"P  c #1A630E",
"I  c #146A0E",
"U  c #1D6C0E",
"Y  c #1E750E",
"T  c #1E7A0F",
"R  c #0E6810",
"E  c #156413",
"W  c #1B6413",
"Q  c #166D14",
"!  c #1C6B13",
"~  c #1F621A",
"^  c #1E6D18",
"/  c #1D7313",
"(  c #187216",
")  c #1D7A16",
"_  c #266A0D",
"`  c #226C0E",
"'  c #25720E",
"]  c #2A750F",
"[  c #237B0D",
"{  c #2A7B0D",
"}  c #226413",
"|  c #2A6415",
" . c #236D14",
".. c #286D11",
"X. c #2D6519",
"o. c #246C19",
"O. c #2C6D1A",
"+. c #386519",
"@. c #237313",
"#. c #2B7415",
"$. c #257B13",
"%. c #2C7C14",
"&. c #237419",
"*. c #2B7319",
"=. c #257918",
"-. c #2D7B1A",
";. c #337415",
":. c #327D16",
">. c #35761B",
",. c #3A7418",
"<. c #327C1A",
"1. c #397D1B",
"2. c #364627",
"3. c #3A5725",
"4. c #3C552A",
"5. c #3D4F32",
"6. c #337A21",
"7. c #48461B",
"8. c #46581A",
"9. c #41751A",
"0. c #574629",
"q. c #45582E",
"w. c #5A4F34",
"e. c #495D33",
"r. c #4D5F39",
"t. c #6E5036",
"y. c #52643B",
"u. c #576A39",
"i. c #5C6C3C",
"p. c #5B6B42",
"a. c #646340",
"s. c #637246",
"d. c #687548",
"f. c #6E784B",
"g. c #777B4C",
"h. c #727D4C",
"j. c #802E31",
"k. c #833935",
"l. c #893E38",
"z. c #8B463A",
"x. c #934942",
"c. c #A6594A",
"v. c #8C6647",
"b. c #97644B",
"n. c #9F6F51",
"m. c #A96F54",
"M. c #24800C",
"N. c #2C850D",
"B. c #34830F",
"V. c #358A0D",
"C. c #3A8C0E",
"Z. c #36930F",
"A. c #3C920F",
"S. c #258112",
"D. c #2C8213",
"F. c #2F8914",
"G. c #2E8319",
"H. c #348414",
"J. c #3A8415",
"K. c #358B14",
"L. c #3B8C15",
"P. c #34831A",
"I. c #3B8519",
"U. c #348A1A",
"Y. c #3B8B1A",
"T. c #369112",
"R. c #3C9314",
"E. c #3C9219",
"W. c #3B8420",
"Q. c #479A0F",
"!. c #428D16",
"~. c #47861B",
"^. c #418C1A",
"/. c #439514",
"(. c #4A9515",
"). c #449B14",
"_. c #4A9B14",
"`. c #43941B",
"'. c #4A951A",
"]. c #469C1A",
"[. c #4C9C1B",
"{. c #549B17",
"}. c #519C1B",
"|. c #59AB0F",
" X c #4DA215",
".X c #4EA21A",
"XX c #53A514",
"oX c #54AA14",
"OX c #5AAC15",
"+X c #52A41A",
"@X c #5AA61C",
"#X c #56A91B",
"$X c #5CAB1B",
"%X c #5CB315",
"&X c #5EB11B",
"*X c #68BA0F",
"=X c #64AF16",
"-X c #64B316",
";X c #68BB13",
":X c #6CBC13",
">X c #62B31B",
",X c #70BF18",
"<X c #478C21",
"1X c #479421",
"2X c #4B9421",
"3X c #519D22",
"4X c #569B24",
"5X c #5EAE23",
"6X c #60AC22",
"7X c #63B321",
"8X c #72C416",
"9X c #7D864F",
"0X c #7D8652",
"qX c #7F8A54",
"wX c #838B55",
"eX c #898F57",
"rX c #8E9358",
"tX c #93955B",
"yX c #94985A",
"uX c #919360",
/* pixels */
"R. X_.B.=X%X:.%.K.K.-.Z Z W b g B &.H.I.*.I.). X1.Z n E o.^ b v *.`.[.I._.%X+X:.",
" X_.' f `.)..X).T.D.&.V W >.J X X <.E.`.^.K..X~.g X F I.E.#.d W  X_.^./.#X$XJ.I.",
"K./ M E ) I / $.U.P.P &.G.| n >.B X.} X.G G X.g | ..<X[.{ P.%./.%X X)./._.).K.I.",
"U ( R Q ) ( ! / T L.K.$.G.W J P.X.o 2.y.s.u.4.S >..X[.}.L.' L.#XR.K.A./.).}.I.B ",
"$.T S.H.M.G.-.z ! F.K.D.U.H.B.' S y.wXrXrXtXwXy.J H.Q.oX$X^.[.+X%.&.$X-X@XB.f s ",
"D.Z..XH.) ! *.-...N.K.P..._.+XA r.wXyXyXyXyXtXwX4.P $X:X5X'.H.N.$.J.$XQ.OXXXJ.L ",
" X.XR.@.W f b W ^.$X'.D.P.V.$XK f.yXyXyXtXtXtXeXe.h %.J./.J.D.K.R.R.H.D.!.).Q..X",
">X XN.P.! M W } *.I.L.D.G.T.!.3.9XyXyXyXtXtXtXtXi.@ x &.z E Q T.R.N.@.@.U :._.K.",
" XR.F.R.[ $.-.*.! z J.R.Z.].;.4.wXuXuXtXtXrXyXyXd.S V <.o.k $.D.( I &.D.H.[.`.] ",
"R.N.T.A.K.R.H.I.=.I ).%XoX:.C q.wXg.w.8 8 w.t.g.s.H ;.{ /.:.Y.V M %.K.A.].@.J.[.",
"R.T.Z. X`.R..X5XT.N.oX%X_.$.C q.a.7 4 ; 4 5 5 8 w.H _.OX>X>X..c P _._.OX_. .J./.",
"R.K.R.K.! E D.' @.K.oX*X;X+XX.% ; 5 9 4 5 5 9 e 3 D 4X/.A.>X1.x {.XXXX{.J.T.).D.",
" XD.J.D.d s / -.W @.!.8X*X~., 4 & q 5 5 5 5 5 t e : o l G.F.+X=X:X:X>X#.-.D.E.K.",
"J.#.R.L.E f L G.#.*.#.+X>X8.a y 5 e 5 = 2 > 9 t e r 7 n / T #X8X8X%X/.P  .P.D.V.",
"L L L.oX^.^ Q ' P.H.K.K.!.0.z.j.q 9 - * 4 5 9 t w w e D ! R N.%X XV./.H.-.*.-.G.",
"H.<.J.oX+XD.Q #.L. XL.`.9.t.c.k.w 9 9 - = 5 9 r w w r , } K./.L.)..X.X[.W.l z Y ",
"_.K.@.J.L.+X`._._.(.+X;.G z.c.l.0 q 9 5 2 2 5 w q w i : ;.7X'.1.<.I.#.N b | 2XI.",
"$X>X_.H.' oXOXOX(.@X'.f $ b.c.l.0 q 5 4 4 2 5 q w w w ; >.I.x :.z ..%.d N N l W ",
"[.OX8X`.'.'.(.-X[.6XH. .D b.c.l.w w 5 * 1 2 2 q w w r 7 ~.2XH.R.%.C./.L.| c c c ",
"W.' _.L.' %.`.(././.).^.+.n.c.k.q e 5 * < 1 2 q w w y 6 | #.J./.#X$XXX&XY.m c c ",
"@.^ C C M -.W  .%.H.{ *.8.n.m.x.0 t 9 = 4 2 2 q 0 0 j.u F  .H._.>X'.R.A.D.W l b ",
"&.k c v ! $.&.@.@.$.G.I.,.v.m.l.t e - = 1 1 2 q 0 t y 8 <X:.J.C.).K.K.`.K.<.<XO.",
"I. .W Z @.R..XN.S.! V  .X.0.c.k.p t > = 4 4 * 5 9 r y 7.3XL._.).K.U G.K.%.5X^.f ",
"<.b b m V <.E.].D.l + Z C $ t.k.y t 5 - * * 2 5 9 r e $ %.E._.).R.J.K.K.#.W *.;.",
"C c c c m W k #.E.^.C E W J 8.u j.9 2 * < 4 4 5 9 0 : g V U.L._.N.).XX{ E l ] (.",
"<.W M v N ( L ! K.).I.$./ S.#.7.5 1 < * & 1 4 4 & # o Z W P./.>X).N.&X<Xz 3X$X}.",
"C O.-./ @.$./ K.L.N.%.K.E.D.%.X.$     .   . . . O X *.-.%.`. XXX XD.K...P 4X..@.",
"k c N %.R.H.%.{ %.L.H.^.H.K.V.Y.S 5.2.2.2.2.2.$ N #.I.C o.H.H./.R.D.-.N x } f @.",
"<.W >.`.E.D.T.%.` '.E.:.%.Y.J.1.H r.d.f.f.f.s.3.1.P.M f c ! %.Y.T.K.P 6.*.P E %.",
" .Y..XXXR.[ @.#.^.`.W  . .1.3X_ @ r.0XeXrXeXh.H P.-.M m f :.I.&.&.P.o.} '.#.!  .",
"k L L.XX$X).H.-.G.! ~ b k } (.6X;.3.9XwXtXwXp.S o.U. .k I.].@.E M d *.j @.-. .%.",
"/ Y N.R.A./.E.E ! V m E Q b l :.<XK d.wXtXqXy.n f @.$.:.`.{ ! E ! V ^ o.@.I.).&X",
"N.T.)..X@X+X! M E =.( Q ) V N  .^.+.r.9XwXf.2.b M =.I.J.D.) D.D.Y.Y.%.>.x ] ).R.",
"L..XR.&...I. .$.$.G.=.Q / %.Y.`./.| 2.9XwXi.n W ) U.H.%.Y.K.K.&.l ` [.>X_.!.A.L.",
"[ M.N.U :.L.H.K.F.$.Q %.[ [ L./.R.C $ s.qXe.F D.F.V.U.S.D.V.].{ I.}.[._.XX^./.Q.",
"E.R.R._.+XI.#...D.) Q G.).).OX XJ...F u.h.4.,./.R.T.R. XoX] ! $.R.$X' H.[.K.{.|.",
"U ` #X_.I.P C W -.%.M x H.7XoXoX).).,.3.p.+.'.).D.H.XXOX|.XX] D.H.H.D.).oX>X*X:X",
"&.@.R.].G./ &.! &.-.W 1.I.K.N.R.V.XX-X9.3.,.;.L.%.1X+X(.-X,XoXR.F.K. X). X_.V._.",
"' U.@.R.D.M E ) ! V ~ j I I ! <.`.}.,X{.A }. X_.L.1X!.L./.Q._.K.M.N.L.F.K.}./.V.",
"H.D.` ).S.d W U.! l *.%.^ k O.W :.B.{.1.;.oX%X|./.V.+X).).].H.L.F.T H.Y.R.Q.@X>X"
};
