/* XPM */
static char *_2646683c3984fa6df8825482a586d978bBGTQT66LBSJTpT[] = {
/* columns rows colors chars-per-pixel */
"40 40 208 2 ",
"   c #473D24",
".  c #41371E",
"X  c #3B3118",
"o  c #3C3219",
"O  c #433920",
"+  c #4A4027",
"@  c #4E442B",
"#  c #554B32",
"$  c #574D34",
"%  c #4F452C",
"&  c #40361D",
"*  c #3A3017",
"=  c #3E341B",
"-  c #3A3319",
";  c #484127",
":  c #464026",
">  c #443E24",
",  c #3C361C",
"<  c #373117",
"1  c #3E381E",
"2  c #4A442A",
"3  c #4B452B",
"4  c #413B21",
"5  c #453F25",
"6  c #3D371D",
"7  c #4C412D",
"8  c #4E432F",
"9  c #584D39",
"0  c #4F4430",
"q  c #453A26",
"w  c #433824",
"e  c #3D321E",
"r  c #3D331A",
"t  c #443A21",
"y  c #483E25",
"u  c #4B4128",
"i  c #453B22",
"p  c #392F16",
"a  c #3E371D",
"s  c #383117",
"d  c #383218",
"f  c #433D23",
"g  c #403A20",
"h  c #3F391F",
"j  c #423C22",
"k  c #494329",
"l  c #524C32",
"z  c #504A30",
"x  c #484228",
"c  c #433822",
"v  c #3F3420",
"b  c #3E331F",
"n  c #423723",
"m  c #463B27",
"M  c #3F351C",
"N  c #362C13",
"B  c #493F26",
"V  c #453E24",
"C  c #393218",
"Z  c #363016",
"A  c #393319",
"S  c #474127",
"D  c #514B31",
"F  c #483D27",
"G  c #40351F",
"H  c #3F341E",
"J  c #423721",
"K  c #372D14",
"L  c #4A4329",
"P  c #443D23",
"I  c #3B351B",
"U  c #3A341A",
"Y  c #4F482E",
"T  c #4D422C",
"R  c #4C4229",
"E  c #4E432D",
"W  c #50462D",
"Q  c #494228",
"!  c #342E14",
"~  c #41351B",
"^  c #4D4129",
"/  c #4D4127",
"(  c #4E4228",
")  c #43371F",
"_  c #45391F",
"`  c #42381F",
"'  c #382E15",
"]  c #4C462C",
"[  c #4E482E",
"{  c #463A20",
"}  c #473B21",
"|  c #42361C",
" . c #44381E",
".. c #3E3218",
"X. c #463F25",
"o. c #413A20",
"O. c #40391F",
"+. c #514A30",
"@. c #50492F",
"#. c #4C452B",
"$. c #4B442A",
"%. c #433C22",
"&. c #4F4329",
"*. c #4E4025",
"=. c #55472C",
"-. c #4C3E23",
";. c #46381D",
":. c #47391E",
">. c #403217",
",. c #474026",
"<. c #3F381E",
"1. c #3B341A",
"2. c #3C351B",
"3. c #4B4126",
"4. c #4A3E24",
"5. c #4A3C21",
"6. c #524429",
"7. c #504227",
"8. c #514328",
"9. c #423B21",
"0. c #352E14",
"q. c #4A4025",
"w. c #4D4226",
"e. c #4C4125",
"r. c #4A3F23",
"t. c #4B4024",
"y. c #463B1F",
"u. c #4D432A",
"i. c #534C32",
"p. c #4D462C",
"a. c #493E22",
"s. c #473C20",
"d. c #42371B",
"f. c #463C23",
"g. c #51472E",
"h. c #483E23",
"j. c #443A1F",
"k. c #41371C",
"l. c #42381D",
"z. c #453B20",
"x. c #3C3217",
"c. c #443D21",
"v. c #3F381C",
"b. c #383115",
"n. c #423A23",
"m. c #443C25",
"M. c #403821",
"N. c #3C361E",
"B. c #403A22",
"V. c #413B23",
"C. c #423C24",
"Z. c #3E3820",
"A. c #39331B",
"S. c #544A31",
"D. c #3B351D",
"F. c #3E3923",
"G. c #3F3A24",
"H. c #3B3620",
"J. c #39341E",
"K. c #38331D",
"L. c #564C33",
"P. c #3E3A21",
"I. c #3F3923",
"U. c #37331A",
"Y. c #332D17",
"T. c #332F16",
"R. c #37311B",
"E. c #3D361C",
"W. c #373016",
"Q. c #362F15",
"!. c #3B331C",
"~. c #362E17",
"^. c #4E472D",
"/. c #524B31",
"(. c #312A10",
"). c #342D13",
"_. c #5A5037",
"`. c #4A4327",
"'. c #484125",
"]. c #393216",
"[. c #50492D",
"{. c #4F482C",
"}. c #494226",
"|. c #433C20",
" X c #40391D",
".X c #575034",
"XX c #534930",
"oX c #4D462A",
"OX c #474024",
"+X c #3E371B",
"@X c #413A1E",
"#X c #584E35",
"$X c #453E22",
"%X c #3A3317",
"&X c #352E12",
"*X c #3D361A",
"=X c #5D533A",
"-X c #463F23",
";X c #4C4529",
":X c #3B3418",
">X c #5B5138",
",X c #52482F",
"<X c #4B4428",
"1X c #352B12",
"2X c #4E472B",
"3X c #5A5337",
"4X c #514A2E",
"5X c white",
/* pixels */
"  . X o O + @ @ # $ % & * = & - ; : : > , < 1 2 : 3 : 4 5 > 6 , 7 8 9 0 q w e q ",
"& = r r & t y u + u i X p & O a s d 6 f > g h j k l z k x > 1 1 c v q b e n b m ",
"o = M = r = . t M M X N * i B V C Z A 4 S > 6 d S D z k x 5 > k F G c H J F G J ",
"& & M r r r M . o * K N = B @ L P 1 I 1 f 5 4 6 U > j 1 j 5 S Y + i T R E W J & ",
"O M X X M O i t r * K K M y R Q P 4 1 1 j : x S ! 6 6 6 5 S f V . ~ ^ / ^ ( ) _ ",
"` r ' * .   B y r * ' ' r O   y P > > j 4 f j h h k 3 ] l [ j a { _ / } |  ..._ ",
"& = o o M ` O O o * p * o & t y ; Q X.o.O.o.a s ; +.@.#.Y $.P %.&.*.=.-.;.:.>.;.",
"& . ` & r X * X X * * X r & i + ,.V <.1.a P P <.o.; %.C - 2.o.3.4.5.=.6.7.8.:.5.",
"M r & t O = o = = r X ' K ' o M X.9.O.%.L @.+.@.0.O.o.<.o.O.O.q.4.w.e.r.t.e.t.y.",
"` M M ` . r * * X * * * o . y u.2.- 2.V Y i.p.X.1.P ,.V ,.P 9.+ q.t.a.y.s.a.s.d.",
"f.` M & & o p ' = r X p p o . f.o ' p ` @ g.+ . ` + R R @ B i + q.h.j.k.l.z.l.x.",
"  ` = r r r * K & & = * K N N ' & X K * .     i i + B + @ B i u   c.O v.O c.. b.",
". M X p p X p K r M & & = o * * M o p ' * . y u.B B f.y @ B i u o.4 n.g m.> M.< ",
"o r X K N ' p K o = . ` & r X * ' * o o o . B W u.u f.+ W + t ; N.B.V.V.V.C.Z.A.",
"o . ` o ' p X X r M M = o p p p o r r r r .   R % R y u.S.+ M o.D.F.G.H.J.J.J.K.",
"&   B O o r M M o o o o X o M .   O r p * M t   @ R B W L.y * C D.P.I.U.Y.T.R.U.",
"1.E.a a 2.1.2.2.1.- C W.Q.s 1.a f.. = = M = & t u R R B f.O M X <.4 m.4 !.Z ~.< ",
"2.- W.0.Q.s 1.a 1.2.E.2.1.1.2.E.& X * .   + + + y y f.t ` & = r 2.E.a 2.C s C 1.",
"1.s 0.0.s 2.E.E.1.a O.O.a 2.- C o K ' ` u.W u.u   i ` & = = M . E.2.1.- - 1.2.E.",
"C s C a %.P <.1.2.a O.<.E.- W.W.= * X ` y y i t B t & = r r & t O.a E.E.a a E.2.",
"1.- - a %.%.<.- <.<.<.E.- s s s & M & ` . r r & y ` = = r X r ` E.E.<.o.%.9.a 2.",
"O.2.s W.C - 1.- 9.9.O.E.- C C 1.& & O O M * X & O r o M = p p = W.- <.%.P %.o.<.",
"%.O.2.s Q.Q.s C O.O.<.2.- s s C o o & t ` r o r r p o O O X p r s E.9.P P %.%.P ",
"P V P o.2.C W.W.2.E.E.1.C W.Q.Q.p ' o O i & * ' * ' r     M o M <.%.,.X.%.o.P ,.",
"$.,.9.a E.E.a <.o.- Q.s a o.o.<.& * p & i O M = . = & f.+ y f.f.o.,.,.9.X.Y i.Y ",
"#.; 9.E.2.E.<.O.9.<.E.2.2.2.2.2.r o r ` ` M M `   O O y R u u R ,.X.,.; ; ; #.Y ",
"V %.o.a E.2.2.E.<.O.O.E.C s C 1.p o M . r X = i + f.f.+ R R u.% p.,.,.p.$.P X.^.",
"E.a <.<.E.- C s C 2.E.1.C - 1.1.' X = r X * = ` f.t i + R u u u.^.; X.$.p.L ; L ",
"a <.a 2.C C 2.a 2.a E.- 2.O.<.- r r o o = & & M & . i u u.+ B u L Q V V #.i.p.9.",
"V %.<.1.s 1.%.Q V X.%.E.E.9.O.C t . = = ` f.O o r M f.u.@ u B u ,.; P o.Q /.L 1.",
"o.%.P 9.O.O.P ; X.$.; a - E.a C t O & M O f.. p X r t + R B + @ ,.X.P P V P E.Q.",
"Q.<.Q p.L P O.a 9.L Q E.0.s 2.1.. ` & = & O = N p X .   y   + % ; %.P ,.9.Q.(.).",
"@ X y g._.f.B i o . i O r p o & 2.<.O.<.O.9.o.E.C C 1.<.%.X.X.P `.c.`.'.].v.[.{.",
"  O i M i W _.@ r i u B . o M t V ,.,.X.; $.; %.O.o.%.%.P V ; L }.|.}.}. X'..X.X",
"B o * u + % XX$ ` + W @   ` t B V V P P Q ^.#.,.<.o.%.9.o.9.X.$.oXOX'.OX+X@X}.}.",
"# . * S.u R + #Xf.B + y t ` t   O.<.2.E.V ^.@.#.E.<.o.%.%.P X.,.oX`.`.$X%X&X].*X",
"=XL.t t ' W S.S.u f.. r r & ` O P o.2.- o.$.+.@.X.V X.L ^.p.; %.-X`.;X'. Xb.:XOX",
">Xu.`   . u W ,XS.u.t = M ` f.y ,.V <.- 2.P Q L #.L Q p./.Y V 2.$X;X;X<X'.+X+XoX",
"g.' X u W ` y W L.,XR t & . y u.P V %.E.1.a 9.%.; ,.,.L p.$.P E.<X{.`.<X[.$X+X`.",
"y X = 1X. O XXR @ % u.t X p . + o.X.; %.<.O.9.%.9.%.X.Q $.L ; X.2X{.OX;X3X4X-X[."
};
