/* XPM */
static char *result[] = {
/* columns rows colors chars-per-pixel */
"40 40 56 1 ",
"  c #759F71",
". c #79A375",
"X c #78A274",
"o c #729C6E",
"O c #719B6D",
"+ c #76A072",
"@ c #739D6F",
"# c #6D9769",
"$ c #6E986A",
"% c #709A6C",
"& c #749E70",
"* c #77A173",
"= c #6C9668",
"- c #6B9567",
"; c #6A9466",
": c #6F996B",
"> c #648E60",
", c #679163",
"< c #658F61",
"1 c #699365",
"2 c #689264",
"3 c #669062",
"4 c #638D5F",
"5 c #618B5D",
"6 c #628C5E",
"7 c #689165",
"8 c #679064",
"9 c #668F63",
"0 c #658E62",
"q c #6A9367",
"w c #6B9468",
"e c #699266",
"r c #6C9569",
"t c #638C60",
"y c #5E875B",
"u c #618A5E",
"i c #60895D",
"p c #648D61",
"a c #739C70",
"s c #729B6F",
"d c #719A6E",
"f c #70996D",
"g c #749D71",
"h c #769F73",
"j c #759E72",
"k c #79A276",
"l c #6F986C",
"z c #6D966A",
"x c #6E976B",
"c c #628B5F",
"v c #5F885C",
"b c #608A5C",
"n c #5D8759",
"m c #5F895B",
"M c #5E885A",
"N c white",
/* pixels */
" .XoO +O @OO@   #$%o@&&@$@X.* +X. oO&+ &",
"#O%==%O$#-;;=$$#$$###$:%-#%O%%%%$=-=:%$-",
">,,<<1-1<>><,23<#-1,3,1;;121;-;1>>32;;2<",
"212,2;-;121-##-2$#=----=O#;-$:#-21-#$:$#",
"O%::$#$:$$:O@@%$#$O@@o%: O$:o@o:OOOOO@ *",
"%=-==11=122;==-132=:%$-2-;1;-=-1===;;-:o",
"#22--,2=23<<,112,2;--1,<>31;12112;=-22;#",
"o##o@:%+o:##:OoO@oO%:$#=;:& @oo&:@++@OOo",
"&O#==#=-=;11--;2##=-=#:%$%:-;##;=;21-=;2",
"1,<><<>4,33,1;;2;12,21;-5>>663,<;2,2-=-1",
" &o@& &o#==$%ooO::$###$$;##-=:%#%$#$%ooO",
"$#=$%%:$%$$:Ooo%%%:$$###O&&%:O%#%$#=##$$",
"3>><,12,-1,221,<1122,,3<>22<>3<5;1,<44><",
"o%$$%o@@%$====;2==###=-->2;1;==2OO:=11-$",
"@%=;=:Oo&@OOoo%::%Oo@oOO=O@o@ &%& &O:%&X",
"&:;21#:O;121;-;1<,2;;;112=#-;-2>,21,32#o",
"789008qw9erwe87qqtyuer8i89ptt08733,,,222",
"asdffsghdahjasagkgllssz7ddddddffo@@@&&&&",
"wq777ewrewzzwqqwrwqwxlxz7qwrwe80;;;;--==",
"0ptttp0009888999ct987qrx09990tui6444>>>>",
"dfflllffaaggjjasdaaslzxfgadlxxxl::%%OOOO",
"lllllxxxasdsggsfdsasdddasdxrwrxl%%%OOOoo",
"8888990pe897qq70887ewzzx900ppp00<<333,,,",
"zzxzzrwqzwqrxlrelzqqqe8p7ewrrwqe,,,22111",
"asfxxfsaqakhr8zjjddggxqexfddlzzx-=###$%@",
"flzzzzlfqzlxweqrlrrfdzqqwzxxrqqw=##=--#:",
"8888888870tp770u9ctew798p089pttp211,<<32",
"ddsaasddgfzfghdrdzxajasaxfsdlxxlo@@o%%o&",
"zzxllxzzrrwrxxrwfrwldxzlwzxxrqww-=##=#%o",
"00000000vuttcccte0t870p0p9880ttp64>>><2;",
"sdfllfdsxxlfddffgfxsadfsdaggsffd%OooOO@ ",
"lxwqqwxlfxzlsgdxlwezlxxfxfddlzzx%OO%$#:O",
"b>22<><24<<>3124<<32-=-;;,><2-=--3<22<3-",
":::#=#%o1--1-$=,;;-=##=-2;=#==#:@$=::=$@",
"*@#-=:o&$%:#:o%-$$::$#==2#@@%$:o O$::$O ",
"o=3>3;;;;==1-#-32;--1222,;=#=-==$-2,,2-$",
":=22-=;,3223,;24432233,2#2><;=-,=-1331-=",
"OOo@&@%$=$$=$o%=;#%%$=$O*:21O o#$%:--:%$",
";=:%:###;##=:@o$-:@O#-#%@$-=O@%=1#$;;$#1",
"nb44bm6<M555>12>5<23bnM5556><45mm<3443<m"
};
