/* XPM */
static char *_9c97f347db94adaafe64b7f56f10a8bpAEPAX67CEN82JrV[] = {
/* columns rows colors chars-per-pixel */
"40 40 132 2 ",
"   c #010103",
".  c #050609",
"X  c #050808",
"o  c #100F18",
"O  c #0F1116",
"+  c #101117",
"@  c #101118",
"#  c #1D1F26",
"$  c #1D212D",
"%  c #22232C",
"&  c #2D2B2F",
"*  c #32322F",
"=  c #3A362E",
"-  c #282732",
";  c #272A34",
":  c #2A2B35",
">  c #272C39",
",  c #2A2B39",
"<  c #312E34",
"1  c #2E3033",
"2  c #343232",
"3  c #3B3533",
"4  c #373835",
"5  c #3D3A33",
"6  c #353438",
"7  c #3B3638",
"8  c #3F3A3A",
"9  c #423C32",
"0  c #493E34",
"q  c #474234",
"w  c #4B4135",
"e  c #46423B",
"r  c #504636",
"t  c #534A36",
"y  c #594E35",
"u  c #574C38",
"i  c #5B4E38",
"p  c #5C533B",
"a  c #605235",
"s  c #625539",
"d  c #69573B",
"f  c #645A38",
"g  c #6A5C3C",
"h  c #705C3E",
"j  c #6F603F",
"k  c #74643E",
"l  c #79663E",
"z  c #77683E",
"x  c #7D6B3F",
"c  c #544D43",
"v  c #585041",
"b  c #675E44",
"n  c #6C5E43",
"m  c #6D6143",
"M  c #776540",
"N  c #796642",
"B  c #7E7145",
"V  c #836E41",
"C  c #847142",
"Z  c #8B7646",
"A  c #8D7A44",
"S  c #827548",
"D  c #89754A",
"F  c #8E7A48",
"G  c #927C46",
"H  c #997F45",
"J  c #967E4A",
"K  c #907B50",
"L  c #9B8246",
"P  c #97814A",
"I  c #9C844B",
"U  c #A78947",
"Y  c #AA8E46",
"T  c #A1854A",
"R  c #A48B4B",
"E  c #AB8D49",
"W  c #B08D4D",
"Q  c #AF924C",
"!  c #B4934E",
"~  c #B9974F",
"^  c #BD9C4E",
"/  c #A49054",
"(  c #AA9352",
")  c #B49652",
"_  c #B89651",
"`  c #B39850",
"'  c #BC9B50",
"]  c #B69B59",
"[  c #BEA452",
"{  c #C39E54",
"}  c #C3A54E",
"|  c #CCA74F",
" . c #D5AB4E",
".. c #DDB44E",
"X. c #DFB94B",
"o. c #C4A352",
"O. c #CAA652",
"+. c #C5A856",
"@. c #CDAA53",
"#. c #D3AE55",
"$. c #D8AC52",
"%. c #D5B154",
"&. c #DDB550",
"*. c #DDB452",
"=. c #DDB652",
"-. c #DCB653",
";. c #DBB654",
":. c #DDB657",
">. c #DFB951",
",. c #E6B847",
"<. c #E5B749",
"1. c #E2B64D",
"2. c #E6B54C",
"3. c #E8B74A",
"4. c #E8B64E",
"5. c #E3B949",
"6. c #E3B94B",
"7. c #E4B849",
"8. c #E6B848",
"9. c #E3B84C",
"0. c #E2BA4C",
"q. c #E3BA4E",
"w. c #E5B84D",
"e. c #E5BA4D",
"r. c #E8B84C",
"t. c #E2B750",
"y. c #E1B552",
"u. c #E4B553",
"i. c #E6B652",
"p. c #E2B851",
"a. c #E5BB51",
"s. c #E4B854",
/* pixels */
"- ; : & & & - ; - - , - , - ; ; : - @ . . % - - < , < - , - - , - : 2 - : - - # ",
": , v S A j 0 : : : , , , , , , : : @   . % < , , , , , , , , , 2 p V Z M 7 , # ",
"& 1 S ;.a.%.Q k 9 : : : , , , , : : +   . % < , , , < , , : 2 i J O.u.a.) 0 , # ",
"- * C >.w.w.1.$.Y k 5 : , > , , , ; +   . % , : , , , - < i G } =.2.4.u.) 0 , # ",
"- < C =.w.e.e.7.p.@.I p = : : : : : +   . % , , , , < r C { =.1.w.2.2.u._ 0 , # ",
", 3 C ..w.w.1.7.w.6.p.O.T s 4 : : : +   . % , ; < w C ^ ..2.9.1.<.8.2.a._ 0 - # ",
"- 6 C y.6.w.w.w.0.w.w.w.9.@.G w < , o   . % , 4 l ! ..7.w.6.9.9.w.7.4.u.! 0 ; # ",
"- 3 C ..w.9.7.w.9.9.9.9.9.9.>.I 9 - o   . % , M O.2.7.w.,.6.y.9.<.8.4.4.~ 0 - # ",
"- < D y.9.w.9.9.9.9.w.6.w.w.a.E w : +   X $ 1 N #.7.7.7.7.8.7.2.7.7.2.u._ w - # ",
", < V u.w.w.w.9.w.6.6.e.w.w.a.Y 9 ; +   X $ : N #.2.w.w.w.7.9.w.e.w.2.s.~ w - # ",
"; 2 V =.9.9.2.2.9.9.e.7.w.e.a.Y 9 & @   X $ 1 N #.w.w.w.7.e.w.9.9.w.9.p.) w > # ",
"; 2 V :.a.w.w.2.w.9.w.7.w.e.e.Y 0 % @   X $ : N #.a.w.w.7.w.9.w.9.9.9.>._ w , # ",
"; : s ( $.4.<.3.2.a.w.9.w.w.a.Y 5 - O   X $ 1 N #.w.w.w.8.w.7.4.2.9.=.[ D 9 , # ",
"; > < 0 x ^ =.3.2.1.w.w.0.w.e.Y 9 - O   X $ , N #.w.w.w.7.8.w.w.:.O.L p < , , # ",
"; , , , < r V ^ :.y.2.2.w.e.e.Y 5 - O   X $ , N #.a.7.w.w.8.w.@.T s 6 > , , , # ",
"; > , > ; ; * y F o.=.w.6.w.a.Y 5 & O   X $ , N #.a.w.4.r.$.E j 5 ; > > , , , # ",
"; , , > > , ; : * y G } =.w.p.Y 9 - O   X $ ; z %.6.>.$.Y k 5 ; : , , ; , , , # ",
"; , , , , > , , : : 2 p I #.y.R 5 & +   X $ 1 z %.%.` k 5 : : , , : > , , , , # ",
": , , , > > > 1 : 1 > , 5 g T K 8 ; O   . $ > m / x q 1 > > ; , > , > , < , , # ",
", < 2 1 : > > > > > : , ; ; 4 8 < ; +   . ; 1 4 5 1 ; > : , : , , , : : < , , # ",
"; 2 c b 5 : - ; > > ; > ; > > 1 : : +   . % 6 > : > , > 1 > : : > > 2 i b 9 , # ",
", < C +.R f = : , : , > , , > , : : +   . % , , > > ; : > > > ; < r G { ( 0 , # ",
"; 2 C *...@.T s 9 , : > : , , , , : o   X % , , 1 , , , : ; 1 r V _ $.=.) 0 - # ",
"; 2 C *.2.<.<.O.L y 2 : : , , , : ; +     % , , , , : : & q z ^ =.a.2.u.) 0 , # ",
"; 2 C y.7.2.2.2.X.} A t < : ; , ; - +   . % , : , , < 9 h W $.<.e.9.9.p.) w - # ",
": * C ..<.2.e.w.0.9.>.o.A w 2 , : & +   . - , > : 5 n E $.4.2.<.9.7.w.p.) w > # ",
"; * C ..9.2.7.9.6.w.w.w.y.' V q , : @   . % , 6 d T $.y.2.7.w.w.e.7.u.u._ w > # ",
"; * C ..w.w.9.e.w.2.9.9.4.i.$.G 5 - O   . % < g { u.<.<.w.7.w.,.e.w.w.a.) w > # ",
"- 2 V *.1.9.w.9.e.2.e.w.2.7.1.Q q & O   . % < z #.9.w.6.6.9.w.,.w.7.2.u._ 0 - # ",
"- * V *.9.w.9.w.w.w.7.7.9.w.9.Y 5 & O   . $ : z #.w.7.6.9.w.w.,.6.w.2.p._ 0 , # ",
"- * C =.2.6.w.9.7.w.9.7.w.9.9.Y q : O   . $ : k %.9.9.w.w.w.8.e.9.9.w.p._ w , # ",
"; * C =.a.e.6.9.e.9.9.0.e.w.9.Y 5 - O   . $ : N %.p.w.9.w.w.8.7.w.9.w.p._ 0 - # ",
"; < m O.y.6.9.6.w.6.6.6.w.e.e.Y 9 ; +   . $ & z #.w.w.9.6.e.e.,.6.7.a.%.J 9 - # ",
"; < 6 s L | s.w.2.9.6.0.e.e.w.Y 9 ; +   . $ : z #.w.7.e.w.w.6.5.6.%.W M 9 , , $ ",
"- , , < 5 s L #.a.w.w.9.9.w.w.Y 9 ; +   . $ , z %.w.1.w.9.6.w.=.' V 0 < - , , # ",
"; , : : ; ; 5 g U  .2.9.9.9.w.Y 9 ; O   . # , z #.6.w.6.w...^ C r < , > , , , # ",
"; , , , , , , : 9 g E #.9.w.w.Y 9 & O   X $ : N #.9.9.1.O.Z r * : , , , , , , # ",
"- , , , , , , , > : 9 g ! %.p.U 5 ; +   . $ 1 N %.>.} L y * : , , , , , , , , # ",
"> , , , , , > , : : ; < 0 z ) P 5 : O   X $ : l ] G y 6 : : : , , , , , , , , # ",
"- , , , : : : : ; : : , ; , w c 2 - o   X $ > e c 6 ; > ; : , : , , , , < , , # "
};
