/* XPM */
static char *_7f5cd4c9850491afe6d7ab913fabd2fuGJVuMxh3NfS2ko3[] = {
/* columns rows colors chars-per-pixel */
"40 40 55 1 ",
"  c #030202",
". c #493A30",
"X c #695445",
"o c #685244",
"O c #685345",
"+ c #5B483C",
"@ c #0F0C0A",
"# c #020201",
"$ c #412E20",
"% c #5D422E",
"& c #5B412D",
"* c #5C412D",
"= c #503928",
"- c #0D0906",
"; c #402E20",
": c #020101",
"> c #3D2818",
", c #573923",
"< c #563922",
"1 c #563923",
"2 c #4B321E",
"3 c #0C0805",
"4 c #3D2819",
"5 c #573A24",
"6 c #4C321F",
"7 c #3E2919",
"8 c #593B24",
"9 c #583A24",
"0 c #4D331F",
"q c #0D0805",
"w c #010000",
"e c #2B1C11",
"r c #3D2919",
"t c #352315",
"y c #080503",
"u c #0D0A08",
"i c #0E0B09",
"p c #0F0B09",
"a c #040302",
"s c #0B0807",
"d c #0F0C09",
"f c #0D0A09",
"g c #5C493C",
"h c #504035",
"j c #40332A",
"k c #5D4A3D",
"l c #513928",
"z c #0D0907",
"x c #40332B",
"c c #5B493C",
"v c #362416",
"b c #090604",
"n c #2B1D12",
"m c black",
"M c white",
/* pixels */
" .XoooooooooooooooO+@.Xooooooooooooooooo",
"#$%&&&&&&&&&&&&&&&*=-;%&&&&&&&&&&&&&&&&&",
":>,<<<<<<<<<<<<<<<123>,<<<<<<<<<<<<<<<<<",
":45111111111111111,634511111111111111111",
":45111111111111111,634511111111111111111",
":45111111111111111,634511111111111111111",
":45111111111111111,634511111111111111111",
":7855555555555555590q7855555555555555555",
"we7>>>>>>4r4>>>>>>4tye7>>>>>>4r4>>>>>>>>",
"uipppppppuasdppppppifipppppppuasdppppppp",
"++++++++ghfjk+++++++++++++++ghfjk+++++++",
"********%lz$%***************%lz$%*******",
"<<<<<<<<123>,<<<<<<<<<<<<<<<123>,<<<<<<<",
"11111111,6345111111111111111,63451111111",
"11111111,6345111111111111111,63451111111",
"11111111,6345111111111111111,63451111111",
"11111111,6345111111111111111,63451111111",
"5555555590q7855555555555555590q785555555",
"r4>>>>>>4tye7>>>>>>>r4>>>>>>4tye7>>>>>>>",
"#sdppppppifippppppduasdppppppifipppppppp",
"#xk+++++++c+++++++ghfjk+++++++c+++++++++",
"#$%***************%lz$%*****************",
":>,<<<<<<<<<<<<<<<123>,<<<<<<<<<<<<<<<<<",
":45111111111111111,634511111111111111111",
":45111111111111111,634511111111111111111",
":45111111111111111,634511111111111111111",
":45111111111111111,634511111111111111111",
":7855555555555555590q7855555555555555555",
"we7>>>>>>4r4>>>>>>4tye7>>>>>>4r4>>>>>>>>",
"uipppppppuasdppppppifipppppppuasdppppppp",
"++++++++ghfjk+++++++++++++++ghfjk+++++++",
"********%lz$%***************%lz$%*******",
"<<<<<<<<123>,<<<<<<<<<<<<<<<123>,<<<<<<<",
"11111111,6345111111111111111,63451111111",
"11111111,6345111111111111111,63451111111",
"11111111,6345111111111111111,63451111111",
"11111111,6345111111111111111,63451111111",
"5555555590q7855555555555555590q785555555",
"44444444rvbn7444444444444444rvbn74444444",
"::::::::::m:::::::::::::::::::m:::::::::"
};
