/* XPM */
static char *result[] = {
/* columns rows colors chars-per-pixel */
"40 40 144 2 ",
"   c #7D3F22",
".  c #774328",
"X  c #883F22",
"o  c #A1501E",
"O  c #B0551E",
"+  c #8D4226",
"@  c #8B4A2D",
"#  c #934427",
"$  c #994627",
"%  c #9A4C20",
"&  c #954629",
"*  c #994629",
"=  c #954A2C",
"-  c #99492B",
";  c #955025",
":  c #9D5225",
">  c #9D562B",
",  c #834D31",
"<  c #944D30",
"1  c #9A4F32",
"2  c #895237",
"3  c #895238",
"4  c #9A5234",
"5  c #9E5B32",
"6  c #9C593B",
"7  c #A55424",
"8  c #AB5624",
"9  c #AD5926",
"0  c #A25629",
"q  c #A95528",
"w  c #A3582B",
"e  c #AD5B2B",
"r  c #B25722",
"t  c #B55A24",
"y  c #B95B24",
"u  c #B45E2A",
"i  c #BB5E29",
"p  c #AB5F31",
"a  c #B15F30",
"s  c #93603C",
"d  c #9C643E",
"f  c #B6612D",
"g  c #BA612D",
"h  c #A66337",
"j  c #AC6135",
"k  c #AD663C",
"l  c #A6683D",
"z  c #B46433",
"x  c #BA6534",
"c  c #BB6837",
"v  c #B3663A",
"b  c #BC6739",
"n  c #B56A3D",
"m  c #BC6B3B",
"M  c #C36C3D",
"N  c #CA6E3D",
"B  c #9F5B41",
"V  c #A25F42",
"C  c #916544",
"Z  c #9C6744",
"A  c #9F6945",
"S  c #9D6649",
"D  c #95694A",
"F  c #9D6D4B",
"G  c #9A6D53",
"H  c #9C7255",
"J  c #9C765B",
"K  c #9C795D",
"L  c #A16244",
"P  c #A46C45",
"I  c #AB6C44",
"U  c #A36D4A",
"Y  c #B46E41",
"T  c #B86D40",
"R  c #A5714D",
"E  c #AA734C",
"W  c #B47146",
"Q  c #BC7245",
"!  c #B6744A",
"~  c #BC754A",
"^  c #BB794E",
"/  c #A37452",
"(  c #AA7753",
")  c #AB7A57",
"_  c #A27559",
"`  c #A37B5C",
"'  c #AB7D5C",
"]  c #B47750",
"[  c #B87650",
"{  c #B57B54",
"}  c #BB7C53",
"|  c #B17E59",
" . c #BA7F59",
".. c #9D7A60",
"X. c #A47E62",
"o. c #AA7D62",
"O. c #C37345",
"+. c #CB7040",
"@. c #C1754A",
"#. c #C6794E",
"$. c #C87A4E",
"%. c #C57B51",
"&. c #C87D52",
"*. c #AE805E",
"=. c #B3805E",
"-. c #BA835D",
";. c #A68164",
":. c #AC8263",
">. c #AC8669",
",. c #A6896C",
"<. c #AC896C",
"1. c #B18463",
"2. c #BB8661",
"3. c #B48866",
"4. c #B98863",
"5. c #B18668",
"6. c #B28B6C",
"7. c #BA8E6C",
"8. c #BB906E",
"9. c #AE8D72",
"0. c #B18E71",
"q. c #B59273",
"w. c #BA9374",
"e. c #B49579",
"r. c #BA9679",
"t. c #B4987D",
"y. c #BD9A7C",
"u. c #C78057",
"i. c #C58259",
"p. c #C08764",
"a. c #C08E6B",
"s. c #C09A7C",
"d. c #B59A80",
"f. c #BC9E82",
"g. c #BCA185",
"h. c #BFA58C",
"j. c #C19D80",
"k. c #C2A387",
"l. c #C2A58A",
"z. c #C3A98E",
"x. c #C6AD94",
"c. c #C5B097",
"v. c #C8B197",
"b. c #C8B29A",
/* pixels */
"* * $ $ $ * + D [ M N N N N +.+.N +.N N N N N O.w.e y y y y y t O g O O y y f O ",
"< = @ @ @ , . J *.k n n T n v v k k k k k k k | y.h 0 w 0 0 0 0 > > > w w w e j ",
"<.o.o.;.:.<.o.q.8.*.*.*.' ' <.t.q.:.o.o.*.*.:.q.y.8.1.:.1.1.:.1.0.y.q.3.6.6.3.*.",
"n x x x x f f f f f f f u u Y v.s.m b c c x x x x x x x x g z g -.b.4.x c x f f ",
"t y y y y y y y y y y y y y z z.7.i y y y y y y y y y y y y y y W b.-.y y y y y ",
"t y y y y y y y y y y y y y z z.7.y y y y y y y y y y y y y y t ! c.-.O y y y i ",
"e y y y y i y y y y y y y y z z.7.8 i t y y y y y y y y t y r O W c.-.O y y y y ",
"> 7 e 8 8 8 8 8 9 8 8 e 8 8 k x.r.: 7 7 7 9 e e 9 f e 0 : : : ; R b.*.% : 7 : : ",
":.) *.*.' ) =.:.) ' *.) ) ( :.s.w.) *.=.*.*.*.8.3.1.-.3.6.q.q.q.q.k.3.R / ` *.;.",
"f x n k c b [  .x m m c x u u u f g x c x x c w.=.f c N Q ~ ^ m x f f f f x c W ",
"y y O O t t p I y y i y y y y y y y y O y y y 8.W y y O y y g y y y i y i y y f ",
"t O 7 f u u a W y y y y y y y y y y y y y y y 4.W O y g g y y y y y y y y y y t ",
"7 e u i y y a ! y y t y y y t t y y y y f O g -.c g O f O y y y y y y y y y t u ",
"e 7 7 8 8 7 5 ( 0 7 7 0 q u u u 9 e 7 7 7 7 o *.l 7 8 9 f O O f 8 7 8 8 8 8 8 7 ",
"<.,.` J ;.X.>.e.X._ ` >.' o.o.` ` 6.>.` *.` ` q.3._ H F R R ( ( ) X.H U F F F / ",
"v.' 6 B L L V B 6 4 1 4 1 4 4 1 6 w.-.~ m m c x x x f f f f e u z r.-.x x x x u ",
"c.V * * * * * * * * * & * * * * = :.x y y y y y t y y y y y y u u 0.! y y y y y ",
"v.L * * * * * * * * * * * * * & - *.x y y y y y i y y y y y y y u w.! y y y y y ",
"x.V * * * * * * * * * * * * & - @ ' j y y y y y t y y y y i y y u r.Y y y y y y ",
"c.S X X + # + # # # # # & & + +   ;.h 7 7 8 9 t t t 8 u 9 9 8 w > f./ 7 8 8 8 r ",
"z.e.G H H G H ` J _ _ _ ` _ J H H d.r.;.;.;.>.<.6.:.3.4.5.5.5.<.6.k.f.>.>.o.5.5.",
"@.@.%.i.u.u.4.r.} } ^ } ^ ^ ^ ^ ^ ^ ^ [ ^ [ } y.w.~ ^ O.~ n n n v x ^ ~ ~ Q %.T ",
"N N +.+.N N %.-.u y i y y y y y y y y y y y i -.2.g y y y y f O y y i y t y i y ",
"N N +.N N +.@.2.i i y y y y y y y y y y y y t ! -.y y O M y y y y y t y y y y y ",
"N N +.N N +.~ 4.y y y y y y y y y y y y y y y W { t g O g g O y t t y y y y y y ",
"b x b b N x I 1.8 O r r r t r t t y t r r r 8 I ) o 7 8 O O y O t t y r r r o 7 ",
"/ _ H ` _ _ ` t.D Z A I F I U I E E R F F F F <.y._ ` F F R E ) :.) / / / G ` H ",
"] -.-.-. . . . .] W n W ] { -.3.z.=.[ } -.-.-.^ ! W ! ! } -.-.-.4.j.o.o.o.o.o.o.",
"i i M i i u g g O y O O O M g ^ k.v i i g g i y y O t y g g g g m 7.1 = - - = - ",
"y O O y i y y y M O O O O O g W k.c y O y y y y y y y y y y y O z 3.1 * * - * - ",
"y y y y y y y y y O O M y y y n k.z y g y y y y y y y y y y y y u 5.- $ - * * * ",
"8 r r r r y y y y y y y O O O h g.z O O r y O y y y y t O O t O w 5.< # & & & & ",
"/ S Z U R P P I P l R P A L d ' x.o.S U L U P I P P l d Z D C s F g.D 3 2 2 3 3 ",
"y.r.r.y.y.w.g.h.f.f.y.g.f.f.g.k.l.l.j.f.y.f.f.k.l.r.0.6.w.r.q.q.r.s.q.0.6.6.9.0.",
"M O.M T M M -.a.%.$.$.$.$.$.$.$.&.&.#.O.O.O.O.2.^ x x x x x x x c x c m M m m Q ",
"y y y i g O n p.M N N N N N N N N N N N +.N N 3.n y y y y y y y y y y y O y y i ",
"y y y y t y n -.N N N N N N N N N N N N +.N M 3.Q y y y y y t y y y y y y y y y ",
"y y y i y y v -.N N N +.N N N N N +.N N N N b | n y y y i y y i y y y y y y y y ",
"7 7 8 7 8 7 l 1.h v c c m M m n v v Y a p k h ' E o 7 7 7 7 7 7 7 7 7 7 7 7 o : ",
"` ` X.` ` ` <.f.;.<.>.` ;.5.<.9.>.X.X.X.>.0.<.f.g.` K K K J J K K K K K K J K .."
};
